%TF.GenerationSoftware,KiCad,Pcbnew,9.0.3*%
%TF.CreationDate,2026-06-10T10:59:13+05:30*%
%TF.ProjectId,meshtalk_t9,6d657368-7461-46c6-9b5f-74392e6b6963,rev?*%
%TF.SameCoordinates,Original*%
%TF.FileFunction,Soldermask,Top*%
%TF.FilePolarity,Negative*%
%FSLAX46Y46*%
G04 Gerber Fmt 4.6, Leading zero omitted, Abs format (unit mm)*
G04 Created by KiCad (PCBNEW 9.0.3) date 2026-06-10 10:59:13*
%MOMM*%
%LPD*%
G01*
G04 APERTURE LIST*
G04 Aperture macros list*
%AMRoundRect*
0 Rectangle with rounded corners*
0 $1 Rounding radius*
0 $2 $3 $4 $5 $6 $7 $8 $9 X,Y pos of 4 corners*
0 Add a 4 corners polygon primitive as box body*
4,1,4,$2,$3,$4,$5,$6,$7,$8,$9,$2,$3,0*
0 Add four circle primitives for the rounded corners*
1,1,$1+$1,$2,$3*
1,1,$1+$1,$4,$5*
1,1,$1+$1,$6,$7*
1,1,$1+$1,$8,$9*
0 Add four rect primitives between the rounded corners*
20,1,$1+$1,$2,$3,$4,$5,0*
20,1,$1+$1,$4,$5,$6,$7,0*
20,1,$1+$1,$6,$7,$8,$9,0*
20,1,$1+$1,$8,$9,$2,$3,0*%
G04 Aperture macros list end*
%ADD10RoundRect,0.250000X-0.250000X-0.475000X0.250000X-0.475000X0.250000X0.475000X-0.250000X0.475000X0*%
%ADD11RoundRect,0.062500X-0.062500X0.337500X-0.062500X-0.337500X0.062500X-0.337500X0.062500X0.337500X0*%
%ADD12R,1.400000X1.700000*%
%ADD13RoundRect,0.250000X0.262500X0.450000X-0.262500X0.450000X-0.262500X-0.450000X0.262500X-0.450000X0*%
%ADD14C,0.650000*%
%ADD15R,0.600000X1.450000*%
%ADD16R,0.300000X1.450000*%
%ADD17O,1.000000X2.100000*%
%ADD18O,1.000000X1.600000*%
%ADD19RoundRect,0.150000X0.512500X0.150000X-0.512500X0.150000X-0.512500X-0.150000X0.512500X-0.150000X0*%
%ADD20RoundRect,0.300000X-0.500000X-0.000010X0.500000X-0.000010X0.500000X0.000010X-0.500000X0.000010X0*%
%ADD21RoundRect,0.250000X0.250000X0.475000X-0.250000X0.475000X-0.250000X-0.475000X0.250000X-0.475000X0*%
%ADD22R,1.600000X1.400000*%
%ADD23RoundRect,0.243750X0.243750X0.456250X-0.243750X0.456250X-0.243750X-0.456250X0.243750X-0.456250X0*%
%ADD24R,0.900000X1.500000*%
%ADD25R,1.500000X0.900000*%
%ADD26C,0.600000*%
%ADD27R,3.900000X3.900000*%
%ADD28RoundRect,0.150000X0.587500X0.150000X-0.587500X0.150000X-0.587500X-0.150000X0.587500X-0.150000X0*%
%ADD29RoundRect,0.250000X-0.475000X0.250000X-0.475000X-0.250000X0.475000X-0.250000X0.475000X0.250000X0*%
%ADD30RoundRect,0.250000X-0.450000X0.262500X-0.450000X-0.262500X0.450000X-0.262500X0.450000X0.262500X0*%
%ADD31RoundRect,0.150000X-0.587500X-0.150000X0.587500X-0.150000X0.587500X0.150000X-0.587500X0.150000X0*%
%ADD32RoundRect,0.200000X-0.200000X-0.600000X0.200000X-0.600000X0.200000X0.600000X-0.200000X0.600000X0*%
%ADD33RoundRect,0.250001X-0.799999X-1.249999X0.799999X-1.249999X0.799999X1.249999X-0.799999X1.249999X0*%
G04 APERTURE END LIST*
D10*
%TO.C,R6*%
X45800000Y-71750000D03*
X47700000Y-71750000D03*
%TD*%
D11*
%TO.C,U3*%
X45100000Y-43725000D03*
X44600000Y-43725000D03*
X44100000Y-43725000D03*
X43600000Y-43725000D03*
X43600000Y-46625000D03*
X44100000Y-46625000D03*
X44600000Y-46625000D03*
X45100000Y-46625000D03*
D12*
X44350000Y-45175000D03*
%TD*%
D13*
%TO.C,R4*%
X49250000Y-35500000D03*
X47425000Y-35500000D03*
%TD*%
D14*
%TO.C,J1*%
X56870000Y-36695000D03*
X62650000Y-36695000D03*
D15*
X56510000Y-35250000D03*
X57310000Y-35250000D03*
D16*
X58510000Y-35250000D03*
X59510000Y-35250000D03*
X60010000Y-35250000D03*
X61010000Y-35250000D03*
D15*
X62210000Y-35250000D03*
X63010000Y-35250000D03*
X63010000Y-35250000D03*
X62210000Y-35250000D03*
D16*
X61510000Y-35250000D03*
X60510000Y-35250000D03*
X59010000Y-35250000D03*
X58010000Y-35250000D03*
D15*
X57310000Y-35250000D03*
X56510000Y-35250000D03*
D17*
X55440000Y-36165000D03*
D18*
X55440000Y-40345000D03*
D17*
X64080000Y-36165000D03*
D18*
X64080000Y-40345000D03*
%TD*%
D19*
%TO.C,U2*%
X71000000Y-37150000D03*
X71000000Y-36200000D03*
X71000000Y-35250000D03*
X68725000Y-35250000D03*
X68725000Y-37150000D03*
%TD*%
D20*
%TO.C,U4*%
X44050000Y-51908750D03*
X44050000Y-53178750D03*
X44050000Y-54448750D03*
X44050000Y-55718750D03*
X44050000Y-56988750D03*
X44050000Y-58258750D03*
X44050000Y-59528750D03*
X44050000Y-60798750D03*
X54450000Y-56988750D03*
X54450000Y-55718750D03*
X54450000Y-54448750D03*
X54450000Y-53178750D03*
%TD*%
D21*
%TO.C,R7*%
X49700000Y-46500000D03*
X47800000Y-46500000D03*
%TD*%
D22*
%TO.C,SW1*%
X50000000Y-67000000D03*
X58000000Y-67000000D03*
X50000000Y-71500000D03*
X58000000Y-71500000D03*
%TD*%
D23*
%TO.C,D1*%
X49187500Y-38500000D03*
X47312500Y-38500000D03*
%TD*%
D13*
%TO.C,R3*%
X53325000Y-35550000D03*
X51500000Y-35550000D03*
%TD*%
D24*
%TO.C,U1*%
X78010000Y-48000000D03*
X76740000Y-48000000D03*
X75470000Y-48000000D03*
X74200000Y-48000000D03*
X72930000Y-48000000D03*
X71660000Y-48000000D03*
X70390000Y-48000000D03*
X69120000Y-48000000D03*
X67850000Y-48000000D03*
X66580000Y-48000000D03*
X65310000Y-48000000D03*
X64040000Y-48000000D03*
X62770000Y-48000000D03*
X61500000Y-48000000D03*
D25*
X60250000Y-49765000D03*
X60250000Y-51035000D03*
X60250000Y-52305000D03*
X60250000Y-53575000D03*
X60250000Y-54845000D03*
X60250000Y-56115000D03*
X60250000Y-57385000D03*
X60250000Y-58655000D03*
X60250000Y-59925000D03*
X60250000Y-61195000D03*
X60250000Y-62465000D03*
X60250000Y-63735000D03*
D24*
X61500000Y-65500000D03*
X62770000Y-65500000D03*
X64040000Y-65500000D03*
X65310000Y-65500000D03*
X66580000Y-65500000D03*
X67850000Y-65500000D03*
X69120000Y-65500000D03*
X70390000Y-65500000D03*
X71660000Y-65500000D03*
X72930000Y-65500000D03*
X74200000Y-65500000D03*
X75470000Y-65500000D03*
X76740000Y-65500000D03*
X78010000Y-65500000D03*
D26*
X70990000Y-53850000D03*
X69590000Y-53850000D03*
X71690000Y-54550000D03*
X70290000Y-54550000D03*
X68890000Y-54550000D03*
X70990000Y-55250000D03*
D27*
X70290000Y-55250000D03*
D26*
X69590000Y-55250000D03*
X71690000Y-55950000D03*
X70290000Y-55950000D03*
X68890000Y-55950000D03*
X70990000Y-56650000D03*
X69590000Y-56650000D03*
%TD*%
D21*
%TO.C,C5*%
X45660000Y-35500000D03*
X43760000Y-35500000D03*
%TD*%
D28*
%TO.C,Q1*%
X50500000Y-43150000D03*
X50500000Y-41250000D03*
X48625000Y-42200000D03*
%TD*%
D21*
%TO.C,C4*%
X77410000Y-36250000D03*
X75510000Y-36250000D03*
%TD*%
D29*
%TO.C,C1*%
X75400000Y-39500000D03*
X75400000Y-41400000D03*
%TD*%
D30*
%TO.C,R1*%
X67900000Y-43337500D03*
X67900000Y-45162500D03*
%TD*%
D29*
%TO.C,C6*%
X40000000Y-62250000D03*
X40000000Y-64150000D03*
%TD*%
%TO.C,C2*%
X72750000Y-43300000D03*
X72750000Y-45200000D03*
%TD*%
D13*
%TO.C,R2*%
X53325000Y-38500000D03*
X51500000Y-38500000D03*
%TD*%
D29*
%TO.C,C3*%
X77650000Y-43300000D03*
X77650000Y-45200000D03*
%TD*%
D31*
%TO.C,Q2*%
X42882500Y-65075000D03*
X42882500Y-66975000D03*
X44757500Y-66025000D03*
%TD*%
D10*
%TO.C,R5*%
X45800000Y-68000000D03*
X47700000Y-68000000D03*
%TD*%
D32*
%TO.C,J2*%
X38500000Y-67250000D03*
X39750000Y-67250000D03*
D33*
X35950000Y-70150000D03*
X42300000Y-70150000D03*
%TD*%
M02*
