%TF.GenerationSoftware,KiCad,Pcbnew,9.0.3*%
%TF.CreationDate,2026-06-10T10:59:13+05:30*%
%TF.ProjectId,meshtalk_t9,6d657368-7461-46c6-9b5f-74392e6b6963,rev?*%
%TF.SameCoordinates,Original*%
%TF.FileFunction,Copper,L1,Top*%
%TF.FilePolarity,Positive*%
%FSLAX46Y46*%
G04 Gerber Fmt 4.6, Leading zero omitted, Abs format (unit mm)*
G04 Created by KiCad (PCBNEW 9.0.3) date 2026-06-10 10:59:13*
%MOMM*%
%LPD*%
G01*
G04 APERTURE LIST*
G04 Aperture macros list*
%AMRoundRect*
0 Rectangle with rounded corners*
0 $1 Rounding radius*
0 $2 $3 $4 $5 $6 $7 $8 $9 X,Y pos of 4 corners*
0 Add a 4 corners polygon primitive as box body*
4,1,4,$2,$3,$4,$5,$6,$7,$8,$9,$2,$3,0*
0 Add four circle primitives for the rounded corners*
1,1,$1+$1,$2,$3*
1,1,$1+$1,$4,$5*
1,1,$1+$1,$6,$7*
1,1,$1+$1,$8,$9*
0 Add four rect primitives between the rounded corners*
20,1,$1+$1,$2,$3,$4,$5,0*
20,1,$1+$1,$4,$5,$6,$7,0*
20,1,$1+$1,$6,$7,$8,$9,0*
20,1,$1+$1,$8,$9,$2,$3,0*%
G04 Aperture macros list end*
%TA.AperFunction,EtchedComponent*%
%ADD10C,0.000000*%
%TD*%
%TA.AperFunction,SMDPad,CuDef*%
%ADD11RoundRect,0.250000X-0.250000X-0.475000X0.250000X-0.475000X0.250000X0.475000X-0.250000X0.475000X0*%
%TD*%
%TA.AperFunction,SMDPad,CuDef*%
%ADD12RoundRect,0.062500X-0.062500X0.337500X-0.062500X-0.337500X0.062500X-0.337500X0.062500X0.337500X0*%
%TD*%
%TA.AperFunction,HeatsinkPad*%
%ADD13R,1.400000X1.700000*%
%TD*%
%TA.AperFunction,SMDPad,CuDef*%
%ADD14RoundRect,0.250000X0.262500X0.450000X-0.262500X0.450000X-0.262500X-0.450000X0.262500X-0.450000X0*%
%TD*%
%TA.AperFunction,SMDPad,CuDef*%
%ADD15R,0.600000X1.450000*%
%TD*%
%TA.AperFunction,SMDPad,CuDef*%
%ADD16R,0.300000X1.450000*%
%TD*%
%TA.AperFunction,HeatsinkPad*%
%ADD17O,1.000000X2.100000*%
%TD*%
%TA.AperFunction,HeatsinkPad*%
%ADD18O,1.000000X1.600000*%
%TD*%
%TA.AperFunction,SMDPad,CuDef*%
%ADD19RoundRect,0.150000X0.512500X0.150000X-0.512500X0.150000X-0.512500X-0.150000X0.512500X-0.150000X0*%
%TD*%
%TA.AperFunction,SMDPad,CuDef*%
%ADD20RoundRect,0.300000X-0.500000X-0.000010X0.500000X-0.000010X0.500000X0.000010X-0.500000X0.000010X0*%
%TD*%
%TA.AperFunction,SMDPad,CuDef*%
%ADD21RoundRect,0.250000X0.250000X0.475000X-0.250000X0.475000X-0.250000X-0.475000X0.250000X-0.475000X0*%
%TD*%
%TA.AperFunction,SMDPad,CuDef*%
%ADD22R,1.600000X1.400000*%
%TD*%
%TA.AperFunction,SMDPad,CuDef*%
%ADD23RoundRect,0.243750X0.243750X0.456250X-0.243750X0.456250X-0.243750X-0.456250X0.243750X-0.456250X0*%
%TD*%
%TA.AperFunction,SMDPad,CuDef*%
%ADD24R,0.900000X1.500000*%
%TD*%
%TA.AperFunction,SMDPad,CuDef*%
%ADD25R,1.500000X0.900000*%
%TD*%
%TA.AperFunction,HeatsinkPad*%
%ADD26C,0.600000*%
%TD*%
%TA.AperFunction,HeatsinkPad*%
%ADD27R,3.900000X3.900000*%
%TD*%
%TA.AperFunction,SMDPad,CuDef*%
%ADD28RoundRect,0.150000X0.587500X0.150000X-0.587500X0.150000X-0.587500X-0.150000X0.587500X-0.150000X0*%
%TD*%
%TA.AperFunction,SMDPad,CuDef*%
%ADD29RoundRect,0.250000X-0.475000X0.250000X-0.475000X-0.250000X0.475000X-0.250000X0.475000X0.250000X0*%
%TD*%
%TA.AperFunction,SMDPad,CuDef*%
%ADD30RoundRect,0.250000X-0.450000X0.262500X-0.450000X-0.262500X0.450000X-0.262500X0.450000X0.262500X0*%
%TD*%
%TA.AperFunction,SMDPad,CuDef*%
%ADD31RoundRect,0.150000X-0.587500X-0.150000X0.587500X-0.150000X0.587500X0.150000X-0.587500X0.150000X0*%
%TD*%
%TA.AperFunction,SMDPad,CuDef*%
%ADD32RoundRect,0.200000X-0.200000X-0.600000X0.200000X-0.600000X0.200000X0.600000X-0.200000X0.600000X0*%
%TD*%
%TA.AperFunction,SMDPad,CuDef*%
%ADD33RoundRect,0.250001X-0.799999X-1.249999X0.799999X-1.249999X0.799999X1.249999X-0.799999X1.249999X0*%
%TD*%
%TA.AperFunction,ViaPad*%
%ADD34C,0.800000*%
%TD*%
%TA.AperFunction,ViaPad*%
%ADD35C,0.600000*%
%TD*%
%TA.AperFunction,Conductor*%
%ADD36C,0.500000*%
%TD*%
%TA.AperFunction,Conductor*%
%ADD37C,0.200000*%
%TD*%
G04 APERTURE END LIST*
D10*
%TA.AperFunction,EtchedComponent*%
%TO.C,G\u002A\u002A\u002A*%
G36*
X77042053Y-76730936D02*
G01*
X78037306Y-76746248D01*
X78054548Y-76984548D01*
X78071790Y-77222848D01*
X77059294Y-77222848D01*
X76046799Y-77222848D01*
X76046799Y-76969236D01*
X76046799Y-76715625D01*
X77042053Y-76730936D01*
G37*
%TD.AperFunction*%
%TA.AperFunction,EtchedComponent*%
G36*
X76495364Y-77699449D02*
G01*
X76495364Y-77951766D01*
X77280353Y-77951766D01*
X78065342Y-77951766D01*
X78065342Y-78176049D01*
X78065342Y-78400332D01*
X77280353Y-78400332D01*
X76495364Y-78400332D01*
X76495364Y-78652649D01*
X76495364Y-78904967D01*
X76271081Y-78904967D01*
X76046799Y-78904967D01*
X76046799Y-78176049D01*
X76046799Y-77447131D01*
X76271081Y-77447131D01*
X76495364Y-77447131D01*
X76495364Y-77699449D01*
G37*
%TD.AperFunction*%
%TA.AperFunction,EtchedComponent*%
G36*
X76257064Y-82335909D02*
G01*
X76389826Y-82353932D01*
X76453398Y-82401192D01*
X76478068Y-82511533D01*
X76484494Y-82590050D01*
X76501659Y-82826789D01*
X77269483Y-82842368D01*
X78037306Y-82857947D01*
X78053993Y-83056199D01*
X78054817Y-83199081D01*
X78034933Y-83288896D01*
X78030630Y-83294499D01*
X77962570Y-83309305D01*
X77804426Y-83321639D01*
X77578249Y-83330380D01*
X77306088Y-83334406D01*
X77242972Y-83334548D01*
X76495364Y-83334548D01*
X76495364Y-83558830D01*
X76495364Y-83783113D01*
X76271081Y-83783113D01*
X76046799Y-83783113D01*
X76046799Y-83050810D01*
X76046799Y-82318507D01*
X76257064Y-82335909D01*
G37*
%TD.AperFunction*%
%TA.AperFunction,EtchedComponent*%
G36*
X78065342Y-84287749D02*
G01*
X78065342Y-84512031D01*
X77614101Y-84512031D01*
X77162860Y-84512031D01*
X77179554Y-84862473D01*
X77196247Y-85212914D01*
X77630794Y-85229291D01*
X78065342Y-85245667D01*
X78065342Y-85467591D01*
X78065342Y-85689515D01*
X77056070Y-85689515D01*
X76046799Y-85689515D01*
X76046799Y-85465232D01*
X76046799Y-85240950D01*
X76411258Y-85240950D01*
X76775717Y-85240950D01*
X76775717Y-84876491D01*
X76775717Y-84512031D01*
X76411258Y-84512031D01*
X76046799Y-84512031D01*
X76046799Y-84287749D01*
X76046799Y-84063466D01*
X77056070Y-84063466D01*
X78065342Y-84063466D01*
X78065342Y-84287749D01*
G37*
%TD.AperFunction*%
%TA.AperFunction,EtchedComponent*%
G36*
X78065342Y-88240729D02*
G01*
X78065342Y-88885541D01*
X77056070Y-88885541D01*
X76046799Y-88885541D01*
X76046799Y-88265380D01*
X76046799Y-87645218D01*
X76257064Y-87662620D01*
X76467328Y-87680023D01*
X76483908Y-88058499D01*
X76494523Y-88258828D01*
X76512260Y-88372007D01*
X76549100Y-88422919D01*
X76617025Y-88436451D01*
X76666138Y-88436976D01*
X76831788Y-88436976D01*
X76831788Y-88072517D01*
X76831788Y-87708058D01*
X77028035Y-87708058D01*
X77224282Y-87708058D01*
X77224282Y-88072517D01*
X77224282Y-88436976D01*
X77448565Y-88436976D01*
X77672847Y-88436976D01*
X77672847Y-88016446D01*
X77672847Y-87595917D01*
X77869094Y-87595917D01*
X78065342Y-87595917D01*
X78065342Y-88240729D01*
G37*
%TD.AperFunction*%
%TA.AperFunction,EtchedComponent*%
G36*
X76257064Y-104820236D02*
G01*
X76467328Y-104837638D01*
X76483908Y-105216115D01*
X76494523Y-105416444D01*
X76512260Y-105529622D01*
X76549100Y-105580535D01*
X76617025Y-105594067D01*
X76666138Y-105594592D01*
X76831788Y-105594592D01*
X76831788Y-105230133D01*
X76831788Y-104865674D01*
X77028035Y-104865674D01*
X77224282Y-104865674D01*
X77224282Y-105233518D01*
X77224282Y-105601362D01*
X77434547Y-105583959D01*
X77644812Y-105566557D01*
X77661391Y-105188080D01*
X77677971Y-104809603D01*
X77871656Y-104809603D01*
X78065342Y-104809603D01*
X78065342Y-105426380D01*
X78065342Y-106043157D01*
X77056070Y-106043157D01*
X76046799Y-106043157D01*
X76046799Y-105422995D01*
X76046799Y-104802834D01*
X76257064Y-104820236D01*
G37*
%TD.AperFunction*%
%TA.AperFunction,EtchedComponent*%
G36*
X78065342Y-106968323D02*
G01*
X78065342Y-107613135D01*
X77056070Y-107613135D01*
X76046799Y-107613135D01*
X76046799Y-106992973D01*
X76046799Y-106372812D01*
X76257064Y-106390214D01*
X76467328Y-106407616D01*
X76483908Y-106786093D01*
X76494523Y-106986422D01*
X76512260Y-107099600D01*
X76549100Y-107150513D01*
X76617025Y-107164045D01*
X76666138Y-107164570D01*
X76831788Y-107164570D01*
X76831788Y-106800111D01*
X76831788Y-106435652D01*
X77028035Y-106435652D01*
X77224282Y-106435652D01*
X77224282Y-106800111D01*
X77224282Y-107164570D01*
X77448565Y-107164570D01*
X77672847Y-107164570D01*
X77672847Y-106744040D01*
X77672847Y-106323510D01*
X77869094Y-106323510D01*
X78065342Y-106323510D01*
X78065342Y-106968323D01*
G37*
%TD.AperFunction*%
%TA.AperFunction,EtchedComponent*%
G36*
X77855077Y-107903953D02*
G01*
X78037306Y-107921524D01*
X78053160Y-108552318D01*
X78069014Y-109183113D01*
X77057907Y-109183113D01*
X76046799Y-109183113D01*
X76046799Y-108562951D01*
X76046799Y-107942790D01*
X76257064Y-107960192D01*
X76467328Y-107977594D01*
X76483908Y-108356071D01*
X76494523Y-108556400D01*
X76512260Y-108669578D01*
X76549100Y-108720491D01*
X76617025Y-108734023D01*
X76666138Y-108734548D01*
X76831788Y-108734548D01*
X76831788Y-108370089D01*
X76831788Y-108005630D01*
X77028035Y-108005630D01*
X77224282Y-108005630D01*
X77224282Y-108370089D01*
X77224282Y-108734548D01*
X77448565Y-108734548D01*
X77672847Y-108734548D01*
X77672847Y-108310466D01*
X77672847Y-107886383D01*
X77855077Y-107903953D01*
G37*
%TD.AperFunction*%
%TA.AperFunction,EtchedComponent*%
G36*
X78054548Y-89516336D02*
G01*
X78037306Y-89754636D01*
X77399085Y-89782672D01*
X76760863Y-89810707D01*
X77216855Y-89945756D01*
X77672847Y-90080804D01*
X77672847Y-90320761D01*
X77672847Y-90560719D01*
X77154194Y-90727724D01*
X76635540Y-90894729D01*
X77350441Y-90899407D01*
X78065342Y-90904084D01*
X78065342Y-91128367D01*
X78065342Y-91352649D01*
X77056070Y-91352649D01*
X76046799Y-91352649D01*
X76046799Y-90993409D01*
X76046799Y-90634168D01*
X76369205Y-90539762D01*
X76567987Y-90479350D01*
X76740218Y-90423236D01*
X76820408Y-90394367D01*
X76976612Y-90351335D01*
X77072726Y-90339473D01*
X77111456Y-90332540D01*
X77089920Y-90313389D01*
X76997566Y-90278294D01*
X76823838Y-90223529D01*
X76558184Y-90145369D01*
X76369205Y-90091098D01*
X76046799Y-89998997D01*
X76046799Y-89638516D01*
X76046799Y-89278036D01*
X77059294Y-89278036D01*
X78071790Y-89278036D01*
X78054548Y-89516336D01*
G37*
%TD.AperFunction*%
%TA.AperFunction,EtchedComponent*%
G36*
X77294441Y-102834808D02*
G01*
X77486261Y-102874849D01*
X77612436Y-102932794D01*
X77785396Y-103049825D01*
X77904765Y-103179017D01*
X77981607Y-103344876D01*
X78026985Y-103571907D01*
X78051962Y-103884615D01*
X78053168Y-103909014D01*
X78080335Y-104473179D01*
X77057563Y-104473179D01*
X77057045Y-104473179D01*
X76033756Y-104473179D01*
X76053189Y-104024614D01*
X76432422Y-104024614D01*
X77057563Y-104024614D01*
X77682704Y-104024614D01*
X77643636Y-103786314D01*
X77599277Y-103612985D01*
X77537078Y-103475648D01*
X77518868Y-103450987D01*
X77372909Y-103358622D01*
X77164067Y-103311169D01*
X76932750Y-103309870D01*
X76719366Y-103355968D01*
X76595185Y-103422568D01*
X76535219Y-103517126D01*
X76484922Y-103676244D01*
X76469867Y-103758279D01*
X76432422Y-104024614D01*
X76053189Y-104024614D01*
X76057440Y-103926491D01*
X76091332Y-103540674D01*
X76162136Y-103251794D01*
X76280509Y-103047762D01*
X76457109Y-102916492D01*
X76702592Y-102845895D01*
X77027615Y-102823882D01*
X77029555Y-102823874D01*
X77294441Y-102834808D01*
G37*
%TD.AperFunction*%
%TA.AperFunction,EtchedComponent*%
G36*
X78065342Y-70017771D02*
G01*
X78065342Y-70718654D01*
X77847714Y-70718654D01*
X77697979Y-70704102D01*
X77588046Y-70643163D01*
X77471372Y-70509913D01*
X77470212Y-70508389D01*
X77289953Y-70292792D01*
X77097274Y-70097401D01*
X76915828Y-69943695D01*
X76769267Y-69853158D01*
X76736082Y-69841637D01*
X76583765Y-69837250D01*
X76489083Y-69919263D01*
X76448485Y-70093160D01*
X76451000Y-70281842D01*
X76474484Y-70606513D01*
X76294676Y-70606513D01*
X76179566Y-70594743D01*
X76106456Y-70546024D01*
X76066139Y-70440241D01*
X76049409Y-70257279D01*
X76046799Y-70064943D01*
X76052164Y-69858239D01*
X76076370Y-69724274D01*
X76131586Y-69623846D01*
X76210697Y-69536857D01*
X76354708Y-69422595D01*
X76513586Y-69377615D01*
X76617210Y-69373328D01*
X76829645Y-69400148D01*
X77027986Y-69488902D01*
X77234783Y-69653072D01*
X77433394Y-69861234D01*
X77670541Y-70129912D01*
X77671694Y-69723400D01*
X77672847Y-69316888D01*
X77869094Y-69316888D01*
X78065342Y-69316888D01*
X78065342Y-70017771D01*
G37*
%TD.AperFunction*%
%TA.AperFunction,EtchedComponent*%
G36*
X76472610Y-75338992D02*
G01*
X76481597Y-75576085D01*
X76529048Y-75731622D01*
X76633388Y-75822258D01*
X76813040Y-75864644D01*
X77066018Y-75875370D01*
X77271960Y-75872107D01*
X77400264Y-75852841D01*
X77485300Y-75807017D01*
X77561438Y-75724081D01*
X77562326Y-75722959D01*
X77635018Y-75609455D01*
X77662474Y-75486712D01*
X77653792Y-75308195D01*
X77650012Y-75274393D01*
X77615797Y-74980023D01*
X77806535Y-74980023D01*
X77965562Y-75006842D01*
X78031307Y-75068714D01*
X78058046Y-75215708D01*
X78063204Y-75426893D01*
X78049053Y-75656883D01*
X78017863Y-75860295D01*
X77986520Y-75963928D01*
X77843845Y-76157993D01*
X77619183Y-76300997D01*
X77333715Y-76385827D01*
X77008624Y-76405373D01*
X76762027Y-76375051D01*
X76539200Y-76320131D01*
X76386681Y-76247295D01*
X76262921Y-76130655D01*
X76168405Y-76005171D01*
X76100597Y-75890856D01*
X76064771Y-75768470D01*
X76053957Y-75600741D01*
X76058322Y-75416430D01*
X76074834Y-75008058D01*
X76276363Y-74991176D01*
X76477892Y-74974295D01*
X76472610Y-75338992D01*
G37*
%TD.AperFunction*%
%TA.AperFunction,EtchedComponent*%
G36*
X78065342Y-73325939D02*
G01*
X78065342Y-74026822D01*
X77855077Y-74025867D01*
X77743314Y-74016860D01*
X77648872Y-73979219D01*
X77546554Y-73895263D01*
X77411165Y-73747310D01*
X77341332Y-73665332D01*
X77092259Y-73397639D01*
X76876897Y-73223134D01*
X76699694Y-73144677D01*
X76565096Y-73165130D01*
X76564614Y-73165437D01*
X76506808Y-73231433D01*
X76476711Y-73353142D01*
X76467876Y-73557598D01*
X76467877Y-73571133D01*
X76468426Y-73914680D01*
X76291647Y-73914680D01*
X76177884Y-73902651D01*
X76105623Y-73853180D01*
X76065787Y-73746197D01*
X76049303Y-73561630D01*
X76046799Y-73373110D01*
X76052164Y-73166407D01*
X76076370Y-73032442D01*
X76131586Y-72932014D01*
X76210697Y-72845025D01*
X76362685Y-72726891D01*
X76532897Y-72683575D01*
X76606878Y-72681126D01*
X76788065Y-72693130D01*
X76939377Y-72739537D01*
X77088181Y-72835943D01*
X77261844Y-72997946D01*
X77377548Y-73120309D01*
X77670991Y-73438080D01*
X77671919Y-73031568D01*
X77672847Y-72625056D01*
X77869094Y-72625056D01*
X78065342Y-72625056D01*
X78065342Y-73325939D01*
G37*
%TD.AperFunction*%
%TA.AperFunction,EtchedComponent*%
G36*
X76464505Y-98837362D02*
G01*
X76447705Y-99105774D01*
X76494951Y-99295723D01*
X76611735Y-99424387D01*
X76661604Y-99453837D01*
X76868779Y-99520370D01*
X77100922Y-99533311D01*
X77326118Y-99498207D01*
X77512457Y-99420604D01*
X77628023Y-99306049D01*
X77638017Y-99284133D01*
X77670645Y-99095933D01*
X77655846Y-98872661D01*
X77618164Y-98729589D01*
X77590234Y-98636695D01*
X77618525Y-98595991D01*
X77727273Y-98585988D01*
X77780377Y-98585762D01*
X77955836Y-98609098D01*
X78031307Y-98674454D01*
X78062942Y-98843558D01*
X78065385Y-99072426D01*
X78041964Y-99313501D01*
X77996009Y-99519225D01*
X77967131Y-99591048D01*
X77832407Y-99792648D01*
X77657599Y-99924681D01*
X77418146Y-100000877D01*
X77182894Y-100029533D01*
X76795923Y-100020612D01*
X76488241Y-99933344D01*
X76260772Y-99768478D01*
X76114442Y-99526762D01*
X76050173Y-99208946D01*
X76047008Y-99109001D01*
X76052499Y-98862938D01*
X76076179Y-98708193D01*
X76128316Y-98624224D01*
X76219179Y-98590490D01*
X76308551Y-98585762D01*
X76502235Y-98585762D01*
X76464505Y-98837362D01*
G37*
%TD.AperFunction*%
%TA.AperFunction,EtchedComponent*%
G36*
X78065342Y-94879544D02*
G01*
X78060563Y-95039228D01*
X78027115Y-95125645D01*
X77936333Y-95176959D01*
X77813024Y-95215471D01*
X77560706Y-95289972D01*
X77560706Y-95664690D01*
X77560706Y-96039409D01*
X77799006Y-96125973D01*
X77947597Y-96188434D01*
X78020236Y-96259039D01*
X78048593Y-96377446D01*
X78054548Y-96445949D01*
X78054924Y-96589393D01*
X78035343Y-96671692D01*
X78023702Y-96679360D01*
X77958078Y-96660532D01*
X77805212Y-96608237D01*
X77582722Y-96528761D01*
X77308223Y-96428390D01*
X77067385Y-96338803D01*
X77025224Y-96323120D01*
X76074834Y-95966880D01*
X76058394Y-95662857D01*
X76058365Y-95662317D01*
X76523399Y-95662317D01*
X76719646Y-95743592D01*
X76935066Y-95830512D01*
X77067385Y-95870705D01*
X77136850Y-95860976D01*
X77163710Y-95798129D01*
X77168210Y-95678970D01*
X77168211Y-95672799D01*
X77163384Y-95528606D01*
X77134682Y-95470120D01*
X77060779Y-95470938D01*
X77014017Y-95481897D01*
X76845175Y-95533372D01*
X76691611Y-95591221D01*
X76523399Y-95662317D01*
X76058365Y-95662317D01*
X76041953Y-95358835D01*
X77053648Y-94988476D01*
X78065342Y-94618117D01*
X78065342Y-94879544D01*
G37*
%TD.AperFunction*%
%TA.AperFunction,EtchedComponent*%
G36*
X76944737Y-100334485D02*
G01*
X77109786Y-100361508D01*
X77176644Y-100384536D01*
X77296028Y-100502826D01*
X77389184Y-100697661D01*
X77441852Y-100934082D01*
X77448565Y-101051069D01*
X77448565Y-101277153D01*
X77756953Y-101277153D01*
X78065342Y-101277153D01*
X78065342Y-101492090D01*
X78056384Y-101640263D01*
X78034222Y-101735112D01*
X78027961Y-101744408D01*
X77962249Y-101756613D01*
X77803365Y-101767148D01*
X77570276Y-101775312D01*
X77281947Y-101780401D01*
X77018690Y-101781789D01*
X76747682Y-101781789D01*
X76046799Y-101781789D01*
X76046799Y-101303387D01*
X76057121Y-101112946D01*
X76439293Y-101112946D01*
X76444790Y-101206828D01*
X76479679Y-101255694D01*
X76571555Y-101274238D01*
X76747682Y-101277153D01*
X76924220Y-101273637D01*
X77016135Y-101254541D01*
X77050910Y-101207045D01*
X77056070Y-101133290D01*
X77033165Y-100976180D01*
X76998027Y-100880972D01*
X76897493Y-100797533D01*
X76747738Y-100773846D01*
X76595684Y-100811939D01*
X76527404Y-100860628D01*
X76462052Y-100980341D01*
X76439293Y-101112946D01*
X76057121Y-101112946D01*
X76067704Y-100917682D01*
X76130963Y-100633398D01*
X76237385Y-100447792D01*
X76318719Y-100384536D01*
X76437206Y-100350504D01*
X76619119Y-100328524D01*
X76747682Y-100323952D01*
X76944737Y-100334485D01*
G37*
%TD.AperFunction*%
%TA.AperFunction,EtchedComponent*%
G36*
X77671639Y-79057272D02*
G01*
X77876010Y-79171549D01*
X77999732Y-79350619D01*
X78003192Y-79360196D01*
X78037054Y-79526098D01*
X78055205Y-79754279D01*
X78056376Y-79995813D01*
X78039295Y-80201770D01*
X78026691Y-80264680D01*
X77972681Y-80333996D01*
X77843028Y-80361307D01*
X77782265Y-80362804D01*
X77643191Y-80357998D01*
X77592013Y-80329432D01*
X77604517Y-80255881D01*
X77618164Y-80218977D01*
X77660644Y-80040198D01*
X77671570Y-79840086D01*
X77652503Y-79659206D01*
X77605003Y-79538120D01*
X77591432Y-79523977D01*
X77466983Y-79480814D01*
X77343627Y-79526455D01*
X77259127Y-79643732D01*
X77249022Y-79679676D01*
X77147623Y-79997577D01*
X76997860Y-80214528D01*
X76799248Y-80330989D01*
X76551300Y-80347416D01*
X76542023Y-80346225D01*
X76337678Y-80299401D01*
X76200724Y-80211540D01*
X76119312Y-80064180D01*
X76081592Y-79838860D01*
X76074834Y-79618423D01*
X76074834Y-79157285D01*
X76280062Y-79140183D01*
X76485289Y-79123081D01*
X76455628Y-79450194D01*
X76445547Y-79656806D01*
X76464341Y-79781481D01*
X76509629Y-79846740D01*
X76624567Y-79894083D01*
X76722532Y-79830971D01*
X76803771Y-79657198D01*
X76826069Y-79578987D01*
X76937471Y-79296554D01*
X77100959Y-79110701D01*
X77314147Y-79023751D01*
X77402924Y-79017109D01*
X77671639Y-79057272D01*
G37*
%TD.AperFunction*%
%TA.AperFunction,EtchedComponent*%
G36*
X77311475Y-70964104D02*
G01*
X77628364Y-71025368D01*
X77849805Y-71130377D01*
X77987847Y-71290936D01*
X78054538Y-71518850D01*
X78065342Y-71702713D01*
X78050762Y-71887649D01*
X77990394Y-72023148D01*
X77880113Y-72148651D01*
X77738133Y-72267580D01*
X77582295Y-72335758D01*
X77372515Y-72374157D01*
X77168762Y-72384060D01*
X76969320Y-72393753D01*
X76617486Y-72349186D01*
X76332534Y-72244239D01*
X76129984Y-72082695D01*
X76118670Y-72068562D01*
X76080434Y-71965587D01*
X76054855Y-71794820D01*
X76048582Y-71662150D01*
X76049732Y-71628414D01*
X76440152Y-71628414D01*
X76459481Y-71761517D01*
X76485342Y-71825772D01*
X76571852Y-71876745D01*
X76736725Y-71913721D01*
X76946761Y-71934098D01*
X77168762Y-71935271D01*
X77369530Y-71914637D01*
X77434547Y-71900214D01*
X77584460Y-71850859D01*
X77653820Y-71791688D01*
X77672545Y-71693586D01*
X77672847Y-71668306D01*
X77645556Y-71530311D01*
X77545547Y-71452792D01*
X77529020Y-71446184D01*
X77392951Y-71415757D01*
X77196667Y-71395903D01*
X77056070Y-71391502D01*
X76758372Y-71407850D01*
X76561617Y-71458584D01*
X76459229Y-71546231D01*
X76440152Y-71628414D01*
X76049732Y-71628414D01*
X76055233Y-71467078D01*
X76088300Y-71338159D01*
X76163361Y-71229931D01*
X76215329Y-71175527D01*
X76426546Y-71039324D01*
X76722021Y-70962134D01*
X77089196Y-70946379D01*
X77311475Y-70964104D01*
G37*
%TD.AperFunction*%
%TA.AperFunction,EtchedComponent*%
G36*
X78065342Y-92514815D02*
G01*
X78059476Y-92673940D01*
X78025606Y-92774134D01*
X77939324Y-92855434D01*
X77806287Y-92939742D01*
X77547231Y-93096217D01*
X77806287Y-93260505D01*
X77956305Y-93362336D01*
X78033368Y-93447044D01*
X78061633Y-93553593D01*
X78065342Y-93678346D01*
X78060325Y-93829311D01*
X78047628Y-93920074D01*
X78039993Y-93931899D01*
X77985342Y-93902033D01*
X77863128Y-93822828D01*
X77697219Y-93709875D01*
X77653700Y-93679581D01*
X77479060Y-93560601D01*
X77340307Y-93471830D01*
X77262231Y-93428974D01*
X77255442Y-93427263D01*
X77193834Y-93456609D01*
X77066790Y-93533832D01*
X76900894Y-93642713D01*
X76887858Y-93651546D01*
X76721181Y-93761977D01*
X76592573Y-93842057D01*
X76528058Y-93875635D01*
X76526476Y-93875828D01*
X76507816Y-93825711D01*
X76496712Y-93699088D01*
X76495364Y-93626688D01*
X76504036Y-93468047D01*
X76548013Y-93369040D01*
X76654235Y-93283903D01*
X76721361Y-93242780D01*
X76947359Y-93108011D01*
X76721361Y-92958453D01*
X76583182Y-92857149D01*
X76516886Y-92764264D01*
X76496491Y-92633461D01*
X76495364Y-92555400D01*
X76496698Y-92431007D01*
X76511925Y-92360799D01*
X76557882Y-92346470D01*
X76651405Y-92389711D01*
X76809333Y-92492216D01*
X76971844Y-92603305D01*
X77252077Y-92795147D01*
X77658710Y-92520755D01*
X78065342Y-92246362D01*
X78065342Y-92514815D01*
G37*
%TD.AperFunction*%
%TA.AperFunction,EtchedComponent*%
G36*
X77621660Y-86053853D02*
G01*
X77828559Y-86150541D01*
X77975157Y-86310275D01*
X78007671Y-86381873D01*
X78038825Y-86538842D01*
X78055417Y-86759297D01*
X78056426Y-86995404D01*
X78040832Y-87199328D01*
X78026691Y-87273510D01*
X77962532Y-87348393D01*
X77812491Y-87371634D01*
X77812175Y-87371634D01*
X77623301Y-87371634D01*
X77655699Y-86985193D01*
X77669971Y-86779278D01*
X77665803Y-86655820D01*
X77637308Y-86585840D01*
X77578600Y-86540357D01*
X77563666Y-86532159D01*
X77450852Y-86496113D01*
X77352508Y-86544728D01*
X77331759Y-86562831D01*
X77248699Y-86676803D01*
X77224282Y-86765781D01*
X77195215Y-86901427D01*
X77123005Y-87066917D01*
X77030142Y-87220915D01*
X76939113Y-87322084D01*
X76913696Y-87336683D01*
X76799980Y-87359450D01*
X76635027Y-87371198D01*
X76598606Y-87371634D01*
X76411425Y-87346319D01*
X76258922Y-87252977D01*
X76208304Y-87205342D01*
X76124616Y-87114974D01*
X76076369Y-87030307D01*
X76055430Y-86918642D01*
X76053670Y-86747279D01*
X76058423Y-86602583D01*
X76074834Y-86166115D01*
X76278884Y-86149083D01*
X76482934Y-86132052D01*
X76454134Y-86490847D01*
X76442887Y-86692823D01*
X76452531Y-86810046D01*
X76487198Y-86868645D01*
X76516419Y-86884596D01*
X76659759Y-86895745D01*
X76758404Y-86805358D01*
X76796954Y-86690725D01*
X76875902Y-86432647D01*
X76992011Y-86225564D01*
X77128554Y-86098313D01*
X77145517Y-86089778D01*
X77384100Y-86030252D01*
X77621660Y-86053853D01*
G37*
%TD.AperFunction*%
%TA.AperFunction,EtchedComponent*%
G36*
X77657449Y-109546889D02*
G01*
X77845963Y-109634637D01*
X77968369Y-109791315D01*
X77983948Y-109825768D01*
X78027584Y-109997876D01*
X78052931Y-110233132D01*
X78057816Y-110483707D01*
X78040067Y-110701773D01*
X78026691Y-110767109D01*
X77972681Y-110836425D01*
X77843028Y-110863735D01*
X77782265Y-110865232D01*
X77643191Y-110860427D01*
X77592013Y-110831860D01*
X77604517Y-110758309D01*
X77618164Y-110721405D01*
X77653349Y-110571793D01*
X77671965Y-110381359D01*
X77672847Y-110335777D01*
X77643951Y-110125329D01*
X77569708Y-110005596D01*
X77468785Y-109975215D01*
X77359849Y-110032824D01*
X77261567Y-110177062D01*
X77199603Y-110370293D01*
X77142312Y-110512878D01*
X77042132Y-110669094D01*
X77023067Y-110692699D01*
X76907562Y-110805900D01*
X76782176Y-110855496D01*
X76626243Y-110865232D01*
X76437714Y-110847661D01*
X76298090Y-110779060D01*
X76208304Y-110698940D01*
X76124616Y-110608572D01*
X76076369Y-110523905D01*
X76055430Y-110412240D01*
X76053670Y-110240877D01*
X76058423Y-110096181D01*
X76074834Y-109659713D01*
X76275682Y-109642873D01*
X76476529Y-109626032D01*
X76471929Y-110007332D01*
X76472522Y-110210267D01*
X76485512Y-110326923D01*
X76518499Y-110383061D01*
X76579083Y-110404440D01*
X76589555Y-110406034D01*
X76663982Y-110400468D01*
X76720865Y-110343190D01*
X76777222Y-110211293D01*
X76811427Y-110107327D01*
X76923996Y-109823308D01*
X77056596Y-109638971D01*
X77221119Y-109542154D01*
X77386167Y-109519537D01*
X77657449Y-109546889D01*
G37*
%TD.AperFunction*%
%TA.AperFunction,EtchedComponent*%
G36*
X77607797Y-67674799D02*
G01*
X77814147Y-67778493D01*
X77966849Y-67923080D01*
X78010669Y-68002904D01*
X78055530Y-68215648D01*
X78056133Y-68460628D01*
X78014643Y-68682255D01*
X77981063Y-68762827D01*
X77833600Y-68924251D01*
X77612207Y-69031847D01*
X77389690Y-69074943D01*
X77342114Y-69084157D01*
X77048551Y-69079723D01*
X76756749Y-69017088D01*
X76491938Y-68894794D01*
X76429820Y-68852453D01*
X76269413Y-68682121D01*
X76137111Y-68450076D01*
X76058263Y-68206537D01*
X76046799Y-68093666D01*
X76056788Y-67973851D01*
X76109550Y-67924706D01*
X76239277Y-67915124D01*
X76243046Y-67915122D01*
X76375630Y-67925458D01*
X76429930Y-67972561D01*
X76439293Y-68058083D01*
X76473139Y-68244788D01*
X76559833Y-68417484D01*
X76677111Y-68542935D01*
X76794321Y-68588072D01*
X76799223Y-68537081D01*
X76802634Y-68404074D01*
X76802831Y-68375194D01*
X77107753Y-68375194D01*
X77154760Y-68532684D01*
X77277571Y-68625872D01*
X77389690Y-68643182D01*
X77575004Y-68602337D01*
X77679328Y-68495810D01*
X77694028Y-68343595D01*
X77610467Y-68165686D01*
X77601207Y-68153422D01*
X77504242Y-68098391D01*
X77363596Y-68083734D01*
X77228482Y-68107440D01*
X77148110Y-68167498D01*
X77146175Y-68172026D01*
X77107753Y-68375194D01*
X76802831Y-68375194D01*
X76803752Y-68240249D01*
X76807645Y-68045975D01*
X76829029Y-67927381D01*
X76882462Y-67848040D01*
X76982501Y-67771528D01*
X76994274Y-67763546D01*
X77195865Y-67668403D01*
X77386768Y-67634978D01*
X77607797Y-67674799D01*
G37*
%TD.AperFunction*%
%TA.AperFunction,EtchedComponent*%
G36*
X77641014Y-96837269D02*
G01*
X77801521Y-96905967D01*
X77916004Y-97022652D01*
X77992003Y-97203839D01*
X78037057Y-97466046D01*
X78055925Y-97746243D01*
X78078385Y-98305409D01*
X77448565Y-98305409D01*
X77062592Y-98305409D01*
X76668031Y-98305409D01*
X76046799Y-98305409D01*
X76046799Y-97827008D01*
X76053670Y-97643775D01*
X76439293Y-97643775D01*
X76448997Y-97743870D01*
X76499241Y-97788865D01*
X76621728Y-97800519D01*
X76668031Y-97800773D01*
X76812541Y-97796510D01*
X76871487Y-97766694D01*
X76871446Y-97685791D01*
X76857684Y-97618544D01*
X76847589Y-97577559D01*
X77224282Y-97577559D01*
X77229722Y-97720434D01*
X77267624Y-97783921D01*
X77370361Y-97800236D01*
X77448565Y-97800773D01*
X77592554Y-97793795D01*
X77656568Y-97757889D01*
X77672588Y-97670598D01*
X77672847Y-97643278D01*
X77646154Y-97486776D01*
X77597465Y-97382692D01*
X77500110Y-97309531D01*
X77373183Y-97316973D01*
X77275731Y-97356583D01*
X77233267Y-97434175D01*
X77224282Y-97577559D01*
X76847589Y-97577559D01*
X76823811Y-97481021D01*
X76795060Y-97396447D01*
X76793849Y-97394261D01*
X76715660Y-97354838D01*
X76598412Y-97367433D01*
X76506578Y-97419493D01*
X76456273Y-97522813D01*
X76439293Y-97643775D01*
X76053670Y-97643775D01*
X76059731Y-97482120D01*
X76102524Y-97231747D01*
X76181172Y-97060831D01*
X76301668Y-96954317D01*
X76411551Y-96910717D01*
X76625379Y-96887439D01*
X76818499Y-96928260D01*
X76951520Y-97024340D01*
X76957831Y-97033310D01*
X77009137Y-97061839D01*
X77057529Y-97005972D01*
X77171372Y-96906130D01*
X77349159Y-96840535D01*
X77544655Y-96822554D01*
X77641014Y-96837269D01*
G37*
%TD.AperFunction*%
%TA.AperFunction,EtchedComponent*%
G36*
X78056719Y-80543775D02*
G01*
X78065180Y-80678598D01*
X78065342Y-80716592D01*
X78059426Y-80874513D01*
X78022444Y-80960645D01*
X77925539Y-81015322D01*
X77827041Y-81049669D01*
X77588741Y-81129103D01*
X77588741Y-81516925D01*
X77588741Y-81904747D01*
X77827041Y-81980156D01*
X77974352Y-82033201D01*
X78043524Y-82094771D01*
X78064072Y-82204800D01*
X78065342Y-82302562D01*
X78060191Y-82451245D01*
X78047188Y-82539263D01*
X78039945Y-82549559D01*
X77974299Y-82530857D01*
X77885750Y-82497417D01*
X77786078Y-82458743D01*
X77605553Y-82390242D01*
X77368467Y-82301081D01*
X77108659Y-82203991D01*
X77099111Y-82200423D01*
X77056070Y-82184395D01*
X76780953Y-82081929D01*
X76531422Y-81988879D01*
X76332817Y-81914700D01*
X76210478Y-81868852D01*
X76200993Y-81865275D01*
X76110415Y-81820590D01*
X76064517Y-81752776D01*
X76048389Y-81627621D01*
X76046810Y-81512252D01*
X76495364Y-81512252D01*
X76543240Y-81537525D01*
X76662337Y-81581159D01*
X76815863Y-81631382D01*
X76967022Y-81676420D01*
X77079021Y-81704499D01*
X77108659Y-81708499D01*
X77148017Y-81659221D01*
X77167696Y-81538044D01*
X77168211Y-81512252D01*
X77153257Y-81382552D01*
X77116485Y-81317705D01*
X77108659Y-81316005D01*
X77029679Y-81331325D01*
X76893316Y-81369434D01*
X76736363Y-81418561D01*
X76595615Y-81466930D01*
X76507867Y-81502769D01*
X76495364Y-81512252D01*
X76046810Y-81512252D01*
X76046799Y-81511449D01*
X76056028Y-81324273D01*
X76089055Y-81220848D01*
X76144922Y-81177152D01*
X76230035Y-81144994D01*
X76399518Y-81082042D01*
X76632427Y-80996039D01*
X76907819Y-80894726D01*
X77056070Y-80840320D01*
X77344947Y-80734165D01*
X77601890Y-80639319D01*
X77805954Y-80563544D01*
X77936193Y-80514606D01*
X77967218Y-80502572D01*
X78027637Y-80492892D01*
X78056719Y-80543775D01*
G37*
%TD.AperFunction*%
%TD*%
D11*
%TO.P,R6,1*%
%TO.N,Net-(Q2-D)*%
X45800000Y-71750000D03*
%TO.P,R6,2*%
%TO.N,/MCU_Core/BATTERY_PIN*%
X47700000Y-71750000D03*
%TD*%
D12*
%TO.P,U3,1,V_{DD}*%
%TO.N,Net-(U3-V_{DD}-Pad1)*%
X45100000Y-43725000D03*
%TO.P,U3,2,V_{DD}*%
X44600000Y-43725000D03*
%TO.P,U3,3,V_{BAT}*%
%TO.N,Net-(J2-Pin_1)*%
X44100000Y-43725000D03*
%TO.P,U3,4,V_{BAT}*%
X43600000Y-43725000D03*
%TO.P,U3,5,STAT*%
%TO.N,unconnected-(U3-STAT-Pad5)*%
X43600000Y-46625000D03*
%TO.P,U3,6,V_{SS}*%
%TO.N,unconnected-(U3-V_{SS}-Pad6)*%
X44100000Y-46625000D03*
%TO.P,U3,7,NC*%
%TO.N,unconnected-(U3-NC-Pad7)*%
X44600000Y-46625000D03*
%TO.P,U3,8,PROG*%
%TO.N,Net-(U3-PROG)*%
X45100000Y-46625000D03*
D13*
%TO.P,U3,9*%
%TO.N,N/C*%
X44350000Y-45175000D03*
%TD*%
D14*
%TO.P,R4,1*%
%TO.N,Net-(D1-A)*%
X49250000Y-35500000D03*
%TO.P,R4,2*%
%TO.N,Net-(J1-SHIELD)*%
X47425000Y-35500000D03*
%TD*%
D15*
%TO.P,J1,A1,GND*%
%TO.N,Net-(J1-SHIELD)*%
X56510000Y-35250000D03*
%TO.P,J1,A4,VBUS*%
%TO.N,Net-(D1-A)*%
X57310000Y-35250000D03*
D16*
%TO.P,J1,A5,CC1*%
%TO.N,Net-(J1-CC1)*%
X58510000Y-35250000D03*
%TO.P,J1,A6,D+*%
%TO.N,/MCU_Core/USB_D+*%
X59510000Y-35250000D03*
%TO.P,J1,A7,D-*%
%TO.N,/MCU_Core/USB_D-*%
X60010000Y-35250000D03*
%TO.P,J1,A8,SBU1*%
%TO.N,unconnected-(J1-SBU1-PadA8)*%
X61010000Y-35250000D03*
D15*
%TO.P,J1,A9,VBUS*%
%TO.N,Net-(D1-A)*%
X62210000Y-35250000D03*
%TO.P,J1,A12,GND*%
%TO.N,Net-(J1-SHIELD)*%
X63010000Y-35250000D03*
%TO.P,J1,B1,GND*%
X63010000Y-35250000D03*
%TO.P,J1,B4,VBUS*%
%TO.N,Net-(D1-A)*%
X62210000Y-35250000D03*
D16*
%TO.P,J1,B5,CC2*%
%TO.N,Net-(J1-CC2)*%
X61510000Y-35250000D03*
%TO.P,J1,B6,D+*%
%TO.N,/MCU_Core/USB_D+*%
X60510000Y-35250000D03*
%TO.P,J1,B7,D-*%
%TO.N,/MCU_Core/USB_D-*%
X59010000Y-35250000D03*
%TO.P,J1,B8,SBU2*%
%TO.N,unconnected-(J1-SBU2-PadB8)*%
X58010000Y-35250000D03*
D15*
%TO.P,J1,B9,VBUS*%
%TO.N,Net-(D1-A)*%
X57310000Y-35250000D03*
%TO.P,J1,B12,GND*%
%TO.N,Net-(J1-SHIELD)*%
X56510000Y-35250000D03*
D17*
%TO.P,J1,S1,SHIELD*%
X55440000Y-36165000D03*
D18*
X55440000Y-40345000D03*
D17*
X64080000Y-36165000D03*
D18*
X64080000Y-40345000D03*
%TD*%
D19*
%TO.P,U2,1,VIN*%
%TO.N,/Power_Management/V_SYS*%
X71000000Y-37150000D03*
%TO.P,U2,2,GND*%
%TO.N,GND*%
X71000000Y-36200000D03*
%TO.P,U2,3,EN*%
%TO.N,/Power_Management/V_SYS*%
X71000000Y-35250000D03*
%TO.P,U2,4,NC*%
%TO.N,unconnected-(U2-NC-Pad4)*%
X68725000Y-35250000D03*
%TO.P,U2,5,VOUT*%
%TO.N,+3V3*%
X68725000Y-37150000D03*
%TD*%
D20*
%TO.P,U4,1,RF_SW1*%
%TO.N,unconnected-(U4-RF_SW1-Pad1)*%
X44050000Y-51908750D03*
%TO.P,U4,2,MISO*%
%TO.N,/LoRa_Radio/SPI_MISO_LORA*%
X44050000Y-53178750D03*
%TO.P,U4,3,MOSI*%
%TO.N,/LoRa_Radio/SPI_MOSI_LORA*%
X44050000Y-54448750D03*
%TO.P,U4,4,SCK*%
%TO.N,/LoRa_Radio/SPI_SCK_LORA*%
X44050000Y-55718750D03*
%TO.P,U4,5,RST*%
%TO.N,/LoRa_Radio/LORA_RST*%
X44050000Y-56988750D03*
%TO.P,U4,6,NSS*%
%TO.N,/LoRa_Radio/LORA_CS*%
X44050000Y-58258750D03*
%TO.P,U4,7,GND1*%
%TO.N,GND*%
X44050000Y-59528750D03*
%TO.P,U4,8,VCC*%
%TO.N,+3V3*%
X44050000Y-60798750D03*
%TO.P,U4,9,ANT*%
%TO.N,unconnected-(U4-ANT-Pad9)*%
X54450000Y-56988750D03*
%TO.P,U4,10,GND2*%
%TO.N,unconnected-(U4-GND2-Pad10)*%
X54450000Y-55718750D03*
%TO.P,U4,11,BUSY*%
%TO.N,/LoRa_Radio/LORA_DI02*%
X54450000Y-54448750D03*
%TO.P,U4,12,DIO1*%
%TO.N,/LoRa_Radio/LORA_DI01*%
X54450000Y-53178750D03*
%TD*%
D21*
%TO.P,R7,1*%
%TO.N,GND*%
X49700000Y-46500000D03*
%TO.P,R7,2*%
%TO.N,Net-(U3-PROG)*%
X47800000Y-46500000D03*
%TD*%
D22*
%TO.P,SW1,1,1*%
%TO.N,GND*%
X50000000Y-67000000D03*
X58000000Y-67000000D03*
%TO.P,SW1,2,2*%
%TO.N,Net-(U1-EN)*%
X50000000Y-71500000D03*
X58000000Y-71500000D03*
%TD*%
D23*
%TO.P,D1,1,K*%
%TO.N,/Power_Management/V_SYS*%
X49187500Y-38500000D03*
%TO.P,D1,2,A*%
%TO.N,Net-(D1-A)*%
X47312500Y-38500000D03*
%TD*%
D14*
%TO.P,R3,1*%
%TO.N,Net-(J1-SHIELD)*%
X53325000Y-35550000D03*
%TO.P,R3,2*%
%TO.N,Net-(J1-CC1)*%
X51500000Y-35550000D03*
%TD*%
D24*
%TO.P,U1,1,GND*%
%TO.N,GND*%
X78010000Y-48000000D03*
%TO.P,U1,2,3V3*%
%TO.N,+3V3*%
X76740000Y-48000000D03*
%TO.P,U1,3,EN*%
%TO.N,Net-(U1-EN)*%
X75470000Y-48000000D03*
%TO.P,U1,4,IO4*%
%TO.N,/MCU_Core/TFT_BL*%
X74200000Y-48000000D03*
%TO.P,U1,5,IO5*%
%TO.N,/MCU_Core/DISPLAY_CS*%
X72930000Y-48000000D03*
%TO.P,U1,6,IO6*%
%TO.N,/MCU_Core/TFT_DC*%
X71660000Y-48000000D03*
%TO.P,U1,7,IO7*%
%TO.N,/MCU_Core/TFT_RST*%
X70390000Y-48000000D03*
%TO.P,U1,8,IO15*%
%TO.N,/MCU_Core/TFT_MOSI*%
X69120000Y-48000000D03*
%TO.P,U1,9,IO16*%
%TO.N,/MCU_Core/TFT_SCK*%
X67850000Y-48000000D03*
%TO.P,U1,10,IO17*%
%TO.N,unconnected-(U1-IO17-Pad10)*%
X66580000Y-48000000D03*
%TO.P,U1,11,IO18*%
%TO.N,unconnected-(U1-IO18-Pad11)*%
X65310000Y-48000000D03*
%TO.P,U1,12,IO8*%
%TO.N,unconnected-(U1-IO8-Pad12)*%
X64040000Y-48000000D03*
%TO.P,U1,13,USB_D-*%
%TO.N,/MCU_Core/USB_D-*%
X62770000Y-48000000D03*
%TO.P,U1,14,USB_D+*%
%TO.N,/MCU_Core/USB_D+*%
X61500000Y-48000000D03*
D25*
%TO.P,U1,15,IO3*%
%TO.N,/MCU_Core/BATTERY_PIN*%
X60250000Y-49765000D03*
%TO.P,U1,16,IO46*%
%TO.N,unconnected-(U1-IO46-Pad16)*%
X60250000Y-51035000D03*
%TO.P,U1,17,IO9*%
%TO.N,/LoRa_Radio/LORA_DI01*%
X60250000Y-52305000D03*
%TO.P,U1,18,IO10*%
%TO.N,/LoRa_Radio/LORA_DI02*%
X60250000Y-53575000D03*
%TO.P,U1,19,IO11*%
%TO.N,/LoRa_Radio/SPI_MISO_LORA*%
X60250000Y-54845000D03*
%TO.P,U1,20,IO12*%
%TO.N,/LoRa_Radio/SPI_MOSI_LORA*%
X60250000Y-56115000D03*
%TO.P,U1,21,IO13*%
%TO.N,/LoRa_Radio/SPI_SCK_LORA*%
X60250000Y-57385000D03*
%TO.P,U1,22,IO14*%
%TO.N,/LoRa_Radio/LORA_RST*%
X60250000Y-58655000D03*
%TO.P,U1,23,IO21*%
%TO.N,/LoRa_Radio/LORA_CS*%
X60250000Y-59925000D03*
%TO.P,U1,24,IO47*%
%TO.N,/MCU_Core/ADC_CTRL*%
X60250000Y-61195000D03*
%TO.P,U1,25,IO48*%
%TO.N,/MCU_Core/KB_C1*%
X60250000Y-62465000D03*
%TO.P,U1,26,IO45*%
%TO.N,unconnected-(U1-IO45-Pad26)*%
X60250000Y-63735000D03*
D24*
%TO.P,U1,27,IO0*%
%TO.N,unconnected-(U1-IO0-Pad27)*%
X61500000Y-65500000D03*
%TO.P,U1,28,IO35*%
%TO.N,unconnected-(U1-IO35-Pad28)*%
X62770000Y-65500000D03*
%TO.P,U1,29,IO36*%
%TO.N,unconnected-(U1-IO36-Pad29)*%
X64040000Y-65500000D03*
%TO.P,U1,30,IO37*%
%TO.N,unconnected-(U1-IO37-Pad30)*%
X65310000Y-65500000D03*
%TO.P,U1,31,IO38*%
%TO.N,/MCU_Core/KB_R1*%
X66580000Y-65500000D03*
%TO.P,U1,32,IO39*%
%TO.N,/MCU_Core/KB_R2*%
X67850000Y-65500000D03*
%TO.P,U1,33,IO40*%
%TO.N,/MCU_Core/KB_R3*%
X69120000Y-65500000D03*
%TO.P,U1,34,IO41*%
%TO.N,/MCU_Core/KB_R4*%
X70390000Y-65500000D03*
%TO.P,U1,35,IO42*%
%TO.N,/MCU_Core/KB_C4*%
X71660000Y-65500000D03*
%TO.P,U1,36,RXD0*%
%TO.N,unconnected-(U1-RXD0-Pad36)*%
X72930000Y-65500000D03*
%TO.P,U1,37,TXD0*%
%TO.N,unconnected-(U1-TXD0-Pad37)*%
X74200000Y-65500000D03*
%TO.P,U1,38,IO2*%
%TO.N,/MCU_Core/KB_C3*%
X75470000Y-65500000D03*
%TO.P,U1,39,IO1*%
%TO.N,/MCU_Core/KB_C2*%
X76740000Y-65500000D03*
%TO.P,U1,40,GND*%
%TO.N,GND*%
X78010000Y-65500000D03*
D26*
%TO.P,U1,41,GND*%
X70990000Y-53850000D03*
X69590000Y-53850000D03*
X71690000Y-54550000D03*
X70290000Y-54550000D03*
X68890000Y-54550000D03*
X70990000Y-55250000D03*
D27*
X70290000Y-55250000D03*
D26*
X69590000Y-55250000D03*
X71690000Y-55950000D03*
X70290000Y-55950000D03*
X68890000Y-55950000D03*
X70990000Y-56650000D03*
X69590000Y-56650000D03*
%TD*%
D21*
%TO.P,C5,1*%
%TO.N,GND*%
X45660000Y-35500000D03*
%TO.P,C5,2*%
%TO.N,+3V3*%
X43760000Y-35500000D03*
%TD*%
D28*
%TO.P,Q1,1,G*%
%TO.N,Net-(D1-A)*%
X50500000Y-43150000D03*
%TO.P,Q1,2,S*%
%TO.N,/Power_Management/V_SYS*%
X50500000Y-41250000D03*
%TO.P,Q1,3,D*%
%TO.N,Net-(J2-Pin_1)*%
X48625000Y-42200000D03*
%TD*%
D21*
%TO.P,C4,1*%
%TO.N,/Power_Management/V_SYS*%
X77410000Y-36250000D03*
%TO.P,C4,2*%
%TO.N,GND*%
X75510000Y-36250000D03*
%TD*%
D29*
%TO.P,C1,1*%
%TO.N,GND*%
X75400000Y-39500000D03*
%TO.P,C1,2*%
%TO.N,+3V3*%
X75400000Y-41400000D03*
%TD*%
D30*
%TO.P,R1,1*%
%TO.N,+3V3*%
X67900000Y-43337500D03*
%TO.P,R1,2*%
%TO.N,Net-(U1-EN)*%
X67900000Y-45162500D03*
%TD*%
D29*
%TO.P,C6,1*%
%TO.N,+3V3*%
X40000000Y-62250000D03*
%TO.P,C6,2*%
%TO.N,GND*%
X40000000Y-64150000D03*
%TD*%
%TO.P,C2,1*%
%TO.N,GND*%
X72750000Y-43300000D03*
%TO.P,C2,2*%
%TO.N,+3V3*%
X72750000Y-45200000D03*
%TD*%
D14*
%TO.P,R2,1*%
%TO.N,Net-(J1-SHIELD)*%
X53325000Y-38500000D03*
%TO.P,R2,2*%
%TO.N,Net-(J1-CC2)*%
X51500000Y-38500000D03*
%TD*%
D29*
%TO.P,C3,1*%
%TO.N,Net-(U1-EN)*%
X77650000Y-43300000D03*
%TO.P,C3,2*%
%TO.N,GND*%
X77650000Y-45200000D03*
%TD*%
D31*
%TO.P,Q2,1,G*%
%TO.N,/MCU_Core/ADC_CTRL*%
X42882500Y-65075000D03*
%TO.P,Q2,2,S*%
%TO.N,GND*%
X42882500Y-66975000D03*
%TO.P,Q2,3,D*%
%TO.N,Net-(Q2-D)*%
X44757500Y-66025000D03*
%TD*%
D11*
%TO.P,R5,1*%
%TO.N,Net-(J2-Pin_1)*%
X45800000Y-68000000D03*
%TO.P,R5,2*%
%TO.N,/MCU_Core/BATTERY_PIN*%
X47700000Y-68000000D03*
%TD*%
D32*
%TO.P,J2,1,Pin_1*%
%TO.N,Net-(J2-Pin_1)*%
X38500000Y-67250000D03*
%TO.P,J2,2,Pin_2*%
%TO.N,GND*%
X39750000Y-67250000D03*
D33*
%TO.P,J2,MP*%
%TO.N,N/C*%
X35950000Y-70150000D03*
X42300000Y-70150000D03*
%TD*%
D34*
%TO.N,+3V3*%
X39000000Y-46750000D03*
X42250000Y-46750000D03*
X72750000Y-45200000D03*
X67900000Y-43337500D03*
X76740000Y-48000000D03*
D35*
%TO.N,GND*%
X72750000Y-42250000D03*
X42750000Y-59000000D03*
X40000000Y-65250000D03*
X74250000Y-60500000D03*
X78000000Y-49500000D03*
X39750000Y-69000000D03*
X38750000Y-44500000D03*
X45750000Y-37000000D03*
X73750000Y-39500000D03*
X42750000Y-66250000D03*
X74000000Y-36250000D03*
X49750000Y-47750000D03*
X69750000Y-36250000D03*
X54000000Y-68250000D03*
%TO.N,Net-(U1-EN)*%
X75470000Y-48000000D03*
X58000000Y-64250000D03*
%TO.N,/Power_Management/V_SYS*%
X53000000Y-40750000D03*
X71000000Y-37150000D03*
%TO.N,Net-(J1-CC2)*%
X51500000Y-38500000D03*
X61500000Y-36500000D03*
%TO.N,/MCU_Core/USB_D+*%
X60250000Y-42750000D03*
X60250000Y-45750000D03*
%TO.N,Net-(J1-CC1)*%
X51500000Y-35550000D03*
X58500000Y-36500000D03*
%TO.N,/MCU_Core/KB_C1*%
X61750000Y-62750000D03*
%TO.N,/MCU_Core/KB_R1*%
X37250000Y-78500000D03*
%TO.N,/MCU_Core/KB_C2*%
X57750000Y-83000000D03*
%TO.N,/MCU_Core/KB_C3*%
X55500000Y-83000000D03*
%TO.N,/MCU_Core/KB_C4*%
X45250000Y-83000000D03*
%TO.N,/MCU_Core/KB_R2*%
X55500000Y-87250000D03*
X57750000Y-87250000D03*
X68000000Y-87250000D03*
X37250000Y-87250000D03*
X47250000Y-87250000D03*
X45250000Y-87250000D03*
X65750000Y-87250000D03*
%TO.N,/MCU_Core/KB_R3*%
X47500000Y-96000000D03*
X55500000Y-96000000D03*
X65750000Y-96000000D03*
X45250000Y-96000000D03*
X68000000Y-96000000D03*
X37250000Y-96000000D03*
X57750000Y-96000000D03*
%TO.N,/MCU_Core/KB_R4*%
X37250000Y-104750000D03*
X57750000Y-104750000D03*
X66000000Y-104750000D03*
X55750000Y-104750000D03*
X68000000Y-104750000D03*
X47500000Y-104750000D03*
X45250000Y-104750000D03*
%TO.N,/MCU_Core/TFT_DC*%
X71660000Y-48000000D03*
%TO.N,/MCU_Core/TFT_RST*%
X70390000Y-48000000D03*
%TO.N,/MCU_Core/DISPLAY_CS*%
X72930000Y-48000000D03*
%TO.N,/MCU_Core/TFT_BL*%
X74200000Y-48000000D03*
%TO.N,/MCU_Core/TFT_MOSI*%
X69120000Y-48000000D03*
%TO.N,/MCU_Core/TFT_SCK*%
X67850000Y-48000000D03*
%TO.N,/MCU_Core/BATTERY_PIN*%
X48500000Y-66250000D03*
X40250000Y-61000000D03*
X60250000Y-49765000D03*
X40250000Y-49750000D03*
%TD*%
D36*
%TO.N,+3V3*%
X67900000Y-43337500D02*
X67900000Y-37975000D01*
X42250000Y-46750000D02*
X41500000Y-47500000D01*
X39738235Y-39521765D02*
X43760000Y-35500000D01*
X67900000Y-37975000D02*
X68725000Y-37150000D01*
X75400000Y-42550000D02*
X72750000Y-45200000D01*
X43250001Y-60798750D02*
X44050000Y-60798750D01*
X41500000Y-60812075D02*
X41500000Y-47500000D01*
X41798751Y-62250000D02*
X40000000Y-62250000D01*
X75400000Y-41400000D02*
X75400000Y-42550000D01*
X40000000Y-62250000D02*
X40062075Y-62250000D01*
X41798751Y-62250000D02*
X43250001Y-60798750D01*
X40062075Y-62250000D02*
X41500000Y-60812075D01*
X39000000Y-46750000D02*
X39738235Y-46011765D01*
X39738235Y-46011765D02*
X39738235Y-39521765D01*
D37*
%TO.N,GND*%
X43278750Y-59528750D02*
X42750000Y-59000000D01*
X74895000Y-59855000D02*
X74250000Y-60500000D01*
X75400000Y-39500000D02*
X73750000Y-39500000D01*
X74895000Y-59855000D02*
X70290000Y-55250000D01*
X75510000Y-36250000D02*
X74000000Y-36250000D01*
X50000000Y-67000000D02*
X54000000Y-67000000D01*
X54000000Y-67000000D02*
X54000000Y-68250000D01*
X78010000Y-65500000D02*
X78010000Y-62970000D01*
X78010000Y-49490000D02*
X78000000Y-49500000D01*
X72750000Y-43300000D02*
X72750000Y-42250000D01*
X77650000Y-47640000D02*
X78010000Y-48000000D01*
X78010000Y-48000000D02*
X78010000Y-49490000D01*
X77650000Y-45200000D02*
X77650000Y-47640000D01*
X69800000Y-36200000D02*
X69750000Y-36250000D01*
X49700000Y-46500000D02*
X49700000Y-47700000D01*
X42882500Y-66382500D02*
X42750000Y-66250000D01*
X71000000Y-36200000D02*
X69800000Y-36200000D01*
X39750000Y-67250000D02*
X39750000Y-69000000D01*
X44050000Y-59528750D02*
X43278750Y-59528750D01*
X40000000Y-64150000D02*
X40000000Y-65250000D01*
X42882500Y-66975000D02*
X42882500Y-66382500D01*
X49700000Y-47700000D02*
X49750000Y-47750000D01*
X45660000Y-35500000D02*
X45660000Y-36910000D01*
X78010000Y-62970000D02*
X74895000Y-59855000D01*
X45660000Y-36910000D02*
X45750000Y-37000000D01*
X54000000Y-67000000D02*
X58000000Y-67000000D01*
%TO.N,Net-(U1-EN)*%
X75470000Y-47050000D02*
X75470000Y-48000000D01*
X50000000Y-71500000D02*
X58000000Y-71500000D01*
X59101000Y-65351000D02*
X58000000Y-64250000D01*
X58000000Y-71500000D02*
X59101000Y-70399000D01*
X77650000Y-43300000D02*
X75470000Y-45480000D01*
X75470000Y-45480000D02*
X75470000Y-48000000D01*
X69686500Y-46949000D02*
X75369000Y-46949000D01*
X75369000Y-46949000D02*
X75470000Y-47050000D01*
X59101000Y-70399000D02*
X59101000Y-65351000D01*
X67900000Y-45162500D02*
X69686500Y-46949000D01*
%TO.N,/Power_Management/V_SYS*%
X49187500Y-39937500D02*
X49187500Y-38500000D01*
X71963500Y-36848999D02*
X71662499Y-37150000D01*
X71963500Y-36250000D02*
X73213500Y-37500000D01*
X51437500Y-40750000D02*
X49187500Y-38500000D01*
X52500000Y-41250000D02*
X53000000Y-40750000D01*
X71000000Y-35250000D02*
X71354468Y-35250000D01*
X71963500Y-36250000D02*
X71963500Y-36848999D01*
X71963500Y-35859032D02*
X71963500Y-36250000D01*
X51437500Y-40750000D02*
X53000000Y-40750000D01*
X50500000Y-41250000D02*
X49187500Y-39937500D01*
X50500000Y-41250000D02*
X52500000Y-41250000D01*
X73213500Y-37500000D02*
X76160000Y-37500000D01*
X71662499Y-37150000D02*
X71000000Y-37150000D01*
X76160000Y-37500000D02*
X77410000Y-36250000D01*
X71354468Y-35250000D02*
X71963500Y-35859032D01*
%TO.N,Net-(D1-A)*%
X50500000Y-43150000D02*
X52350000Y-43150000D01*
X52511500Y-39185160D02*
X54413170Y-41086830D01*
X61560000Y-33823000D02*
X62210000Y-34473000D01*
X49250000Y-35500000D02*
X51249000Y-37499000D01*
X52350000Y-43150000D02*
X54413170Y-41086830D01*
X62210000Y-34473000D02*
X62210000Y-35250000D01*
X55771785Y-41446000D02*
X57546000Y-39671785D01*
X57546000Y-39671785D02*
X57546000Y-35486000D01*
X51249000Y-37499000D02*
X52195660Y-37499000D01*
X49250000Y-36562500D02*
X47312500Y-38500000D01*
X57927000Y-33823000D02*
X61560000Y-33823000D01*
X49250000Y-35500000D02*
X49250000Y-36562500D01*
X52195660Y-37499000D02*
X52511500Y-37814840D01*
X54413170Y-41086830D02*
X54772340Y-41446000D01*
X52511500Y-37814840D02*
X52511500Y-39185160D01*
X57310000Y-35250000D02*
X57310000Y-34440000D01*
X57310000Y-34440000D02*
X57927000Y-33823000D01*
X57546000Y-35486000D02*
X57310000Y-35250000D01*
X54772340Y-41446000D02*
X55771785Y-41446000D01*
%TO.N,/MCU_Core/USB_D-*%
X60010000Y-34273000D02*
X60010000Y-35250000D01*
X59010000Y-34273000D02*
X59059000Y-34224000D01*
X59101000Y-36251057D02*
X59101000Y-43381000D01*
X59101000Y-43381000D02*
X62770000Y-47050000D01*
X59961000Y-34224000D02*
X60010000Y-34273000D01*
X59059000Y-34224000D02*
X59961000Y-34224000D01*
X62770000Y-47050000D02*
X62770000Y-48000000D01*
X59000000Y-35250000D02*
X59010000Y-35250000D01*
X59010000Y-36160057D02*
X59101000Y-36251057D01*
X59010000Y-35250000D02*
X59010000Y-36160057D01*
X59010000Y-35250000D02*
X59010000Y-34273000D01*
%TO.N,Net-(J1-SHIELD)*%
X52274000Y-34499000D02*
X53325000Y-35550000D01*
X63010000Y-35250000D02*
X63165000Y-35250000D01*
X62107000Y-33422000D02*
X63010000Y-34325000D01*
X53325000Y-38500000D02*
X53325000Y-35550000D01*
X63010000Y-34325000D02*
X63010000Y-35250000D01*
X56510000Y-35250000D02*
X56510000Y-34490000D01*
X55440000Y-36165000D02*
X55595000Y-36165000D01*
X64080000Y-36165000D02*
X64080000Y-40345000D01*
X55440000Y-36165000D02*
X53940000Y-36165000D01*
X47425000Y-35500000D02*
X48426000Y-34499000D01*
X57578000Y-33422000D02*
X62107000Y-33422000D01*
X55595000Y-36165000D02*
X56510000Y-35250000D01*
X63165000Y-35250000D02*
X64080000Y-36165000D01*
X55440000Y-36165000D02*
X55440000Y-40345000D01*
X56510000Y-34490000D02*
X57578000Y-33422000D01*
X48426000Y-34499000D02*
X52274000Y-34499000D01*
X53940000Y-36165000D02*
X53325000Y-35550000D01*
%TO.N,Net-(J1-CC2)*%
X61500000Y-35260000D02*
X61510000Y-35250000D01*
X61500000Y-36500000D02*
X61500000Y-35260000D01*
%TO.N,/MCU_Core/USB_D+*%
X60250000Y-36276000D02*
X60461000Y-36276000D01*
X60250000Y-36276000D02*
X60250000Y-42750000D01*
X60461000Y-36276000D02*
X60510000Y-36227000D01*
X59510000Y-36227000D02*
X59559000Y-36276000D01*
X59559000Y-36276000D02*
X60250000Y-36276000D01*
X59510000Y-35250000D02*
X59510000Y-36227000D01*
X60250000Y-45750000D02*
X60250000Y-46750000D01*
X60510000Y-36227000D02*
X60510000Y-35250000D01*
X60250000Y-46750000D02*
X61500000Y-48000000D01*
%TO.N,Net-(J1-CC1)*%
X58510000Y-36490000D02*
X58500000Y-36500000D01*
X58510000Y-35250000D02*
X58510000Y-36490000D01*
%TO.N,Net-(J2-Pin_1)*%
X38500000Y-48825000D02*
X43600000Y-43725000D01*
X38500000Y-67250000D02*
X38500000Y-48825000D01*
X38500000Y-66985936D02*
X39336936Y-66149000D01*
X44100000Y-43309202D02*
X45209202Y-42200000D01*
X40550000Y-66149000D02*
X42401000Y-68000000D01*
X43600000Y-43725000D02*
X44100000Y-43725000D01*
X45209202Y-42200000D02*
X48625000Y-42200000D01*
X38500000Y-67250000D02*
X38500000Y-66985936D01*
X42401000Y-68000000D02*
X45800000Y-68000000D01*
X44100000Y-43725000D02*
X44100000Y-43309202D01*
X39336936Y-66149000D02*
X40550000Y-66149000D01*
%TO.N,/MCU_Core/KB_C1*%
X60285000Y-62500000D02*
X60250000Y-62465000D01*
X60250000Y-62465000D02*
X61465000Y-62465000D01*
X61465000Y-62465000D02*
X61750000Y-62750000D01*
%TO.N,/MCU_Core/KB_R1*%
X66580000Y-66450000D02*
X59530000Y-73500000D01*
X37250000Y-73500000D02*
X37250000Y-78500000D01*
X66580000Y-65500000D02*
X66580000Y-66450000D01*
X59530000Y-73500000D02*
X37250000Y-73500000D01*
%TO.N,/MCU_Core/KB_C2*%
X76740000Y-66450000D02*
X67284000Y-75906000D01*
X57750000Y-75906000D02*
X57750000Y-83000000D01*
X67284000Y-75906000D02*
X57750000Y-75906000D01*
X76740000Y-65500000D02*
X76740000Y-66450000D01*
%TO.N,/MCU_Core/KB_C3*%
X66415000Y-75505000D02*
X55500000Y-75505000D01*
X75470000Y-65500000D02*
X75470000Y-66450000D01*
X55500000Y-75505000D02*
X55500000Y-83000000D01*
X75470000Y-66450000D02*
X66415000Y-75505000D01*
%TO.N,/MCU_Core/KB_C4*%
X63006000Y-75104000D02*
X45250000Y-75104000D01*
X45250000Y-75104000D02*
X45250000Y-83000000D01*
X71660000Y-65500000D02*
X71660000Y-66450000D01*
X71660000Y-66450000D02*
X63006000Y-75104000D01*
%TO.N,/MCU_Core/KB_R2*%
X39000000Y-85500000D02*
X37250000Y-87250000D01*
X45250000Y-87250000D02*
X47250000Y-87250000D01*
X65750000Y-87250000D02*
X68000000Y-87250000D01*
X55500000Y-87250000D02*
X57750000Y-87250000D01*
X60399000Y-73901000D02*
X39000000Y-73901000D01*
X67850000Y-65500000D02*
X67850000Y-66450000D01*
X39000000Y-73901000D02*
X39000000Y-85500000D01*
X67850000Y-66450000D02*
X60399000Y-73901000D01*
%TO.N,/MCU_Core/KB_R3*%
X45250000Y-96000000D02*
X47500000Y-96000000D01*
X69120000Y-66450000D02*
X61268000Y-74302000D01*
X55500000Y-96000000D02*
X57750000Y-96000000D01*
X69120000Y-65500000D02*
X69120000Y-66450000D01*
X68000000Y-96000000D02*
X65750000Y-96000000D01*
X39401000Y-93849000D02*
X37250000Y-96000000D01*
X61268000Y-74302000D02*
X39401000Y-74302000D01*
X39401000Y-74302000D02*
X39401000Y-93849000D01*
%TO.N,/MCU_Core/KB_R4*%
X70390000Y-66450000D02*
X62137000Y-74703000D01*
X39802000Y-74703000D02*
X39802000Y-102198000D01*
X45250000Y-104750000D02*
X47500000Y-104750000D01*
X62137000Y-74703000D02*
X39802000Y-74703000D01*
X70390000Y-65500000D02*
X70390000Y-66450000D01*
X66000000Y-104750000D02*
X68000000Y-104750000D01*
X39802000Y-102198000D02*
X37250000Y-104750000D01*
X55750000Y-104750000D02*
X57750000Y-104750000D01*
%TO.N,/LoRa_Radio/LORA_CS*%
X54902106Y-59925000D02*
X60250000Y-59925000D01*
X53235856Y-58258750D02*
X54902106Y-59925000D01*
X44050000Y-58258750D02*
X53235856Y-58258750D01*
%TO.N,/LoRa_Radio/LORA_RST*%
X52532956Y-56988750D02*
X54199206Y-58655000D01*
X44050000Y-56988750D02*
X52532956Y-56988750D01*
X54199206Y-58655000D02*
X60250000Y-58655000D01*
%TO.N,/LoRa_Radio/LORA_DI02*%
X54450000Y-54448750D02*
X55249999Y-54448750D01*
X55249999Y-54448750D02*
X56123749Y-53575000D01*
X56123749Y-53575000D02*
X60250000Y-53575000D01*
%TO.N,/LoRa_Radio/LORA_DI01*%
X55323750Y-52305000D02*
X60250000Y-52305000D01*
X54450000Y-53178750D02*
X55323750Y-52305000D01*
%TO.N,Net-(Q2-D)*%
X46601000Y-70949000D02*
X46601000Y-67289840D01*
X45800000Y-71750000D02*
X46601000Y-70949000D01*
X46601000Y-67289840D02*
X45336160Y-66025000D01*
X45336160Y-66025000D02*
X44757500Y-66025000D01*
%TO.N,Net-(U3-V_{DD}-Pad1)*%
X44600000Y-43725000D02*
X45100000Y-43725000D01*
%TO.N,/LoRa_Radio/SPI_MOSI_LORA*%
X59718000Y-56115000D02*
X60250000Y-56115000D01*
X53769056Y-56387750D02*
X59977250Y-56387750D01*
X51830056Y-54448750D02*
X53769056Y-56387750D01*
X44050000Y-54448750D02*
X51830056Y-54448750D01*
X59977250Y-56387750D02*
X60250000Y-56115000D01*
%TO.N,/LoRa_Radio/SPI_MISO_LORA*%
X51830056Y-53178750D02*
X53769056Y-55117750D01*
X59977250Y-55117750D02*
X60250000Y-54845000D01*
X59718000Y-54845000D02*
X60250000Y-54845000D01*
X44050000Y-53178750D02*
X51830056Y-53178750D01*
X53769056Y-55117750D02*
X59977250Y-55117750D01*
%TO.N,/LoRa_Radio/SPI_SCK_LORA*%
X51830056Y-55718750D02*
X53701056Y-57589750D01*
X53701056Y-57589750D02*
X60045250Y-57589750D01*
X60045250Y-57589750D02*
X60250000Y-57385000D01*
X59718000Y-57385000D02*
X60250000Y-57385000D01*
X44050000Y-55718750D02*
X51830056Y-55718750D01*
%TO.N,/MCU_Core/ADC_CTRL*%
X42882500Y-65075000D02*
X55425000Y-65075000D01*
X55425000Y-65075000D02*
X59305000Y-61195000D01*
X59305000Y-61195000D02*
X60250000Y-61195000D01*
%TO.N,/MCU_Core/BATTERY_PIN*%
X47700000Y-69750000D02*
X47700000Y-68000000D01*
X48500000Y-68950000D02*
X48500000Y-66250000D01*
X47700000Y-69750000D02*
X48500000Y-68950000D01*
X47700000Y-71750000D02*
X47700000Y-69750000D01*
X40250000Y-61000000D02*
X40250000Y-49750000D01*
%TO.N,Net-(U3-PROG)*%
X45224999Y-46500001D02*
X45100000Y-46625000D01*
X47800000Y-46500000D02*
X45224999Y-46500001D01*
%TD*%
M02*
