%TF.GenerationSoftware,KiCad,Pcbnew,9.0.3*%
%TF.CreationDate,2026-06-10T10:59:13+05:30*%
%TF.ProjectId,meshtalk_t9,6d657368-7461-46c6-9b5f-74392e6b6963,rev?*%
%TF.SameCoordinates,Original*%
%TF.FileFunction,Copper,L3,Inr*%
%TF.FilePolarity,Positive*%
%FSLAX46Y46*%
G04 Gerber Fmt 4.6, Leading zero omitted, Abs format (unit mm)*
G04 Created by KiCad (PCBNEW 9.0.3) date 2026-06-10 10:59:13*
%MOMM*%
%LPD*%
G01*
G04 APERTURE LIST*
%TA.AperFunction,HeatsinkPad*%
%ADD10O,1.000000X2.100000*%
%TD*%
%TA.AperFunction,HeatsinkPad*%
%ADD11O,1.000000X1.600000*%
%TD*%
%TA.AperFunction,HeatsinkPad*%
%ADD12C,0.600000*%
%TD*%
%TA.AperFunction,ViaPad*%
%ADD13C,0.800000*%
%TD*%
%TA.AperFunction,ViaPad*%
%ADD14C,0.600000*%
%TD*%
G04 APERTURE END LIST*
D10*
%TO.N,Net-(J1-SHIELD)*%
%TO.C,J1*%
X55440000Y-36165000D03*
D11*
X55440000Y-40345000D03*
D10*
X64080000Y-36165000D03*
D11*
X64080000Y-40345000D03*
%TD*%
D12*
%TO.N,GND*%
%TO.C,U1*%
X70990000Y-53850000D03*
X69590000Y-53850000D03*
X71690000Y-54550000D03*
X70290000Y-54550000D03*
X68890000Y-54550000D03*
X70990000Y-55250000D03*
X69590000Y-55250000D03*
X71690000Y-55950000D03*
X70290000Y-55950000D03*
X68890000Y-55950000D03*
X70990000Y-56650000D03*
X69590000Y-56650000D03*
%TD*%
D13*
%TO.N,+3V3*%
X39000000Y-46750000D03*
X42250000Y-46750000D03*
X72750000Y-45200000D03*
X67900000Y-43337500D03*
X76740000Y-48000000D03*
D14*
%TO.N,GND*%
X72750000Y-42250000D03*
X42750000Y-59000000D03*
X40000000Y-65250000D03*
X74250000Y-60500000D03*
X78000000Y-49500000D03*
X39750000Y-69000000D03*
X38750000Y-44500000D03*
X45750000Y-37000000D03*
X73750000Y-39500000D03*
X42750000Y-66250000D03*
X74000000Y-36250000D03*
X49750000Y-47750000D03*
X69750000Y-36250000D03*
X54000000Y-68250000D03*
%TO.N,Net-(U1-EN)*%
X75470000Y-48000000D03*
X58000000Y-64250000D03*
%TO.N,/Power_Management/V_SYS*%
X53000000Y-40750000D03*
X71000000Y-37150000D03*
%TO.N,Net-(J1-CC2)*%
X51500000Y-38500000D03*
X61500000Y-36500000D03*
%TO.N,/MCU_Core/USB_D+*%
X60250000Y-42750000D03*
X60250000Y-45750000D03*
%TO.N,Net-(J1-CC1)*%
X51500000Y-35550000D03*
X58500000Y-36500000D03*
%TO.N,/MCU_Core/KB_C1*%
X61750000Y-62750000D03*
%TO.N,/MCU_Core/KB_R1*%
X37250000Y-78500000D03*
%TO.N,/MCU_Core/KB_C2*%
X57750000Y-83000000D03*
%TO.N,/MCU_Core/KB_C3*%
X55500000Y-83000000D03*
%TO.N,/MCU_Core/KB_C4*%
X45250000Y-83000000D03*
%TO.N,/MCU_Core/KB_R2*%
X55500000Y-87250000D03*
X57750000Y-87250000D03*
X68000000Y-87250000D03*
X37250000Y-87250000D03*
X47250000Y-87250000D03*
X45250000Y-87250000D03*
X65750000Y-87250000D03*
%TO.N,/MCU_Core/KB_R3*%
X47500000Y-96000000D03*
X55500000Y-96000000D03*
X65750000Y-96000000D03*
X45250000Y-96000000D03*
X68000000Y-96000000D03*
X37250000Y-96000000D03*
X57750000Y-96000000D03*
%TO.N,/MCU_Core/KB_R4*%
X37250000Y-104750000D03*
X57750000Y-104750000D03*
X66000000Y-104750000D03*
X55750000Y-104750000D03*
X68000000Y-104750000D03*
X47500000Y-104750000D03*
X45250000Y-104750000D03*
%TO.N,/MCU_Core/TFT_DC*%
X71660000Y-48000000D03*
%TO.N,/MCU_Core/TFT_RST*%
X70390000Y-48000000D03*
%TO.N,/MCU_Core/DISPLAY_CS*%
X72930000Y-48000000D03*
%TO.N,/MCU_Core/TFT_BL*%
X74200000Y-48000000D03*
%TO.N,/MCU_Core/TFT_MOSI*%
X69120000Y-48000000D03*
%TO.N,/MCU_Core/TFT_SCK*%
X67850000Y-48000000D03*
%TO.N,/MCU_Core/BATTERY_PIN*%
X48500000Y-66250000D03*
X40250000Y-61000000D03*
X60250000Y-49765000D03*
X40250000Y-49750000D03*
%TD*%
M02*
