%TF.GenerationSoftware,KiCad,Pcbnew,9.0.3*%
%TF.CreationDate,2026-06-10T10:59:13+05:30*%
%TF.ProjectId,meshtalk_t9,6d657368-7461-46c6-9b5f-74392e6b6963,rev?*%
%TF.SameCoordinates,Original*%
%TF.FileFunction,Legend,Top*%
%TF.FilePolarity,Positive*%
%FSLAX46Y46*%
G04 Gerber Fmt 4.6, Leading zero omitted, Abs format (unit mm)*
G04 Created by KiCad (PCBNEW 9.0.3) date 2026-06-10 10:59:13*
%MOMM*%
%LPD*%
G01*
G04 APERTURE LIST*
%ADD10C,0.150000*%
%ADD11C,0.120000*%
%ADD12C,0.127000*%
G04 APERTURE END LIST*
D10*
X46583333Y-70524819D02*
X46250000Y-70048628D01*
X46011905Y-70524819D02*
X46011905Y-69524819D01*
X46011905Y-69524819D02*
X46392857Y-69524819D01*
X46392857Y-69524819D02*
X46488095Y-69572438D01*
X46488095Y-69572438D02*
X46535714Y-69620057D01*
X46535714Y-69620057D02*
X46583333Y-69715295D01*
X46583333Y-69715295D02*
X46583333Y-69858152D01*
X46583333Y-69858152D02*
X46535714Y-69953390D01*
X46535714Y-69953390D02*
X46488095Y-70001009D01*
X46488095Y-70001009D02*
X46392857Y-70048628D01*
X46392857Y-70048628D02*
X46011905Y-70048628D01*
X47440476Y-69524819D02*
X47250000Y-69524819D01*
X47250000Y-69524819D02*
X47154762Y-69572438D01*
X47154762Y-69572438D02*
X47107143Y-69620057D01*
X47107143Y-69620057D02*
X47011905Y-69762914D01*
X47011905Y-69762914D02*
X46964286Y-69953390D01*
X46964286Y-69953390D02*
X46964286Y-70334342D01*
X46964286Y-70334342D02*
X47011905Y-70429580D01*
X47011905Y-70429580D02*
X47059524Y-70477200D01*
X47059524Y-70477200D02*
X47154762Y-70524819D01*
X47154762Y-70524819D02*
X47345238Y-70524819D01*
X47345238Y-70524819D02*
X47440476Y-70477200D01*
X47440476Y-70477200D02*
X47488095Y-70429580D01*
X47488095Y-70429580D02*
X47535714Y-70334342D01*
X47535714Y-70334342D02*
X47535714Y-70096247D01*
X47535714Y-70096247D02*
X47488095Y-70001009D01*
X47488095Y-70001009D02*
X47440476Y-69953390D01*
X47440476Y-69953390D02*
X47345238Y-69905771D01*
X47345238Y-69905771D02*
X47154762Y-69905771D01*
X47154762Y-69905771D02*
X47059524Y-69953390D01*
X47059524Y-69953390D02*
X47011905Y-70001009D01*
X47011905Y-70001009D02*
X46964286Y-70096247D01*
X45754819Y-45936904D02*
X46564342Y-45936904D01*
X46564342Y-45936904D02*
X46659580Y-45889285D01*
X46659580Y-45889285D02*
X46707200Y-45841666D01*
X46707200Y-45841666D02*
X46754819Y-45746428D01*
X46754819Y-45746428D02*
X46754819Y-45555952D01*
X46754819Y-45555952D02*
X46707200Y-45460714D01*
X46707200Y-45460714D02*
X46659580Y-45413095D01*
X46659580Y-45413095D02*
X46564342Y-45365476D01*
X46564342Y-45365476D02*
X45754819Y-45365476D01*
X45754819Y-44984523D02*
X45754819Y-44365476D01*
X45754819Y-44365476D02*
X46135771Y-44698809D01*
X46135771Y-44698809D02*
X46135771Y-44555952D01*
X46135771Y-44555952D02*
X46183390Y-44460714D01*
X46183390Y-44460714D02*
X46231009Y-44413095D01*
X46231009Y-44413095D02*
X46326247Y-44365476D01*
X46326247Y-44365476D02*
X46564342Y-44365476D01*
X46564342Y-44365476D02*
X46659580Y-44413095D01*
X46659580Y-44413095D02*
X46707200Y-44460714D01*
X46707200Y-44460714D02*
X46754819Y-44555952D01*
X46754819Y-44555952D02*
X46754819Y-44841666D01*
X46754819Y-44841666D02*
X46707200Y-44936904D01*
X46707200Y-44936904D02*
X46659580Y-44984523D01*
X48170833Y-37604819D02*
X47837500Y-37128628D01*
X47599405Y-37604819D02*
X47599405Y-36604819D01*
X47599405Y-36604819D02*
X47980357Y-36604819D01*
X47980357Y-36604819D02*
X48075595Y-36652438D01*
X48075595Y-36652438D02*
X48123214Y-36700057D01*
X48123214Y-36700057D02*
X48170833Y-36795295D01*
X48170833Y-36795295D02*
X48170833Y-36938152D01*
X48170833Y-36938152D02*
X48123214Y-37033390D01*
X48123214Y-37033390D02*
X48075595Y-37081009D01*
X48075595Y-37081009D02*
X47980357Y-37128628D01*
X47980357Y-37128628D02*
X47599405Y-37128628D01*
X49027976Y-36938152D02*
X49027976Y-37604819D01*
X48789881Y-36557200D02*
X48551786Y-37271485D01*
X48551786Y-37271485D02*
X49170833Y-37271485D01*
X59426666Y-33104819D02*
X59426666Y-33819104D01*
X59426666Y-33819104D02*
X59379047Y-33961961D01*
X59379047Y-33961961D02*
X59283809Y-34057200D01*
X59283809Y-34057200D02*
X59140952Y-34104819D01*
X59140952Y-34104819D02*
X59045714Y-34104819D01*
X60426666Y-34104819D02*
X59855238Y-34104819D01*
X60140952Y-34104819D02*
X60140952Y-33104819D01*
X60140952Y-33104819D02*
X60045714Y-33247676D01*
X60045714Y-33247676D02*
X59950476Y-33342914D01*
X59950476Y-33342914D02*
X59855238Y-33390533D01*
X69100595Y-38054819D02*
X69100595Y-38864342D01*
X69100595Y-38864342D02*
X69148214Y-38959580D01*
X69148214Y-38959580D02*
X69195833Y-39007200D01*
X69195833Y-39007200D02*
X69291071Y-39054819D01*
X69291071Y-39054819D02*
X69481547Y-39054819D01*
X69481547Y-39054819D02*
X69576785Y-39007200D01*
X69576785Y-39007200D02*
X69624404Y-38959580D01*
X69624404Y-38959580D02*
X69672023Y-38864342D01*
X69672023Y-38864342D02*
X69672023Y-38054819D01*
X70100595Y-38150057D02*
X70148214Y-38102438D01*
X70148214Y-38102438D02*
X70243452Y-38054819D01*
X70243452Y-38054819D02*
X70481547Y-38054819D01*
X70481547Y-38054819D02*
X70576785Y-38102438D01*
X70576785Y-38102438D02*
X70624404Y-38150057D01*
X70624404Y-38150057D02*
X70672023Y-38245295D01*
X70672023Y-38245295D02*
X70672023Y-38340533D01*
X70672023Y-38340533D02*
X70624404Y-38483390D01*
X70624404Y-38483390D02*
X70052976Y-39054819D01*
X70052976Y-39054819D02*
X70672023Y-39054819D01*
X55404819Y-57011904D02*
X56214342Y-57011904D01*
X56214342Y-57011904D02*
X56309580Y-56964285D01*
X56309580Y-56964285D02*
X56357200Y-56916666D01*
X56357200Y-56916666D02*
X56404819Y-56821428D01*
X56404819Y-56821428D02*
X56404819Y-56630952D01*
X56404819Y-56630952D02*
X56357200Y-56535714D01*
X56357200Y-56535714D02*
X56309580Y-56488095D01*
X56309580Y-56488095D02*
X56214342Y-56440476D01*
X56214342Y-56440476D02*
X55404819Y-56440476D01*
X55738152Y-55535714D02*
X56404819Y-55535714D01*
X55357200Y-55773809D02*
X56071485Y-56011904D01*
X56071485Y-56011904D02*
X56071485Y-55392857D01*
X48583333Y-48634819D02*
X48250000Y-48158628D01*
X48011905Y-48634819D02*
X48011905Y-47634819D01*
X48011905Y-47634819D02*
X48392857Y-47634819D01*
X48392857Y-47634819D02*
X48488095Y-47682438D01*
X48488095Y-47682438D02*
X48535714Y-47730057D01*
X48535714Y-47730057D02*
X48583333Y-47825295D01*
X48583333Y-47825295D02*
X48583333Y-47968152D01*
X48583333Y-47968152D02*
X48535714Y-48063390D01*
X48535714Y-48063390D02*
X48488095Y-48111009D01*
X48488095Y-48111009D02*
X48392857Y-48158628D01*
X48392857Y-48158628D02*
X48011905Y-48158628D01*
X48916667Y-47634819D02*
X49583333Y-47634819D01*
X49583333Y-47634819D02*
X49154762Y-48634819D01*
X52666667Y-65357200D02*
X52809524Y-65404819D01*
X52809524Y-65404819D02*
X53047619Y-65404819D01*
X53047619Y-65404819D02*
X53142857Y-65357200D01*
X53142857Y-65357200D02*
X53190476Y-65309580D01*
X53190476Y-65309580D02*
X53238095Y-65214342D01*
X53238095Y-65214342D02*
X53238095Y-65119104D01*
X53238095Y-65119104D02*
X53190476Y-65023866D01*
X53190476Y-65023866D02*
X53142857Y-64976247D01*
X53142857Y-64976247D02*
X53047619Y-64928628D01*
X53047619Y-64928628D02*
X52857143Y-64881009D01*
X52857143Y-64881009D02*
X52761905Y-64833390D01*
X52761905Y-64833390D02*
X52714286Y-64785771D01*
X52714286Y-64785771D02*
X52666667Y-64690533D01*
X52666667Y-64690533D02*
X52666667Y-64595295D01*
X52666667Y-64595295D02*
X52714286Y-64500057D01*
X52714286Y-64500057D02*
X52761905Y-64452438D01*
X52761905Y-64452438D02*
X52857143Y-64404819D01*
X52857143Y-64404819D02*
X53095238Y-64404819D01*
X53095238Y-64404819D02*
X53238095Y-64452438D01*
X53571429Y-64404819D02*
X53809524Y-65404819D01*
X53809524Y-65404819D02*
X54000000Y-64690533D01*
X54000000Y-64690533D02*
X54190476Y-65404819D01*
X54190476Y-65404819D02*
X54428572Y-64404819D01*
X55333333Y-65404819D02*
X54761905Y-65404819D01*
X55047619Y-65404819D02*
X55047619Y-64404819D01*
X55047619Y-64404819D02*
X54952381Y-64547676D01*
X54952381Y-64547676D02*
X54857143Y-64642914D01*
X54857143Y-64642914D02*
X54761905Y-64690533D01*
X47511905Y-40604819D02*
X47511905Y-39604819D01*
X47511905Y-39604819D02*
X47750000Y-39604819D01*
X47750000Y-39604819D02*
X47892857Y-39652438D01*
X47892857Y-39652438D02*
X47988095Y-39747676D01*
X47988095Y-39747676D02*
X48035714Y-39842914D01*
X48035714Y-39842914D02*
X48083333Y-40033390D01*
X48083333Y-40033390D02*
X48083333Y-40176247D01*
X48083333Y-40176247D02*
X48035714Y-40366723D01*
X48035714Y-40366723D02*
X47988095Y-40461961D01*
X47988095Y-40461961D02*
X47892857Y-40557200D01*
X47892857Y-40557200D02*
X47750000Y-40604819D01*
X47750000Y-40604819D02*
X47511905Y-40604819D01*
X49035714Y-40604819D02*
X48464286Y-40604819D01*
X48750000Y-40604819D02*
X48750000Y-39604819D01*
X48750000Y-39604819D02*
X48654762Y-39747676D01*
X48654762Y-39747676D02*
X48559524Y-39842914D01*
X48559524Y-39842914D02*
X48464286Y-39890533D01*
X52245833Y-37654819D02*
X51912500Y-37178628D01*
X51674405Y-37654819D02*
X51674405Y-36654819D01*
X51674405Y-36654819D02*
X52055357Y-36654819D01*
X52055357Y-36654819D02*
X52150595Y-36702438D01*
X52150595Y-36702438D02*
X52198214Y-36750057D01*
X52198214Y-36750057D02*
X52245833Y-36845295D01*
X52245833Y-36845295D02*
X52245833Y-36988152D01*
X52245833Y-36988152D02*
X52198214Y-37083390D01*
X52198214Y-37083390D02*
X52150595Y-37131009D01*
X52150595Y-37131009D02*
X52055357Y-37178628D01*
X52055357Y-37178628D02*
X51674405Y-37178628D01*
X52579167Y-36654819D02*
X53198214Y-36654819D01*
X53198214Y-36654819D02*
X52864881Y-37035771D01*
X52864881Y-37035771D02*
X53007738Y-37035771D01*
X53007738Y-37035771D02*
X53102976Y-37083390D01*
X53102976Y-37083390D02*
X53150595Y-37131009D01*
X53150595Y-37131009D02*
X53198214Y-37226247D01*
X53198214Y-37226247D02*
X53198214Y-37464342D01*
X53198214Y-37464342D02*
X53150595Y-37559580D01*
X53150595Y-37559580D02*
X53102976Y-37607200D01*
X53102976Y-37607200D02*
X53007738Y-37654819D01*
X53007738Y-37654819D02*
X52722024Y-37654819D01*
X52722024Y-37654819D02*
X52626786Y-37607200D01*
X52626786Y-37607200D02*
X52579167Y-37559580D01*
X60588095Y-45704819D02*
X60588095Y-46514342D01*
X60588095Y-46514342D02*
X60635714Y-46609580D01*
X60635714Y-46609580D02*
X60683333Y-46657200D01*
X60683333Y-46657200D02*
X60778571Y-46704819D01*
X60778571Y-46704819D02*
X60969047Y-46704819D01*
X60969047Y-46704819D02*
X61064285Y-46657200D01*
X61064285Y-46657200D02*
X61111904Y-46609580D01*
X61111904Y-46609580D02*
X61159523Y-46514342D01*
X61159523Y-46514342D02*
X61159523Y-45704819D01*
X62159523Y-46704819D02*
X61588095Y-46704819D01*
X61873809Y-46704819D02*
X61873809Y-45704819D01*
X61873809Y-45704819D02*
X61778571Y-45847676D01*
X61778571Y-45847676D02*
X61683333Y-45942914D01*
X61683333Y-45942914D02*
X61588095Y-45990533D01*
X44543333Y-37539580D02*
X44495714Y-37587200D01*
X44495714Y-37587200D02*
X44352857Y-37634819D01*
X44352857Y-37634819D02*
X44257619Y-37634819D01*
X44257619Y-37634819D02*
X44114762Y-37587200D01*
X44114762Y-37587200D02*
X44019524Y-37491961D01*
X44019524Y-37491961D02*
X43971905Y-37396723D01*
X43971905Y-37396723D02*
X43924286Y-37206247D01*
X43924286Y-37206247D02*
X43924286Y-37063390D01*
X43924286Y-37063390D02*
X43971905Y-36872914D01*
X43971905Y-36872914D02*
X44019524Y-36777676D01*
X44019524Y-36777676D02*
X44114762Y-36682438D01*
X44114762Y-36682438D02*
X44257619Y-36634819D01*
X44257619Y-36634819D02*
X44352857Y-36634819D01*
X44352857Y-36634819D02*
X44495714Y-36682438D01*
X44495714Y-36682438D02*
X44543333Y-36730057D01*
X45448095Y-36634819D02*
X44971905Y-36634819D01*
X44971905Y-36634819D02*
X44924286Y-37111009D01*
X44924286Y-37111009D02*
X44971905Y-37063390D01*
X44971905Y-37063390D02*
X45067143Y-37015771D01*
X45067143Y-37015771D02*
X45305238Y-37015771D01*
X45305238Y-37015771D02*
X45400476Y-37063390D01*
X45400476Y-37063390D02*
X45448095Y-37111009D01*
X45448095Y-37111009D02*
X45495714Y-37206247D01*
X45495714Y-37206247D02*
X45495714Y-37444342D01*
X45495714Y-37444342D02*
X45448095Y-37539580D01*
X45448095Y-37539580D02*
X45400476Y-37587200D01*
X45400476Y-37587200D02*
X45305238Y-37634819D01*
X45305238Y-37634819D02*
X45067143Y-37634819D01*
X45067143Y-37634819D02*
X44971905Y-37587200D01*
X44971905Y-37587200D02*
X44924286Y-37539580D01*
X49467261Y-45150057D02*
X49372023Y-45102438D01*
X49372023Y-45102438D02*
X49276785Y-45007200D01*
X49276785Y-45007200D02*
X49133928Y-44864342D01*
X49133928Y-44864342D02*
X49038690Y-44816723D01*
X49038690Y-44816723D02*
X48943452Y-44816723D01*
X48991071Y-45054819D02*
X48895833Y-45007200D01*
X48895833Y-45007200D02*
X48800595Y-44911961D01*
X48800595Y-44911961D02*
X48752976Y-44721485D01*
X48752976Y-44721485D02*
X48752976Y-44388152D01*
X48752976Y-44388152D02*
X48800595Y-44197676D01*
X48800595Y-44197676D02*
X48895833Y-44102438D01*
X48895833Y-44102438D02*
X48991071Y-44054819D01*
X48991071Y-44054819D02*
X49181547Y-44054819D01*
X49181547Y-44054819D02*
X49276785Y-44102438D01*
X49276785Y-44102438D02*
X49372023Y-44197676D01*
X49372023Y-44197676D02*
X49419642Y-44388152D01*
X49419642Y-44388152D02*
X49419642Y-44721485D01*
X49419642Y-44721485D02*
X49372023Y-44911961D01*
X49372023Y-44911961D02*
X49276785Y-45007200D01*
X49276785Y-45007200D02*
X49181547Y-45054819D01*
X49181547Y-45054819D02*
X48991071Y-45054819D01*
X50372023Y-45054819D02*
X49800595Y-45054819D01*
X50086309Y-45054819D02*
X50086309Y-44054819D01*
X50086309Y-44054819D02*
X49991071Y-44197676D01*
X49991071Y-44197676D02*
X49895833Y-44292914D01*
X49895833Y-44292914D02*
X49800595Y-44340533D01*
X76293333Y-38289580D02*
X76245714Y-38337200D01*
X76245714Y-38337200D02*
X76102857Y-38384819D01*
X76102857Y-38384819D02*
X76007619Y-38384819D01*
X76007619Y-38384819D02*
X75864762Y-38337200D01*
X75864762Y-38337200D02*
X75769524Y-38241961D01*
X75769524Y-38241961D02*
X75721905Y-38146723D01*
X75721905Y-38146723D02*
X75674286Y-37956247D01*
X75674286Y-37956247D02*
X75674286Y-37813390D01*
X75674286Y-37813390D02*
X75721905Y-37622914D01*
X75721905Y-37622914D02*
X75769524Y-37527676D01*
X75769524Y-37527676D02*
X75864762Y-37432438D01*
X75864762Y-37432438D02*
X76007619Y-37384819D01*
X76007619Y-37384819D02*
X76102857Y-37384819D01*
X76102857Y-37384819D02*
X76245714Y-37432438D01*
X76245714Y-37432438D02*
X76293333Y-37480057D01*
X77150476Y-37718152D02*
X77150476Y-38384819D01*
X76912381Y-37337200D02*
X76674286Y-38051485D01*
X76674286Y-38051485D02*
X77293333Y-38051485D01*
X77439580Y-40616666D02*
X77487200Y-40664285D01*
X77487200Y-40664285D02*
X77534819Y-40807142D01*
X77534819Y-40807142D02*
X77534819Y-40902380D01*
X77534819Y-40902380D02*
X77487200Y-41045237D01*
X77487200Y-41045237D02*
X77391961Y-41140475D01*
X77391961Y-41140475D02*
X77296723Y-41188094D01*
X77296723Y-41188094D02*
X77106247Y-41235713D01*
X77106247Y-41235713D02*
X76963390Y-41235713D01*
X76963390Y-41235713D02*
X76772914Y-41188094D01*
X76772914Y-41188094D02*
X76677676Y-41140475D01*
X76677676Y-41140475D02*
X76582438Y-41045237D01*
X76582438Y-41045237D02*
X76534819Y-40902380D01*
X76534819Y-40902380D02*
X76534819Y-40807142D01*
X76534819Y-40807142D02*
X76582438Y-40664285D01*
X76582438Y-40664285D02*
X76630057Y-40616666D01*
X77534819Y-39664285D02*
X77534819Y-40235713D01*
X77534819Y-39949999D02*
X76534819Y-39949999D01*
X76534819Y-39949999D02*
X76677676Y-40045237D01*
X76677676Y-40045237D02*
X76772914Y-40140475D01*
X76772914Y-40140475D02*
X76820533Y-40235713D01*
X70004819Y-44416666D02*
X69528628Y-44749999D01*
X70004819Y-44988094D02*
X69004819Y-44988094D01*
X69004819Y-44988094D02*
X69004819Y-44607142D01*
X69004819Y-44607142D02*
X69052438Y-44511904D01*
X69052438Y-44511904D02*
X69100057Y-44464285D01*
X69100057Y-44464285D02*
X69195295Y-44416666D01*
X69195295Y-44416666D02*
X69338152Y-44416666D01*
X69338152Y-44416666D02*
X69433390Y-44464285D01*
X69433390Y-44464285D02*
X69481009Y-44511904D01*
X69481009Y-44511904D02*
X69528628Y-44607142D01*
X69528628Y-44607142D02*
X69528628Y-44988094D01*
X70004819Y-43464285D02*
X70004819Y-44035713D01*
X70004819Y-43749999D02*
X69004819Y-43749999D01*
X69004819Y-43749999D02*
X69147676Y-43845237D01*
X69147676Y-43845237D02*
X69242914Y-43940475D01*
X69242914Y-43940475D02*
X69290533Y-44035713D01*
X42039580Y-63366666D02*
X42087200Y-63414285D01*
X42087200Y-63414285D02*
X42134819Y-63557142D01*
X42134819Y-63557142D02*
X42134819Y-63652380D01*
X42134819Y-63652380D02*
X42087200Y-63795237D01*
X42087200Y-63795237D02*
X41991961Y-63890475D01*
X41991961Y-63890475D02*
X41896723Y-63938094D01*
X41896723Y-63938094D02*
X41706247Y-63985713D01*
X41706247Y-63985713D02*
X41563390Y-63985713D01*
X41563390Y-63985713D02*
X41372914Y-63938094D01*
X41372914Y-63938094D02*
X41277676Y-63890475D01*
X41277676Y-63890475D02*
X41182438Y-63795237D01*
X41182438Y-63795237D02*
X41134819Y-63652380D01*
X41134819Y-63652380D02*
X41134819Y-63557142D01*
X41134819Y-63557142D02*
X41182438Y-63414285D01*
X41182438Y-63414285D02*
X41230057Y-63366666D01*
X41134819Y-62509523D02*
X41134819Y-62699999D01*
X41134819Y-62699999D02*
X41182438Y-62795237D01*
X41182438Y-62795237D02*
X41230057Y-62842856D01*
X41230057Y-62842856D02*
X41372914Y-62938094D01*
X41372914Y-62938094D02*
X41563390Y-62985713D01*
X41563390Y-62985713D02*
X41944342Y-62985713D01*
X41944342Y-62985713D02*
X42039580Y-62938094D01*
X42039580Y-62938094D02*
X42087200Y-62890475D01*
X42087200Y-62890475D02*
X42134819Y-62795237D01*
X42134819Y-62795237D02*
X42134819Y-62604761D01*
X42134819Y-62604761D02*
X42087200Y-62509523D01*
X42087200Y-62509523D02*
X42039580Y-62461904D01*
X42039580Y-62461904D02*
X41944342Y-62414285D01*
X41944342Y-62414285D02*
X41706247Y-62414285D01*
X41706247Y-62414285D02*
X41611009Y-62461904D01*
X41611009Y-62461904D02*
X41563390Y-62509523D01*
X41563390Y-62509523D02*
X41515771Y-62604761D01*
X41515771Y-62604761D02*
X41515771Y-62795237D01*
X41515771Y-62795237D02*
X41563390Y-62890475D01*
X41563390Y-62890475D02*
X41611009Y-62938094D01*
X41611009Y-62938094D02*
X41706247Y-62985713D01*
X74789580Y-44416666D02*
X74837200Y-44464285D01*
X74837200Y-44464285D02*
X74884819Y-44607142D01*
X74884819Y-44607142D02*
X74884819Y-44702380D01*
X74884819Y-44702380D02*
X74837200Y-44845237D01*
X74837200Y-44845237D02*
X74741961Y-44940475D01*
X74741961Y-44940475D02*
X74646723Y-44988094D01*
X74646723Y-44988094D02*
X74456247Y-45035713D01*
X74456247Y-45035713D02*
X74313390Y-45035713D01*
X74313390Y-45035713D02*
X74122914Y-44988094D01*
X74122914Y-44988094D02*
X74027676Y-44940475D01*
X74027676Y-44940475D02*
X73932438Y-44845237D01*
X73932438Y-44845237D02*
X73884819Y-44702380D01*
X73884819Y-44702380D02*
X73884819Y-44607142D01*
X73884819Y-44607142D02*
X73932438Y-44464285D01*
X73932438Y-44464285D02*
X73980057Y-44416666D01*
X73980057Y-44035713D02*
X73932438Y-43988094D01*
X73932438Y-43988094D02*
X73884819Y-43892856D01*
X73884819Y-43892856D02*
X73884819Y-43654761D01*
X73884819Y-43654761D02*
X73932438Y-43559523D01*
X73932438Y-43559523D02*
X73980057Y-43511904D01*
X73980057Y-43511904D02*
X74075295Y-43464285D01*
X74075295Y-43464285D02*
X74170533Y-43464285D01*
X74170533Y-43464285D02*
X74313390Y-43511904D01*
X74313390Y-43511904D02*
X74884819Y-44083332D01*
X74884819Y-44083332D02*
X74884819Y-43464285D01*
X52245833Y-40604819D02*
X51912500Y-40128628D01*
X51674405Y-40604819D02*
X51674405Y-39604819D01*
X51674405Y-39604819D02*
X52055357Y-39604819D01*
X52055357Y-39604819D02*
X52150595Y-39652438D01*
X52150595Y-39652438D02*
X52198214Y-39700057D01*
X52198214Y-39700057D02*
X52245833Y-39795295D01*
X52245833Y-39795295D02*
X52245833Y-39938152D01*
X52245833Y-39938152D02*
X52198214Y-40033390D01*
X52198214Y-40033390D02*
X52150595Y-40081009D01*
X52150595Y-40081009D02*
X52055357Y-40128628D01*
X52055357Y-40128628D02*
X51674405Y-40128628D01*
X52626786Y-39700057D02*
X52674405Y-39652438D01*
X52674405Y-39652438D02*
X52769643Y-39604819D01*
X52769643Y-39604819D02*
X53007738Y-39604819D01*
X53007738Y-39604819D02*
X53102976Y-39652438D01*
X53102976Y-39652438D02*
X53150595Y-39700057D01*
X53150595Y-39700057D02*
X53198214Y-39795295D01*
X53198214Y-39795295D02*
X53198214Y-39890533D01*
X53198214Y-39890533D02*
X53150595Y-40033390D01*
X53150595Y-40033390D02*
X52579167Y-40604819D01*
X52579167Y-40604819D02*
X53198214Y-40604819D01*
X79689580Y-44416666D02*
X79737200Y-44464285D01*
X79737200Y-44464285D02*
X79784819Y-44607142D01*
X79784819Y-44607142D02*
X79784819Y-44702380D01*
X79784819Y-44702380D02*
X79737200Y-44845237D01*
X79737200Y-44845237D02*
X79641961Y-44940475D01*
X79641961Y-44940475D02*
X79546723Y-44988094D01*
X79546723Y-44988094D02*
X79356247Y-45035713D01*
X79356247Y-45035713D02*
X79213390Y-45035713D01*
X79213390Y-45035713D02*
X79022914Y-44988094D01*
X79022914Y-44988094D02*
X78927676Y-44940475D01*
X78927676Y-44940475D02*
X78832438Y-44845237D01*
X78832438Y-44845237D02*
X78784819Y-44702380D01*
X78784819Y-44702380D02*
X78784819Y-44607142D01*
X78784819Y-44607142D02*
X78832438Y-44464285D01*
X78832438Y-44464285D02*
X78880057Y-44416666D01*
X78784819Y-44083332D02*
X78784819Y-43464285D01*
X78784819Y-43464285D02*
X79165771Y-43797618D01*
X79165771Y-43797618D02*
X79165771Y-43654761D01*
X79165771Y-43654761D02*
X79213390Y-43559523D01*
X79213390Y-43559523D02*
X79261009Y-43511904D01*
X79261009Y-43511904D02*
X79356247Y-43464285D01*
X79356247Y-43464285D02*
X79594342Y-43464285D01*
X79594342Y-43464285D02*
X79689580Y-43511904D01*
X79689580Y-43511904D02*
X79737200Y-43559523D01*
X79737200Y-43559523D02*
X79784819Y-43654761D01*
X79784819Y-43654761D02*
X79784819Y-43940475D01*
X79784819Y-43940475D02*
X79737200Y-44035713D01*
X79737200Y-44035713D02*
X79689580Y-44083332D01*
X43724761Y-64175057D02*
X43629523Y-64127438D01*
X43629523Y-64127438D02*
X43534285Y-64032200D01*
X43534285Y-64032200D02*
X43391428Y-63889342D01*
X43391428Y-63889342D02*
X43296190Y-63841723D01*
X43296190Y-63841723D02*
X43200952Y-63841723D01*
X43248571Y-64079819D02*
X43153333Y-64032200D01*
X43153333Y-64032200D02*
X43058095Y-63936961D01*
X43058095Y-63936961D02*
X43010476Y-63746485D01*
X43010476Y-63746485D02*
X43010476Y-63413152D01*
X43010476Y-63413152D02*
X43058095Y-63222676D01*
X43058095Y-63222676D02*
X43153333Y-63127438D01*
X43153333Y-63127438D02*
X43248571Y-63079819D01*
X43248571Y-63079819D02*
X43439047Y-63079819D01*
X43439047Y-63079819D02*
X43534285Y-63127438D01*
X43534285Y-63127438D02*
X43629523Y-63222676D01*
X43629523Y-63222676D02*
X43677142Y-63413152D01*
X43677142Y-63413152D02*
X43677142Y-63746485D01*
X43677142Y-63746485D02*
X43629523Y-63936961D01*
X43629523Y-63936961D02*
X43534285Y-64032200D01*
X43534285Y-64032200D02*
X43439047Y-64079819D01*
X43439047Y-64079819D02*
X43248571Y-64079819D01*
X44058095Y-63175057D02*
X44105714Y-63127438D01*
X44105714Y-63127438D02*
X44200952Y-63079819D01*
X44200952Y-63079819D02*
X44439047Y-63079819D01*
X44439047Y-63079819D02*
X44534285Y-63127438D01*
X44534285Y-63127438D02*
X44581904Y-63175057D01*
X44581904Y-63175057D02*
X44629523Y-63270295D01*
X44629523Y-63270295D02*
X44629523Y-63365533D01*
X44629523Y-63365533D02*
X44581904Y-63508390D01*
X44581904Y-63508390D02*
X44010476Y-64079819D01*
X44010476Y-64079819D02*
X44629523Y-64079819D01*
X46583333Y-66774819D02*
X46250000Y-66298628D01*
X46011905Y-66774819D02*
X46011905Y-65774819D01*
X46011905Y-65774819D02*
X46392857Y-65774819D01*
X46392857Y-65774819D02*
X46488095Y-65822438D01*
X46488095Y-65822438D02*
X46535714Y-65870057D01*
X46535714Y-65870057D02*
X46583333Y-65965295D01*
X46583333Y-65965295D02*
X46583333Y-66108152D01*
X46583333Y-66108152D02*
X46535714Y-66203390D01*
X46535714Y-66203390D02*
X46488095Y-66251009D01*
X46488095Y-66251009D02*
X46392857Y-66298628D01*
X46392857Y-66298628D02*
X46011905Y-66298628D01*
X47488095Y-65774819D02*
X47011905Y-65774819D01*
X47011905Y-65774819D02*
X46964286Y-66251009D01*
X46964286Y-66251009D02*
X47011905Y-66203390D01*
X47011905Y-66203390D02*
X47107143Y-66155771D01*
X47107143Y-66155771D02*
X47345238Y-66155771D01*
X47345238Y-66155771D02*
X47440476Y-66203390D01*
X47440476Y-66203390D02*
X47488095Y-66251009D01*
X47488095Y-66251009D02*
X47535714Y-66346247D01*
X47535714Y-66346247D02*
X47535714Y-66584342D01*
X47535714Y-66584342D02*
X47488095Y-66679580D01*
X47488095Y-66679580D02*
X47440476Y-66727200D01*
X47440476Y-66727200D02*
X47345238Y-66774819D01*
X47345238Y-66774819D02*
X47107143Y-66774819D01*
X47107143Y-66774819D02*
X47011905Y-66727200D01*
X47011905Y-66727200D02*
X46964286Y-66679580D01*
X36416666Y-65704819D02*
X36416666Y-66419104D01*
X36416666Y-66419104D02*
X36369047Y-66561961D01*
X36369047Y-66561961D02*
X36273809Y-66657200D01*
X36273809Y-66657200D02*
X36130952Y-66704819D01*
X36130952Y-66704819D02*
X36035714Y-66704819D01*
X36845238Y-65800057D02*
X36892857Y-65752438D01*
X36892857Y-65752438D02*
X36988095Y-65704819D01*
X36988095Y-65704819D02*
X37226190Y-65704819D01*
X37226190Y-65704819D02*
X37321428Y-65752438D01*
X37321428Y-65752438D02*
X37369047Y-65800057D01*
X37369047Y-65800057D02*
X37416666Y-65895295D01*
X37416666Y-65895295D02*
X37416666Y-65990533D01*
X37416666Y-65990533D02*
X37369047Y-66133390D01*
X37369047Y-66133390D02*
X36797619Y-66704819D01*
X36797619Y-66704819D02*
X37416666Y-66704819D01*
D11*
%TO.C,R6*%
X46488748Y-71015000D02*
X47011252Y-71015000D01*
X46488748Y-72485000D02*
X47011252Y-72485000D01*
%TO.C,U3*%
X43215000Y-43675000D02*
X43215000Y-46675000D01*
X45485000Y-43675000D02*
X45485000Y-46675000D01*
X45680000Y-43155000D02*
X45400000Y-43155000D01*
X45400000Y-42875000D01*
X45680000Y-43155000D01*
G36*
X45680000Y-43155000D02*
G01*
X45400000Y-43155000D01*
X45400000Y-42875000D01*
X45680000Y-43155000D01*
G37*
%TO.C,R4*%
X48564564Y-34765000D02*
X48110436Y-34765000D01*
X48564564Y-36235000D02*
X48110436Y-36235000D01*
%TO.C,J1*%
X55060000Y-37395000D02*
X55060000Y-39395000D01*
X55060000Y-41295000D02*
X55060000Y-43195000D01*
X55060000Y-43195000D02*
X64460000Y-43195000D01*
X64460000Y-37395000D02*
X64460000Y-39395000D01*
X64460000Y-41295000D02*
X64460000Y-43195000D01*
%TO.C,U2*%
X69862500Y-34640000D02*
X69062500Y-34640000D01*
X69862500Y-34640000D02*
X70662500Y-34640000D01*
X69862500Y-37760000D02*
X69062500Y-37760000D01*
X69862500Y-37760000D02*
X70662500Y-37760000D01*
X71402500Y-38040000D02*
X70922500Y-38040000D01*
X71162500Y-37710000D01*
X71402500Y-38040000D01*
G36*
X71402500Y-38040000D02*
G01*
X70922500Y-38040000D01*
X71162500Y-37710000D01*
X71402500Y-38040000D01*
G37*
D12*
%TO.C,U4*%
X43496000Y-50324750D02*
X43877000Y-50324750D01*
X43496000Y-50705750D02*
X43496000Y-50324750D01*
D11*
X43750000Y-50578750D02*
X54750000Y-50578750D01*
X43750000Y-62178750D02*
X43750000Y-50578750D01*
X54750000Y-50578750D02*
X54750000Y-62178750D01*
X54750000Y-62178750D02*
X43750000Y-62178750D01*
%TO.C,R7*%
X49011252Y-45765000D02*
X48488748Y-45765000D01*
X49011252Y-47235000D02*
X48488748Y-47235000D01*
%TO.C,SW1*%
X48900000Y-65950000D02*
X49900000Y-65950000D01*
X48900000Y-66950000D02*
X48900000Y-65950000D01*
X50900000Y-67950000D02*
X50900000Y-70550000D01*
X56900000Y-66000000D02*
X51100000Y-66000000D01*
X57000000Y-72500000D02*
X51000000Y-72500000D01*
X57100000Y-67950000D02*
X57100000Y-70550000D01*
%TO.C,D1*%
X47250000Y-39460000D02*
X49935000Y-39460000D01*
X49935000Y-37540000D02*
X47250000Y-37540000D01*
X49935000Y-39460000D02*
X49935000Y-37540000D01*
%TO.C,R3*%
X52639564Y-34815000D02*
X52185436Y-34815000D01*
X52639564Y-36285000D02*
X52185436Y-36285000D01*
%TO.C,U1*%
X59800000Y-47550000D02*
X59800000Y-49050000D01*
X59800000Y-65950000D02*
X59800000Y-64450000D01*
X59800000Y-65950000D02*
X60800000Y-65950000D01*
X60800000Y-47550000D02*
X59800000Y-47550000D01*
X85650000Y-47550000D02*
X79450000Y-47550000D01*
X85650000Y-47550000D02*
X85650000Y-65950000D01*
X85650000Y-65950000D02*
X79450000Y-65950000D01*
X79275000Y-47550000D02*
X78775000Y-47550000D01*
X78775000Y-47050000D01*
X79275000Y-47550000D01*
G36*
X79275000Y-47550000D02*
G01*
X78775000Y-47550000D01*
X78775000Y-47050000D01*
X79275000Y-47550000D01*
G37*
%TO.C,C5*%
X44971252Y-34765000D02*
X44448748Y-34765000D01*
X44971252Y-36235000D02*
X44448748Y-36235000D01*
%TO.C,Q1*%
X49562500Y-40640000D02*
X48912500Y-40640000D01*
X49562500Y-40640000D02*
X50212500Y-40640000D01*
X49562500Y-43760000D02*
X48912500Y-43760000D01*
X49562500Y-43760000D02*
X50212500Y-43760000D01*
X50965000Y-44040000D02*
X50485000Y-44040000D01*
X50725000Y-43710000D01*
X50965000Y-44040000D01*
G36*
X50965000Y-44040000D02*
G01*
X50485000Y-44040000D01*
X50725000Y-43710000D01*
X50965000Y-44040000D01*
G37*
%TO.C,C4*%
X76721252Y-35515000D02*
X76198748Y-35515000D01*
X76721252Y-36985000D02*
X76198748Y-36985000D01*
%TO.C,C1*%
X74665000Y-40188748D02*
X74665000Y-40711252D01*
X76135000Y-40188748D02*
X76135000Y-40711252D01*
%TO.C,R1*%
X67165000Y-44022936D02*
X67165000Y-44477064D01*
X68635000Y-44022936D02*
X68635000Y-44477064D01*
%TO.C,C6*%
X39265000Y-62938748D02*
X39265000Y-63461252D01*
X40735000Y-62938748D02*
X40735000Y-63461252D01*
%TO.C,C2*%
X72015000Y-43988748D02*
X72015000Y-44511252D01*
X73485000Y-43988748D02*
X73485000Y-44511252D01*
%TO.C,R2*%
X52639564Y-37765000D02*
X52185436Y-37765000D01*
X52639564Y-39235000D02*
X52185436Y-39235000D01*
%TO.C,C3*%
X76915000Y-43988748D02*
X76915000Y-44511252D01*
X78385000Y-43988748D02*
X78385000Y-44511252D01*
%TO.C,Q2*%
X43820000Y-64465000D02*
X43170000Y-64465000D01*
X43820000Y-64465000D02*
X44470000Y-64465000D01*
X43820000Y-67585000D02*
X43170000Y-67585000D01*
X43820000Y-67585000D02*
X44470000Y-67585000D01*
X42657500Y-64515000D02*
X42417500Y-64185000D01*
X42897500Y-64185000D01*
X42657500Y-64515000D01*
G36*
X42657500Y-64515000D02*
G01*
X42417500Y-64185000D01*
X42897500Y-64185000D01*
X42657500Y-64515000D01*
G37*
%TO.C,R5*%
X46488748Y-67265000D02*
X47011252Y-67265000D01*
X46488748Y-68735000D02*
X47011252Y-68735000D01*
%TO.C,J2*%
X36890000Y-67940000D02*
X37840000Y-67940000D01*
X36890000Y-68390000D02*
X36890000Y-67940000D01*
X36890000Y-71910000D02*
X36890000Y-72360000D01*
X36890000Y-72360000D02*
X41360000Y-72360000D01*
X37840000Y-67940000D02*
X37840000Y-66450000D01*
X41360000Y-67940000D02*
X40410000Y-67940000D01*
X41360000Y-68390000D02*
X41360000Y-67940000D01*
X41360000Y-72360000D02*
X41360000Y-71910000D01*
%TD*%
M02*
