M48
; DRILL file {KiCad 9.0.3} date 2026-06-10T11:00:17+0530
; FORMAT={-:-/ absolute / metric / decimal}
; #@! TF.CreationDate,2026-06-10T11:00:17+05:30
; #@! TF.GenerationSoftware,Kicad,Pcbnew,9.0.3
; #@! TF.FileFunction,MixedPlating,1,4
FMAT,2
METRIC
; #@! TA.AperFunction,Plated,PTH,ComponentDrill
T1C0.200
; #@! TA.AperFunction,Plated,PTH,ViaDrill
T2C0.300
; #@! TA.AperFunction,Plated,PTH,ViaDrill
T3C0.400
; #@! TA.AperFunction,Plated,PTH,ComponentDrill
T4C0.600
; #@! TA.AperFunction,NonPlated,NPTH,ComponentDrill
T5C0.650
%
G90
G05
T1
X68.89Y-54.55
X68.89Y-55.95
X69.59Y-53.85
X69.59Y-55.25
X69.59Y-56.65
X70.29Y-54.55
X70.29Y-55.95
X70.99Y-53.85
X70.99Y-55.25
X70.99Y-56.65
X71.69Y-54.55
X71.69Y-55.95
T2
X37.25Y-78.5
X37.25Y-87.25
X37.25Y-96.0
X37.25Y-104.75
X38.75Y-44.5
X39.75Y-69.0
X40.0Y-65.25
X40.25Y-49.75
X40.25Y-61.0
X42.75Y-59.0
X42.75Y-66.25
X45.25Y-83.0
X45.25Y-87.25
X45.25Y-96.0
X45.25Y-104.75
X45.75Y-37.0
X47.25Y-87.25
X47.5Y-96.0
X47.5Y-104.75
X48.5Y-66.25
X49.75Y-47.75
X51.5Y-35.55
X51.5Y-38.5
X53.0Y-40.75
X54.0Y-68.25
X55.5Y-83.0
X55.5Y-87.25
X55.5Y-96.0
X55.75Y-104.75
X57.75Y-83.0
X57.75Y-87.25
X57.75Y-96.0
X57.75Y-104.75
X58.0Y-64.25
X58.5Y-36.5
X60.25Y-42.75
X60.25Y-45.75
X60.25Y-49.765
X61.5Y-36.5
X61.75Y-62.75
X65.75Y-87.25
X65.75Y-96.0
X66.0Y-104.75
X67.85Y-48.0
X68.0Y-87.25
X68.0Y-96.0
X68.0Y-104.75
X69.12Y-48.0
X69.75Y-36.25
X70.39Y-48.0
X71.0Y-37.15
X71.66Y-48.0
X72.75Y-42.25
X72.93Y-48.0
X73.75Y-39.5
X74.0Y-36.25
X74.2Y-48.0
X74.25Y-60.5
X75.47Y-48.0
X78.0Y-49.5
T3
X39.0Y-46.75
X42.25Y-46.75
X67.9Y-43.337
X72.75Y-45.2
X76.74Y-48.0
T5
X56.87Y-36.695
X62.65Y-36.695
T4
G00X55.44Y-35.615
M15
G01X55.44Y-36.715
M16
G05
G00X55.44Y-40.045
M15
G01X55.44Y-40.645
M16
G05
G00X64.08Y-35.615
M15
G01X64.08Y-36.715
M16
G05
G00X64.08Y-40.045
M15
G01X64.08Y-40.645
M16
G05
M30
