%TF.GenerationSoftware,KiCad,Pcbnew,9.0.3*%
%TF.CreationDate,2026-06-10T10:59:13+05:30*%
%TF.ProjectId,meshtalk_t9,6d657368-7461-46c6-9b5f-74392e6b6963,rev?*%
%TF.SameCoordinates,Original*%
%TF.FileFunction,Paste,Bot*%
%TF.FilePolarity,Positive*%
%FSLAX46Y46*%
G04 Gerber Fmt 4.6, Leading zero omitted, Abs format (unit mm)*
G04 Created by KiCad (PCBNEW 9.0.3) date 2026-06-10 10:59:13*
%MOMM*%
%LPD*%
G01*
G04 APERTURE LIST*
%ADD10R,1.600000X1.400000*%
G04 APERTURE END LIST*
D10*
%TO.C,SW3*%
X65750000Y-78500000D03*
X57750000Y-78500000D03*
X65750000Y-83000000D03*
X57750000Y-83000000D03*
%TD*%
%TO.C,SW14*%
X76000000Y-104750000D03*
X68000000Y-104750000D03*
X76000000Y-109250000D03*
X68000000Y-109250000D03*
%TD*%
%TO.C,SW12*%
X55500000Y-96000000D03*
X47500000Y-96000000D03*
X55500000Y-100500000D03*
X47500000Y-100500000D03*
%TD*%
%TO.C,SW9*%
X45250000Y-87250000D03*
X37250000Y-87250000D03*
X45250000Y-91750000D03*
X37250000Y-91750000D03*
%TD*%
%TO.C,SW2*%
X76000000Y-78500000D03*
X68000000Y-78500000D03*
X76000000Y-83000000D03*
X68000000Y-83000000D03*
%TD*%
%TO.C,SW17*%
X45250000Y-104750000D03*
X37250000Y-104750000D03*
X45250000Y-109250000D03*
X37250000Y-109250000D03*
%TD*%
%TO.C,SW13*%
X45250000Y-96000000D03*
X37250000Y-96000000D03*
X45250000Y-100500000D03*
X37250000Y-100500000D03*
%TD*%
%TO.C,SW10*%
X76000000Y-96000000D03*
X68000000Y-96000000D03*
X76000000Y-100500000D03*
X68000000Y-100500000D03*
%TD*%
%TO.C,SW7*%
X65750000Y-87250000D03*
X57750000Y-87250000D03*
X65750000Y-91750000D03*
X57750000Y-91750000D03*
%TD*%
%TO.C,SW16*%
X55500000Y-104750000D03*
X47500000Y-104750000D03*
X55500000Y-109250000D03*
X47500000Y-109250000D03*
%TD*%
%TO.C,SW6*%
X76000000Y-87250000D03*
X68000000Y-87250000D03*
X76000000Y-91750000D03*
X68000000Y-91750000D03*
%TD*%
%TO.C,SW8*%
X55500000Y-87250000D03*
X47500000Y-87250000D03*
X55500000Y-91750000D03*
X47500000Y-91750000D03*
%TD*%
%TO.C,SW4*%
X55500000Y-78500000D03*
X47500000Y-78500000D03*
X55500000Y-83000000D03*
X47500000Y-83000000D03*
%TD*%
%TO.C,SW11*%
X65750000Y-96000000D03*
X57750000Y-96000000D03*
X65750000Y-100500000D03*
X57750000Y-100500000D03*
%TD*%
%TO.C,SW5*%
X45250000Y-78500000D03*
X37250000Y-78500000D03*
X45250000Y-83000000D03*
X37250000Y-83000000D03*
%TD*%
%TO.C,SW15*%
X65750000Y-104750000D03*
X57750000Y-104750000D03*
X65750000Y-109250000D03*
X57750000Y-109250000D03*
%TD*%
M02*
