%TF.GenerationSoftware,KiCad,Pcbnew,9.0.3*%
%TF.CreationDate,2026-06-10T10:59:13+05:30*%
%TF.ProjectId,meshtalk_t9,6d657368-7461-46c6-9b5f-74392e6b6963,rev?*%
%TF.SameCoordinates,Original*%
%TF.FileFunction,Copper,L2,Inr*%
%TF.FilePolarity,Positive*%
%FSLAX46Y46*%
G04 Gerber Fmt 4.6, Leading zero omitted, Abs format (unit mm)*
G04 Created by KiCad (PCBNEW 9.0.3) date 2026-06-10 10:59:13*
%MOMM*%
%LPD*%
G01*
G04 APERTURE LIST*
%TA.AperFunction,HeatsinkPad*%
%ADD10O,1.000000X2.100000*%
%TD*%
%TA.AperFunction,HeatsinkPad*%
%ADD11O,1.000000X1.600000*%
%TD*%
%TA.AperFunction,HeatsinkPad*%
%ADD12C,0.600000*%
%TD*%
%TA.AperFunction,ViaPad*%
%ADD13C,0.800000*%
%TD*%
%TA.AperFunction,ViaPad*%
%ADD14C,0.600000*%
%TD*%
G04 APERTURE END LIST*
D10*
%TO.N,Net-(J1-SHIELD)*%
%TO.C,J1*%
X55440000Y-36165000D03*
D11*
X55440000Y-40345000D03*
D10*
X64080000Y-36165000D03*
D11*
X64080000Y-40345000D03*
%TD*%
D12*
%TO.N,GND*%
%TO.C,U1*%
X70990000Y-53850000D03*
X69590000Y-53850000D03*
X71690000Y-54550000D03*
X70290000Y-54550000D03*
X68890000Y-54550000D03*
X70990000Y-55250000D03*
X69590000Y-55250000D03*
X71690000Y-55950000D03*
X70290000Y-55950000D03*
X68890000Y-55950000D03*
X70990000Y-56650000D03*
X69590000Y-56650000D03*
%TD*%
D13*
%TO.N,+3V3*%
X39000000Y-46750000D03*
X42250000Y-46750000D03*
X72750000Y-45200000D03*
X67900000Y-43337500D03*
X76740000Y-48000000D03*
D14*
%TO.N,GND*%
X72750000Y-42250000D03*
X42750000Y-59000000D03*
X40000000Y-65250000D03*
X74250000Y-60500000D03*
X78000000Y-49500000D03*
X39750000Y-69000000D03*
X38750000Y-44500000D03*
X45750000Y-37000000D03*
X73750000Y-39500000D03*
X42750000Y-66250000D03*
X74000000Y-36250000D03*
X49750000Y-47750000D03*
X69750000Y-36250000D03*
X54000000Y-68250000D03*
%TO.N,Net-(U1-EN)*%
X75470000Y-48000000D03*
X58000000Y-64250000D03*
%TO.N,/Power_Management/V_SYS*%
X53000000Y-40750000D03*
X71000000Y-37150000D03*
%TO.N,Net-(J1-CC2)*%
X51500000Y-38500000D03*
X61500000Y-36500000D03*
%TO.N,/MCU_Core/USB_D+*%
X60250000Y-42750000D03*
X60250000Y-45750000D03*
%TO.N,Net-(J1-CC1)*%
X51500000Y-35550000D03*
X58500000Y-36500000D03*
%TO.N,/MCU_Core/KB_C1*%
X61750000Y-62750000D03*
%TO.N,/MCU_Core/KB_R1*%
X37250000Y-78500000D03*
%TO.N,/MCU_Core/KB_C2*%
X57750000Y-83000000D03*
%TO.N,/MCU_Core/KB_C3*%
X55500000Y-83000000D03*
%TO.N,/MCU_Core/KB_C4*%
X45250000Y-83000000D03*
%TO.N,/MCU_Core/KB_R2*%
X55500000Y-87250000D03*
X57750000Y-87250000D03*
X68000000Y-87250000D03*
X37250000Y-87250000D03*
X47250000Y-87250000D03*
X45250000Y-87250000D03*
X65750000Y-87250000D03*
%TO.N,/MCU_Core/KB_R3*%
X47500000Y-96000000D03*
X55500000Y-96000000D03*
X65750000Y-96000000D03*
X45250000Y-96000000D03*
X68000000Y-96000000D03*
X37250000Y-96000000D03*
X57750000Y-96000000D03*
%TO.N,/MCU_Core/KB_R4*%
X37250000Y-104750000D03*
X57750000Y-104750000D03*
X66000000Y-104750000D03*
X55750000Y-104750000D03*
X68000000Y-104750000D03*
X47500000Y-104750000D03*
X45250000Y-104750000D03*
%TO.N,/MCU_Core/TFT_DC*%
X71660000Y-48000000D03*
%TO.N,/MCU_Core/TFT_RST*%
X70390000Y-48000000D03*
%TO.N,/MCU_Core/DISPLAY_CS*%
X72930000Y-48000000D03*
%TO.N,/MCU_Core/TFT_BL*%
X74200000Y-48000000D03*
%TO.N,/MCU_Core/TFT_MOSI*%
X69120000Y-48000000D03*
%TO.N,/MCU_Core/TFT_SCK*%
X67850000Y-48000000D03*
%TO.N,/MCU_Core/BATTERY_PIN*%
X48500000Y-66250000D03*
X40250000Y-61000000D03*
X60250000Y-49765000D03*
X40250000Y-49750000D03*
%TD*%
%TA.AperFunction,Conductor*%
%TO.N,GND*%
G36*
X78942539Y-33020185D02*
G01*
X78988294Y-33072989D01*
X78999500Y-33124500D01*
X78999500Y-111125500D01*
X78979815Y-111192539D01*
X78927011Y-111238294D01*
X78875500Y-111249500D01*
X34374500Y-111249500D01*
X34307461Y-111229815D01*
X34261706Y-111177011D01*
X34250500Y-111125500D01*
X34250500Y-104671153D01*
X36449500Y-104671153D01*
X36449500Y-104828846D01*
X36480261Y-104983489D01*
X36480264Y-104983501D01*
X36540602Y-105129172D01*
X36540609Y-105129185D01*
X36628210Y-105260288D01*
X36628213Y-105260292D01*
X36739707Y-105371786D01*
X36739711Y-105371789D01*
X36870814Y-105459390D01*
X36870827Y-105459397D01*
X37016498Y-105519735D01*
X37016503Y-105519737D01*
X37171153Y-105550499D01*
X37171156Y-105550500D01*
X37171158Y-105550500D01*
X37328844Y-105550500D01*
X37328845Y-105550499D01*
X37483497Y-105519737D01*
X37629179Y-105459394D01*
X37760289Y-105371789D01*
X37871789Y-105260289D01*
X37959394Y-105129179D01*
X38019737Y-104983497D01*
X38050500Y-104828842D01*
X38050500Y-104671158D01*
X38050500Y-104671155D01*
X38050499Y-104671153D01*
X44449500Y-104671153D01*
X44449500Y-104828846D01*
X44480261Y-104983489D01*
X44480264Y-104983501D01*
X44540602Y-105129172D01*
X44540609Y-105129185D01*
X44628210Y-105260288D01*
X44628213Y-105260292D01*
X44739707Y-105371786D01*
X44739711Y-105371789D01*
X44870814Y-105459390D01*
X44870827Y-105459397D01*
X45016498Y-105519735D01*
X45016503Y-105519737D01*
X45171153Y-105550499D01*
X45171156Y-105550500D01*
X45171158Y-105550500D01*
X45328844Y-105550500D01*
X45328845Y-105550499D01*
X45483497Y-105519737D01*
X45629179Y-105459394D01*
X45760289Y-105371789D01*
X45871789Y-105260289D01*
X45959394Y-105129179D01*
X46019737Y-104983497D01*
X46050500Y-104828842D01*
X46050500Y-104671158D01*
X46050500Y-104671155D01*
X46050499Y-104671153D01*
X46699500Y-104671153D01*
X46699500Y-104828846D01*
X46730261Y-104983489D01*
X46730264Y-104983501D01*
X46790602Y-105129172D01*
X46790609Y-105129185D01*
X46878210Y-105260288D01*
X46878213Y-105260292D01*
X46989707Y-105371786D01*
X46989711Y-105371789D01*
X47120814Y-105459390D01*
X47120827Y-105459397D01*
X47266498Y-105519735D01*
X47266503Y-105519737D01*
X47421153Y-105550499D01*
X47421156Y-105550500D01*
X47421158Y-105550500D01*
X47578844Y-105550500D01*
X47578845Y-105550499D01*
X47733497Y-105519737D01*
X47879179Y-105459394D01*
X48010289Y-105371789D01*
X48121789Y-105260289D01*
X48209394Y-105129179D01*
X48269737Y-104983497D01*
X48300500Y-104828842D01*
X48300500Y-104671158D01*
X48300500Y-104671155D01*
X48300499Y-104671153D01*
X54949500Y-104671153D01*
X54949500Y-104828846D01*
X54980261Y-104983489D01*
X54980264Y-104983501D01*
X55040602Y-105129172D01*
X55040609Y-105129185D01*
X55128210Y-105260288D01*
X55128213Y-105260292D01*
X55239707Y-105371786D01*
X55239711Y-105371789D01*
X55370814Y-105459390D01*
X55370827Y-105459397D01*
X55516498Y-105519735D01*
X55516503Y-105519737D01*
X55671153Y-105550499D01*
X55671156Y-105550500D01*
X55671158Y-105550500D01*
X55828844Y-105550500D01*
X55828845Y-105550499D01*
X55983497Y-105519737D01*
X56129179Y-105459394D01*
X56260289Y-105371789D01*
X56371789Y-105260289D01*
X56459394Y-105129179D01*
X56519737Y-104983497D01*
X56550500Y-104828842D01*
X56550500Y-104671158D01*
X56550500Y-104671155D01*
X56550499Y-104671153D01*
X56949500Y-104671153D01*
X56949500Y-104828846D01*
X56980261Y-104983489D01*
X56980264Y-104983501D01*
X57040602Y-105129172D01*
X57040609Y-105129185D01*
X57128210Y-105260288D01*
X57128213Y-105260292D01*
X57239707Y-105371786D01*
X57239711Y-105371789D01*
X57370814Y-105459390D01*
X57370827Y-105459397D01*
X57516498Y-105519735D01*
X57516503Y-105519737D01*
X57671153Y-105550499D01*
X57671156Y-105550500D01*
X57671158Y-105550500D01*
X57828844Y-105550500D01*
X57828845Y-105550499D01*
X57983497Y-105519737D01*
X58129179Y-105459394D01*
X58260289Y-105371789D01*
X58371789Y-105260289D01*
X58459394Y-105129179D01*
X58519737Y-104983497D01*
X58550500Y-104828842D01*
X58550500Y-104671158D01*
X58550500Y-104671155D01*
X58550499Y-104671153D01*
X65199500Y-104671153D01*
X65199500Y-104828846D01*
X65230261Y-104983489D01*
X65230264Y-104983501D01*
X65290602Y-105129172D01*
X65290609Y-105129185D01*
X65378210Y-105260288D01*
X65378213Y-105260292D01*
X65489707Y-105371786D01*
X65489711Y-105371789D01*
X65620814Y-105459390D01*
X65620827Y-105459397D01*
X65766498Y-105519735D01*
X65766503Y-105519737D01*
X65921153Y-105550499D01*
X65921156Y-105550500D01*
X65921158Y-105550500D01*
X66078844Y-105550500D01*
X66078845Y-105550499D01*
X66233497Y-105519737D01*
X66379179Y-105459394D01*
X66510289Y-105371789D01*
X66621789Y-105260289D01*
X66709394Y-105129179D01*
X66769737Y-104983497D01*
X66800500Y-104828842D01*
X66800500Y-104671158D01*
X66800500Y-104671155D01*
X66800499Y-104671153D01*
X67199500Y-104671153D01*
X67199500Y-104828846D01*
X67230261Y-104983489D01*
X67230264Y-104983501D01*
X67290602Y-105129172D01*
X67290609Y-105129185D01*
X67378210Y-105260288D01*
X67378213Y-105260292D01*
X67489707Y-105371786D01*
X67489711Y-105371789D01*
X67620814Y-105459390D01*
X67620827Y-105459397D01*
X67766498Y-105519735D01*
X67766503Y-105519737D01*
X67921153Y-105550499D01*
X67921156Y-105550500D01*
X67921158Y-105550500D01*
X68078844Y-105550500D01*
X68078845Y-105550499D01*
X68233497Y-105519737D01*
X68379179Y-105459394D01*
X68510289Y-105371789D01*
X68621789Y-105260289D01*
X68709394Y-105129179D01*
X68769737Y-104983497D01*
X68800500Y-104828842D01*
X68800500Y-104671158D01*
X68800500Y-104671155D01*
X68800499Y-104671153D01*
X68769738Y-104516510D01*
X68769737Y-104516503D01*
X68769735Y-104516498D01*
X68709397Y-104370827D01*
X68709390Y-104370814D01*
X68621789Y-104239711D01*
X68621786Y-104239707D01*
X68510292Y-104128213D01*
X68510288Y-104128210D01*
X68379185Y-104040609D01*
X68379172Y-104040602D01*
X68233501Y-103980264D01*
X68233489Y-103980261D01*
X68078845Y-103949500D01*
X68078842Y-103949500D01*
X67921158Y-103949500D01*
X67921155Y-103949500D01*
X67766510Y-103980261D01*
X67766498Y-103980264D01*
X67620827Y-104040602D01*
X67620814Y-104040609D01*
X67489711Y-104128210D01*
X67489707Y-104128213D01*
X67378213Y-104239707D01*
X67378210Y-104239711D01*
X67290609Y-104370814D01*
X67290602Y-104370827D01*
X67230264Y-104516498D01*
X67230261Y-104516510D01*
X67199500Y-104671153D01*
X66800499Y-104671153D01*
X66769738Y-104516510D01*
X66769737Y-104516503D01*
X66769735Y-104516498D01*
X66709397Y-104370827D01*
X66709390Y-104370814D01*
X66621789Y-104239711D01*
X66621786Y-104239707D01*
X66510292Y-104128213D01*
X66510288Y-104128210D01*
X66379185Y-104040609D01*
X66379172Y-104040602D01*
X66233501Y-103980264D01*
X66233489Y-103980261D01*
X66078845Y-103949500D01*
X66078842Y-103949500D01*
X65921158Y-103949500D01*
X65921155Y-103949500D01*
X65766510Y-103980261D01*
X65766498Y-103980264D01*
X65620827Y-104040602D01*
X65620814Y-104040609D01*
X65489711Y-104128210D01*
X65489707Y-104128213D01*
X65378213Y-104239707D01*
X65378210Y-104239711D01*
X65290609Y-104370814D01*
X65290602Y-104370827D01*
X65230264Y-104516498D01*
X65230261Y-104516510D01*
X65199500Y-104671153D01*
X58550499Y-104671153D01*
X58519738Y-104516510D01*
X58519737Y-104516503D01*
X58519735Y-104516498D01*
X58459397Y-104370827D01*
X58459390Y-104370814D01*
X58371789Y-104239711D01*
X58371786Y-104239707D01*
X58260292Y-104128213D01*
X58260288Y-104128210D01*
X58129185Y-104040609D01*
X58129172Y-104040602D01*
X57983501Y-103980264D01*
X57983489Y-103980261D01*
X57828845Y-103949500D01*
X57828842Y-103949500D01*
X57671158Y-103949500D01*
X57671155Y-103949500D01*
X57516510Y-103980261D01*
X57516498Y-103980264D01*
X57370827Y-104040602D01*
X57370814Y-104040609D01*
X57239711Y-104128210D01*
X57239707Y-104128213D01*
X57128213Y-104239707D01*
X57128210Y-104239711D01*
X57040609Y-104370814D01*
X57040602Y-104370827D01*
X56980264Y-104516498D01*
X56980261Y-104516510D01*
X56949500Y-104671153D01*
X56550499Y-104671153D01*
X56519738Y-104516510D01*
X56519737Y-104516503D01*
X56519735Y-104516498D01*
X56459397Y-104370827D01*
X56459390Y-104370814D01*
X56371789Y-104239711D01*
X56371786Y-104239707D01*
X56260292Y-104128213D01*
X56260288Y-104128210D01*
X56129185Y-104040609D01*
X56129172Y-104040602D01*
X55983501Y-103980264D01*
X55983489Y-103980261D01*
X55828845Y-103949500D01*
X55828842Y-103949500D01*
X55671158Y-103949500D01*
X55671155Y-103949500D01*
X55516510Y-103980261D01*
X55516498Y-103980264D01*
X55370827Y-104040602D01*
X55370814Y-104040609D01*
X55239711Y-104128210D01*
X55239707Y-104128213D01*
X55128213Y-104239707D01*
X55128210Y-104239711D01*
X55040609Y-104370814D01*
X55040602Y-104370827D01*
X54980264Y-104516498D01*
X54980261Y-104516510D01*
X54949500Y-104671153D01*
X48300499Y-104671153D01*
X48269738Y-104516510D01*
X48269737Y-104516503D01*
X48269735Y-104516498D01*
X48209397Y-104370827D01*
X48209390Y-104370814D01*
X48121789Y-104239711D01*
X48121786Y-104239707D01*
X48010292Y-104128213D01*
X48010288Y-104128210D01*
X47879185Y-104040609D01*
X47879172Y-104040602D01*
X47733501Y-103980264D01*
X47733489Y-103980261D01*
X47578845Y-103949500D01*
X47578842Y-103949500D01*
X47421158Y-103949500D01*
X47421155Y-103949500D01*
X47266510Y-103980261D01*
X47266498Y-103980264D01*
X47120827Y-104040602D01*
X47120814Y-104040609D01*
X46989711Y-104128210D01*
X46989707Y-104128213D01*
X46878213Y-104239707D01*
X46878210Y-104239711D01*
X46790609Y-104370814D01*
X46790602Y-104370827D01*
X46730264Y-104516498D01*
X46730261Y-104516510D01*
X46699500Y-104671153D01*
X46050499Y-104671153D01*
X46019738Y-104516510D01*
X46019737Y-104516503D01*
X46019735Y-104516498D01*
X45959397Y-104370827D01*
X45959390Y-104370814D01*
X45871789Y-104239711D01*
X45871786Y-104239707D01*
X45760292Y-104128213D01*
X45760288Y-104128210D01*
X45629185Y-104040609D01*
X45629172Y-104040602D01*
X45483501Y-103980264D01*
X45483489Y-103980261D01*
X45328845Y-103949500D01*
X45328842Y-103949500D01*
X45171158Y-103949500D01*
X45171155Y-103949500D01*
X45016510Y-103980261D01*
X45016498Y-103980264D01*
X44870827Y-104040602D01*
X44870814Y-104040609D01*
X44739711Y-104128210D01*
X44739707Y-104128213D01*
X44628213Y-104239707D01*
X44628210Y-104239711D01*
X44540609Y-104370814D01*
X44540602Y-104370827D01*
X44480264Y-104516498D01*
X44480261Y-104516510D01*
X44449500Y-104671153D01*
X38050499Y-104671153D01*
X38019738Y-104516510D01*
X38019737Y-104516503D01*
X38019735Y-104516498D01*
X37959397Y-104370827D01*
X37959390Y-104370814D01*
X37871789Y-104239711D01*
X37871786Y-104239707D01*
X37760292Y-104128213D01*
X37760288Y-104128210D01*
X37629185Y-104040609D01*
X37629172Y-104040602D01*
X37483501Y-103980264D01*
X37483489Y-103980261D01*
X37328845Y-103949500D01*
X37328842Y-103949500D01*
X37171158Y-103949500D01*
X37171155Y-103949500D01*
X37016510Y-103980261D01*
X37016498Y-103980264D01*
X36870827Y-104040602D01*
X36870814Y-104040609D01*
X36739711Y-104128210D01*
X36739707Y-104128213D01*
X36628213Y-104239707D01*
X36628210Y-104239711D01*
X36540609Y-104370814D01*
X36540602Y-104370827D01*
X36480264Y-104516498D01*
X36480261Y-104516510D01*
X36449500Y-104671153D01*
X34250500Y-104671153D01*
X34250500Y-95921153D01*
X36449500Y-95921153D01*
X36449500Y-96078846D01*
X36480261Y-96233489D01*
X36480264Y-96233501D01*
X36540602Y-96379172D01*
X36540609Y-96379185D01*
X36628210Y-96510288D01*
X36628213Y-96510292D01*
X36739707Y-96621786D01*
X36739711Y-96621789D01*
X36870814Y-96709390D01*
X36870827Y-96709397D01*
X37016498Y-96769735D01*
X37016503Y-96769737D01*
X37171153Y-96800499D01*
X37171156Y-96800500D01*
X37171158Y-96800500D01*
X37328844Y-96800500D01*
X37328845Y-96800499D01*
X37483497Y-96769737D01*
X37629179Y-96709394D01*
X37760289Y-96621789D01*
X37871789Y-96510289D01*
X37959394Y-96379179D01*
X38019737Y-96233497D01*
X38050500Y-96078842D01*
X38050500Y-95921158D01*
X38050500Y-95921155D01*
X38050499Y-95921153D01*
X44449500Y-95921153D01*
X44449500Y-96078846D01*
X44480261Y-96233489D01*
X44480264Y-96233501D01*
X44540602Y-96379172D01*
X44540609Y-96379185D01*
X44628210Y-96510288D01*
X44628213Y-96510292D01*
X44739707Y-96621786D01*
X44739711Y-96621789D01*
X44870814Y-96709390D01*
X44870827Y-96709397D01*
X45016498Y-96769735D01*
X45016503Y-96769737D01*
X45171153Y-96800499D01*
X45171156Y-96800500D01*
X45171158Y-96800500D01*
X45328844Y-96800500D01*
X45328845Y-96800499D01*
X45483497Y-96769737D01*
X45629179Y-96709394D01*
X45760289Y-96621789D01*
X45871789Y-96510289D01*
X45959394Y-96379179D01*
X46019737Y-96233497D01*
X46050500Y-96078842D01*
X46050500Y-95921158D01*
X46050500Y-95921155D01*
X46050499Y-95921153D01*
X46699500Y-95921153D01*
X46699500Y-96078846D01*
X46730261Y-96233489D01*
X46730264Y-96233501D01*
X46790602Y-96379172D01*
X46790609Y-96379185D01*
X46878210Y-96510288D01*
X46878213Y-96510292D01*
X46989707Y-96621786D01*
X46989711Y-96621789D01*
X47120814Y-96709390D01*
X47120827Y-96709397D01*
X47266498Y-96769735D01*
X47266503Y-96769737D01*
X47421153Y-96800499D01*
X47421156Y-96800500D01*
X47421158Y-96800500D01*
X47578844Y-96800500D01*
X47578845Y-96800499D01*
X47733497Y-96769737D01*
X47879179Y-96709394D01*
X48010289Y-96621789D01*
X48121789Y-96510289D01*
X48209394Y-96379179D01*
X48269737Y-96233497D01*
X48300500Y-96078842D01*
X48300500Y-95921158D01*
X48300500Y-95921155D01*
X48300499Y-95921153D01*
X54699500Y-95921153D01*
X54699500Y-96078846D01*
X54730261Y-96233489D01*
X54730264Y-96233501D01*
X54790602Y-96379172D01*
X54790609Y-96379185D01*
X54878210Y-96510288D01*
X54878213Y-96510292D01*
X54989707Y-96621786D01*
X54989711Y-96621789D01*
X55120814Y-96709390D01*
X55120827Y-96709397D01*
X55266498Y-96769735D01*
X55266503Y-96769737D01*
X55421153Y-96800499D01*
X55421156Y-96800500D01*
X55421158Y-96800500D01*
X55578844Y-96800500D01*
X55578845Y-96800499D01*
X55733497Y-96769737D01*
X55879179Y-96709394D01*
X56010289Y-96621789D01*
X56121789Y-96510289D01*
X56209394Y-96379179D01*
X56269737Y-96233497D01*
X56300500Y-96078842D01*
X56300500Y-95921158D01*
X56300500Y-95921155D01*
X56300499Y-95921153D01*
X56949500Y-95921153D01*
X56949500Y-96078846D01*
X56980261Y-96233489D01*
X56980264Y-96233501D01*
X57040602Y-96379172D01*
X57040609Y-96379185D01*
X57128210Y-96510288D01*
X57128213Y-96510292D01*
X57239707Y-96621786D01*
X57239711Y-96621789D01*
X57370814Y-96709390D01*
X57370827Y-96709397D01*
X57516498Y-96769735D01*
X57516503Y-96769737D01*
X57671153Y-96800499D01*
X57671156Y-96800500D01*
X57671158Y-96800500D01*
X57828844Y-96800500D01*
X57828845Y-96800499D01*
X57983497Y-96769737D01*
X58129179Y-96709394D01*
X58260289Y-96621789D01*
X58371789Y-96510289D01*
X58459394Y-96379179D01*
X58519737Y-96233497D01*
X58550500Y-96078842D01*
X58550500Y-95921158D01*
X58550500Y-95921155D01*
X58550499Y-95921153D01*
X64949500Y-95921153D01*
X64949500Y-96078846D01*
X64980261Y-96233489D01*
X64980264Y-96233501D01*
X65040602Y-96379172D01*
X65040609Y-96379185D01*
X65128210Y-96510288D01*
X65128213Y-96510292D01*
X65239707Y-96621786D01*
X65239711Y-96621789D01*
X65370814Y-96709390D01*
X65370827Y-96709397D01*
X65516498Y-96769735D01*
X65516503Y-96769737D01*
X65671153Y-96800499D01*
X65671156Y-96800500D01*
X65671158Y-96800500D01*
X65828844Y-96800500D01*
X65828845Y-96800499D01*
X65983497Y-96769737D01*
X66129179Y-96709394D01*
X66260289Y-96621789D01*
X66371789Y-96510289D01*
X66459394Y-96379179D01*
X66519737Y-96233497D01*
X66550500Y-96078842D01*
X66550500Y-95921158D01*
X66550500Y-95921155D01*
X66550499Y-95921153D01*
X67199500Y-95921153D01*
X67199500Y-96078846D01*
X67230261Y-96233489D01*
X67230264Y-96233501D01*
X67290602Y-96379172D01*
X67290609Y-96379185D01*
X67378210Y-96510288D01*
X67378213Y-96510292D01*
X67489707Y-96621786D01*
X67489711Y-96621789D01*
X67620814Y-96709390D01*
X67620827Y-96709397D01*
X67766498Y-96769735D01*
X67766503Y-96769737D01*
X67921153Y-96800499D01*
X67921156Y-96800500D01*
X67921158Y-96800500D01*
X68078844Y-96800500D01*
X68078845Y-96800499D01*
X68233497Y-96769737D01*
X68379179Y-96709394D01*
X68510289Y-96621789D01*
X68621789Y-96510289D01*
X68709394Y-96379179D01*
X68769737Y-96233497D01*
X68800500Y-96078842D01*
X68800500Y-95921158D01*
X68800500Y-95921155D01*
X68800499Y-95921153D01*
X68769738Y-95766510D01*
X68769737Y-95766503D01*
X68769735Y-95766498D01*
X68709397Y-95620827D01*
X68709390Y-95620814D01*
X68621789Y-95489711D01*
X68621786Y-95489707D01*
X68510292Y-95378213D01*
X68510288Y-95378210D01*
X68379185Y-95290609D01*
X68379172Y-95290602D01*
X68233501Y-95230264D01*
X68233489Y-95230261D01*
X68078845Y-95199500D01*
X68078842Y-95199500D01*
X67921158Y-95199500D01*
X67921155Y-95199500D01*
X67766510Y-95230261D01*
X67766498Y-95230264D01*
X67620827Y-95290602D01*
X67620814Y-95290609D01*
X67489711Y-95378210D01*
X67489707Y-95378213D01*
X67378213Y-95489707D01*
X67378210Y-95489711D01*
X67290609Y-95620814D01*
X67290602Y-95620827D01*
X67230264Y-95766498D01*
X67230261Y-95766510D01*
X67199500Y-95921153D01*
X66550499Y-95921153D01*
X66519738Y-95766510D01*
X66519737Y-95766503D01*
X66519735Y-95766498D01*
X66459397Y-95620827D01*
X66459390Y-95620814D01*
X66371789Y-95489711D01*
X66371786Y-95489707D01*
X66260292Y-95378213D01*
X66260288Y-95378210D01*
X66129185Y-95290609D01*
X66129172Y-95290602D01*
X65983501Y-95230264D01*
X65983489Y-95230261D01*
X65828845Y-95199500D01*
X65828842Y-95199500D01*
X65671158Y-95199500D01*
X65671155Y-95199500D01*
X65516510Y-95230261D01*
X65516498Y-95230264D01*
X65370827Y-95290602D01*
X65370814Y-95290609D01*
X65239711Y-95378210D01*
X65239707Y-95378213D01*
X65128213Y-95489707D01*
X65128210Y-95489711D01*
X65040609Y-95620814D01*
X65040602Y-95620827D01*
X64980264Y-95766498D01*
X64980261Y-95766510D01*
X64949500Y-95921153D01*
X58550499Y-95921153D01*
X58519738Y-95766510D01*
X58519737Y-95766503D01*
X58519735Y-95766498D01*
X58459397Y-95620827D01*
X58459390Y-95620814D01*
X58371789Y-95489711D01*
X58371786Y-95489707D01*
X58260292Y-95378213D01*
X58260288Y-95378210D01*
X58129185Y-95290609D01*
X58129172Y-95290602D01*
X57983501Y-95230264D01*
X57983489Y-95230261D01*
X57828845Y-95199500D01*
X57828842Y-95199500D01*
X57671158Y-95199500D01*
X57671155Y-95199500D01*
X57516510Y-95230261D01*
X57516498Y-95230264D01*
X57370827Y-95290602D01*
X57370814Y-95290609D01*
X57239711Y-95378210D01*
X57239707Y-95378213D01*
X57128213Y-95489707D01*
X57128210Y-95489711D01*
X57040609Y-95620814D01*
X57040602Y-95620827D01*
X56980264Y-95766498D01*
X56980261Y-95766510D01*
X56949500Y-95921153D01*
X56300499Y-95921153D01*
X56269738Y-95766510D01*
X56269737Y-95766503D01*
X56269735Y-95766498D01*
X56209397Y-95620827D01*
X56209390Y-95620814D01*
X56121789Y-95489711D01*
X56121786Y-95489707D01*
X56010292Y-95378213D01*
X56010288Y-95378210D01*
X55879185Y-95290609D01*
X55879172Y-95290602D01*
X55733501Y-95230264D01*
X55733489Y-95230261D01*
X55578845Y-95199500D01*
X55578842Y-95199500D01*
X55421158Y-95199500D01*
X55421155Y-95199500D01*
X55266510Y-95230261D01*
X55266498Y-95230264D01*
X55120827Y-95290602D01*
X55120814Y-95290609D01*
X54989711Y-95378210D01*
X54989707Y-95378213D01*
X54878213Y-95489707D01*
X54878210Y-95489711D01*
X54790609Y-95620814D01*
X54790602Y-95620827D01*
X54730264Y-95766498D01*
X54730261Y-95766510D01*
X54699500Y-95921153D01*
X48300499Y-95921153D01*
X48269738Y-95766510D01*
X48269737Y-95766503D01*
X48269735Y-95766498D01*
X48209397Y-95620827D01*
X48209390Y-95620814D01*
X48121789Y-95489711D01*
X48121786Y-95489707D01*
X48010292Y-95378213D01*
X48010288Y-95378210D01*
X47879185Y-95290609D01*
X47879172Y-95290602D01*
X47733501Y-95230264D01*
X47733489Y-95230261D01*
X47578845Y-95199500D01*
X47578842Y-95199500D01*
X47421158Y-95199500D01*
X47421155Y-95199500D01*
X47266510Y-95230261D01*
X47266498Y-95230264D01*
X47120827Y-95290602D01*
X47120814Y-95290609D01*
X46989711Y-95378210D01*
X46989707Y-95378213D01*
X46878213Y-95489707D01*
X46878210Y-95489711D01*
X46790609Y-95620814D01*
X46790602Y-95620827D01*
X46730264Y-95766498D01*
X46730261Y-95766510D01*
X46699500Y-95921153D01*
X46050499Y-95921153D01*
X46019738Y-95766510D01*
X46019737Y-95766503D01*
X46019735Y-95766498D01*
X45959397Y-95620827D01*
X45959390Y-95620814D01*
X45871789Y-95489711D01*
X45871786Y-95489707D01*
X45760292Y-95378213D01*
X45760288Y-95378210D01*
X45629185Y-95290609D01*
X45629172Y-95290602D01*
X45483501Y-95230264D01*
X45483489Y-95230261D01*
X45328845Y-95199500D01*
X45328842Y-95199500D01*
X45171158Y-95199500D01*
X45171155Y-95199500D01*
X45016510Y-95230261D01*
X45016498Y-95230264D01*
X44870827Y-95290602D01*
X44870814Y-95290609D01*
X44739711Y-95378210D01*
X44739707Y-95378213D01*
X44628213Y-95489707D01*
X44628210Y-95489711D01*
X44540609Y-95620814D01*
X44540602Y-95620827D01*
X44480264Y-95766498D01*
X44480261Y-95766510D01*
X44449500Y-95921153D01*
X38050499Y-95921153D01*
X38019738Y-95766510D01*
X38019737Y-95766503D01*
X38019735Y-95766498D01*
X37959397Y-95620827D01*
X37959390Y-95620814D01*
X37871789Y-95489711D01*
X37871786Y-95489707D01*
X37760292Y-95378213D01*
X37760288Y-95378210D01*
X37629185Y-95290609D01*
X37629172Y-95290602D01*
X37483501Y-95230264D01*
X37483489Y-95230261D01*
X37328845Y-95199500D01*
X37328842Y-95199500D01*
X37171158Y-95199500D01*
X37171155Y-95199500D01*
X37016510Y-95230261D01*
X37016498Y-95230264D01*
X36870827Y-95290602D01*
X36870814Y-95290609D01*
X36739711Y-95378210D01*
X36739707Y-95378213D01*
X36628213Y-95489707D01*
X36628210Y-95489711D01*
X36540609Y-95620814D01*
X36540602Y-95620827D01*
X36480264Y-95766498D01*
X36480261Y-95766510D01*
X36449500Y-95921153D01*
X34250500Y-95921153D01*
X34250500Y-87171153D01*
X36449500Y-87171153D01*
X36449500Y-87328846D01*
X36480261Y-87483489D01*
X36480264Y-87483501D01*
X36540602Y-87629172D01*
X36540609Y-87629185D01*
X36628210Y-87760288D01*
X36628213Y-87760292D01*
X36739707Y-87871786D01*
X36739711Y-87871789D01*
X36870814Y-87959390D01*
X36870827Y-87959397D01*
X37016498Y-88019735D01*
X37016503Y-88019737D01*
X37171153Y-88050499D01*
X37171156Y-88050500D01*
X37171158Y-88050500D01*
X37328844Y-88050500D01*
X37328845Y-88050499D01*
X37483497Y-88019737D01*
X37629179Y-87959394D01*
X37760289Y-87871789D01*
X37871789Y-87760289D01*
X37959394Y-87629179D01*
X38019737Y-87483497D01*
X38050500Y-87328842D01*
X38050500Y-87171158D01*
X38050500Y-87171155D01*
X38050499Y-87171153D01*
X44449500Y-87171153D01*
X44449500Y-87328846D01*
X44480261Y-87483489D01*
X44480264Y-87483501D01*
X44540602Y-87629172D01*
X44540609Y-87629185D01*
X44628210Y-87760288D01*
X44628213Y-87760292D01*
X44739707Y-87871786D01*
X44739711Y-87871789D01*
X44870814Y-87959390D01*
X44870827Y-87959397D01*
X45016498Y-88019735D01*
X45016503Y-88019737D01*
X45171153Y-88050499D01*
X45171156Y-88050500D01*
X45171158Y-88050500D01*
X45328844Y-88050500D01*
X45328845Y-88050499D01*
X45483497Y-88019737D01*
X45629179Y-87959394D01*
X45760289Y-87871789D01*
X45871789Y-87760289D01*
X45959394Y-87629179D01*
X46019737Y-87483497D01*
X46050500Y-87328842D01*
X46050500Y-87171158D01*
X46050500Y-87171155D01*
X46050499Y-87171153D01*
X46449500Y-87171153D01*
X46449500Y-87328846D01*
X46480261Y-87483489D01*
X46480264Y-87483501D01*
X46540602Y-87629172D01*
X46540609Y-87629185D01*
X46628210Y-87760288D01*
X46628213Y-87760292D01*
X46739707Y-87871786D01*
X46739711Y-87871789D01*
X46870814Y-87959390D01*
X46870827Y-87959397D01*
X47016498Y-88019735D01*
X47016503Y-88019737D01*
X47171153Y-88050499D01*
X47171156Y-88050500D01*
X47171158Y-88050500D01*
X47328844Y-88050500D01*
X47328845Y-88050499D01*
X47483497Y-88019737D01*
X47629179Y-87959394D01*
X47760289Y-87871789D01*
X47871789Y-87760289D01*
X47959394Y-87629179D01*
X48019737Y-87483497D01*
X48050500Y-87328842D01*
X48050500Y-87171158D01*
X48050500Y-87171155D01*
X48050499Y-87171153D01*
X54699500Y-87171153D01*
X54699500Y-87328846D01*
X54730261Y-87483489D01*
X54730264Y-87483501D01*
X54790602Y-87629172D01*
X54790609Y-87629185D01*
X54878210Y-87760288D01*
X54878213Y-87760292D01*
X54989707Y-87871786D01*
X54989711Y-87871789D01*
X55120814Y-87959390D01*
X55120827Y-87959397D01*
X55266498Y-88019735D01*
X55266503Y-88019737D01*
X55421153Y-88050499D01*
X55421156Y-88050500D01*
X55421158Y-88050500D01*
X55578844Y-88050500D01*
X55578845Y-88050499D01*
X55733497Y-88019737D01*
X55879179Y-87959394D01*
X56010289Y-87871789D01*
X56121789Y-87760289D01*
X56209394Y-87629179D01*
X56269737Y-87483497D01*
X56300500Y-87328842D01*
X56300500Y-87171158D01*
X56300500Y-87171155D01*
X56300499Y-87171153D01*
X56949500Y-87171153D01*
X56949500Y-87328846D01*
X56980261Y-87483489D01*
X56980264Y-87483501D01*
X57040602Y-87629172D01*
X57040609Y-87629185D01*
X57128210Y-87760288D01*
X57128213Y-87760292D01*
X57239707Y-87871786D01*
X57239711Y-87871789D01*
X57370814Y-87959390D01*
X57370827Y-87959397D01*
X57516498Y-88019735D01*
X57516503Y-88019737D01*
X57671153Y-88050499D01*
X57671156Y-88050500D01*
X57671158Y-88050500D01*
X57828844Y-88050500D01*
X57828845Y-88050499D01*
X57983497Y-88019737D01*
X58129179Y-87959394D01*
X58260289Y-87871789D01*
X58371789Y-87760289D01*
X58459394Y-87629179D01*
X58519737Y-87483497D01*
X58550500Y-87328842D01*
X58550500Y-87171158D01*
X58550500Y-87171155D01*
X58550499Y-87171153D01*
X64949500Y-87171153D01*
X64949500Y-87328846D01*
X64980261Y-87483489D01*
X64980264Y-87483501D01*
X65040602Y-87629172D01*
X65040609Y-87629185D01*
X65128210Y-87760288D01*
X65128213Y-87760292D01*
X65239707Y-87871786D01*
X65239711Y-87871789D01*
X65370814Y-87959390D01*
X65370827Y-87959397D01*
X65516498Y-88019735D01*
X65516503Y-88019737D01*
X65671153Y-88050499D01*
X65671156Y-88050500D01*
X65671158Y-88050500D01*
X65828844Y-88050500D01*
X65828845Y-88050499D01*
X65983497Y-88019737D01*
X66129179Y-87959394D01*
X66260289Y-87871789D01*
X66371789Y-87760289D01*
X66459394Y-87629179D01*
X66519737Y-87483497D01*
X66550500Y-87328842D01*
X66550500Y-87171158D01*
X66550500Y-87171155D01*
X66550499Y-87171153D01*
X67199500Y-87171153D01*
X67199500Y-87328846D01*
X67230261Y-87483489D01*
X67230264Y-87483501D01*
X67290602Y-87629172D01*
X67290609Y-87629185D01*
X67378210Y-87760288D01*
X67378213Y-87760292D01*
X67489707Y-87871786D01*
X67489711Y-87871789D01*
X67620814Y-87959390D01*
X67620827Y-87959397D01*
X67766498Y-88019735D01*
X67766503Y-88019737D01*
X67921153Y-88050499D01*
X67921156Y-88050500D01*
X67921158Y-88050500D01*
X68078844Y-88050500D01*
X68078845Y-88050499D01*
X68233497Y-88019737D01*
X68379179Y-87959394D01*
X68510289Y-87871789D01*
X68621789Y-87760289D01*
X68709394Y-87629179D01*
X68769737Y-87483497D01*
X68800500Y-87328842D01*
X68800500Y-87171158D01*
X68800500Y-87171155D01*
X68800499Y-87171153D01*
X68769738Y-87016510D01*
X68769737Y-87016503D01*
X68769735Y-87016498D01*
X68709397Y-86870827D01*
X68709390Y-86870814D01*
X68621789Y-86739711D01*
X68621786Y-86739707D01*
X68510292Y-86628213D01*
X68510288Y-86628210D01*
X68379185Y-86540609D01*
X68379172Y-86540602D01*
X68233501Y-86480264D01*
X68233489Y-86480261D01*
X68078845Y-86449500D01*
X68078842Y-86449500D01*
X67921158Y-86449500D01*
X67921155Y-86449500D01*
X67766510Y-86480261D01*
X67766498Y-86480264D01*
X67620827Y-86540602D01*
X67620814Y-86540609D01*
X67489711Y-86628210D01*
X67489707Y-86628213D01*
X67378213Y-86739707D01*
X67378210Y-86739711D01*
X67290609Y-86870814D01*
X67290602Y-86870827D01*
X67230264Y-87016498D01*
X67230261Y-87016510D01*
X67199500Y-87171153D01*
X66550499Y-87171153D01*
X66519738Y-87016510D01*
X66519737Y-87016503D01*
X66519735Y-87016498D01*
X66459397Y-86870827D01*
X66459390Y-86870814D01*
X66371789Y-86739711D01*
X66371786Y-86739707D01*
X66260292Y-86628213D01*
X66260288Y-86628210D01*
X66129185Y-86540609D01*
X66129172Y-86540602D01*
X65983501Y-86480264D01*
X65983489Y-86480261D01*
X65828845Y-86449500D01*
X65828842Y-86449500D01*
X65671158Y-86449500D01*
X65671155Y-86449500D01*
X65516510Y-86480261D01*
X65516498Y-86480264D01*
X65370827Y-86540602D01*
X65370814Y-86540609D01*
X65239711Y-86628210D01*
X65239707Y-86628213D01*
X65128213Y-86739707D01*
X65128210Y-86739711D01*
X65040609Y-86870814D01*
X65040602Y-86870827D01*
X64980264Y-87016498D01*
X64980261Y-87016510D01*
X64949500Y-87171153D01*
X58550499Y-87171153D01*
X58519738Y-87016510D01*
X58519737Y-87016503D01*
X58519735Y-87016498D01*
X58459397Y-86870827D01*
X58459390Y-86870814D01*
X58371789Y-86739711D01*
X58371786Y-86739707D01*
X58260292Y-86628213D01*
X58260288Y-86628210D01*
X58129185Y-86540609D01*
X58129172Y-86540602D01*
X57983501Y-86480264D01*
X57983489Y-86480261D01*
X57828845Y-86449500D01*
X57828842Y-86449500D01*
X57671158Y-86449500D01*
X57671155Y-86449500D01*
X57516510Y-86480261D01*
X57516498Y-86480264D01*
X57370827Y-86540602D01*
X57370814Y-86540609D01*
X57239711Y-86628210D01*
X57239707Y-86628213D01*
X57128213Y-86739707D01*
X57128210Y-86739711D01*
X57040609Y-86870814D01*
X57040602Y-86870827D01*
X56980264Y-87016498D01*
X56980261Y-87016510D01*
X56949500Y-87171153D01*
X56300499Y-87171153D01*
X56269738Y-87016510D01*
X56269737Y-87016503D01*
X56269735Y-87016498D01*
X56209397Y-86870827D01*
X56209390Y-86870814D01*
X56121789Y-86739711D01*
X56121786Y-86739707D01*
X56010292Y-86628213D01*
X56010288Y-86628210D01*
X55879185Y-86540609D01*
X55879172Y-86540602D01*
X55733501Y-86480264D01*
X55733489Y-86480261D01*
X55578845Y-86449500D01*
X55578842Y-86449500D01*
X55421158Y-86449500D01*
X55421155Y-86449500D01*
X55266510Y-86480261D01*
X55266498Y-86480264D01*
X55120827Y-86540602D01*
X55120814Y-86540609D01*
X54989711Y-86628210D01*
X54989707Y-86628213D01*
X54878213Y-86739707D01*
X54878210Y-86739711D01*
X54790609Y-86870814D01*
X54790602Y-86870827D01*
X54730264Y-87016498D01*
X54730261Y-87016510D01*
X54699500Y-87171153D01*
X48050499Y-87171153D01*
X48019738Y-87016510D01*
X48019737Y-87016503D01*
X48019735Y-87016498D01*
X47959397Y-86870827D01*
X47959390Y-86870814D01*
X47871789Y-86739711D01*
X47871786Y-86739707D01*
X47760292Y-86628213D01*
X47760288Y-86628210D01*
X47629185Y-86540609D01*
X47629172Y-86540602D01*
X47483501Y-86480264D01*
X47483489Y-86480261D01*
X47328845Y-86449500D01*
X47328842Y-86449500D01*
X47171158Y-86449500D01*
X47171155Y-86449500D01*
X47016510Y-86480261D01*
X47016498Y-86480264D01*
X46870827Y-86540602D01*
X46870814Y-86540609D01*
X46739711Y-86628210D01*
X46739707Y-86628213D01*
X46628213Y-86739707D01*
X46628210Y-86739711D01*
X46540609Y-86870814D01*
X46540602Y-86870827D01*
X46480264Y-87016498D01*
X46480261Y-87016510D01*
X46449500Y-87171153D01*
X46050499Y-87171153D01*
X46019738Y-87016510D01*
X46019737Y-87016503D01*
X46019735Y-87016498D01*
X45959397Y-86870827D01*
X45959390Y-86870814D01*
X45871789Y-86739711D01*
X45871786Y-86739707D01*
X45760292Y-86628213D01*
X45760288Y-86628210D01*
X45629185Y-86540609D01*
X45629172Y-86540602D01*
X45483501Y-86480264D01*
X45483489Y-86480261D01*
X45328845Y-86449500D01*
X45328842Y-86449500D01*
X45171158Y-86449500D01*
X45171155Y-86449500D01*
X45016510Y-86480261D01*
X45016498Y-86480264D01*
X44870827Y-86540602D01*
X44870814Y-86540609D01*
X44739711Y-86628210D01*
X44739707Y-86628213D01*
X44628213Y-86739707D01*
X44628210Y-86739711D01*
X44540609Y-86870814D01*
X44540602Y-86870827D01*
X44480264Y-87016498D01*
X44480261Y-87016510D01*
X44449500Y-87171153D01*
X38050499Y-87171153D01*
X38019738Y-87016510D01*
X38019737Y-87016503D01*
X38019735Y-87016498D01*
X37959397Y-86870827D01*
X37959390Y-86870814D01*
X37871789Y-86739711D01*
X37871786Y-86739707D01*
X37760292Y-86628213D01*
X37760288Y-86628210D01*
X37629185Y-86540609D01*
X37629172Y-86540602D01*
X37483501Y-86480264D01*
X37483489Y-86480261D01*
X37328845Y-86449500D01*
X37328842Y-86449500D01*
X37171158Y-86449500D01*
X37171155Y-86449500D01*
X37016510Y-86480261D01*
X37016498Y-86480264D01*
X36870827Y-86540602D01*
X36870814Y-86540609D01*
X36739711Y-86628210D01*
X36739707Y-86628213D01*
X36628213Y-86739707D01*
X36628210Y-86739711D01*
X36540609Y-86870814D01*
X36540602Y-86870827D01*
X36480264Y-87016498D01*
X36480261Y-87016510D01*
X36449500Y-87171153D01*
X34250500Y-87171153D01*
X34250500Y-82921153D01*
X44449500Y-82921153D01*
X44449500Y-83078846D01*
X44480261Y-83233489D01*
X44480264Y-83233501D01*
X44540602Y-83379172D01*
X44540609Y-83379185D01*
X44628210Y-83510288D01*
X44628213Y-83510292D01*
X44739707Y-83621786D01*
X44739711Y-83621789D01*
X44870814Y-83709390D01*
X44870827Y-83709397D01*
X45016498Y-83769735D01*
X45016503Y-83769737D01*
X45171153Y-83800499D01*
X45171156Y-83800500D01*
X45171158Y-83800500D01*
X45328844Y-83800500D01*
X45328845Y-83800499D01*
X45483497Y-83769737D01*
X45629179Y-83709394D01*
X45760289Y-83621789D01*
X45871789Y-83510289D01*
X45959394Y-83379179D01*
X46019737Y-83233497D01*
X46050500Y-83078842D01*
X46050500Y-82921158D01*
X46050500Y-82921155D01*
X46050499Y-82921153D01*
X54699500Y-82921153D01*
X54699500Y-83078846D01*
X54730261Y-83233489D01*
X54730264Y-83233501D01*
X54790602Y-83379172D01*
X54790609Y-83379185D01*
X54878210Y-83510288D01*
X54878213Y-83510292D01*
X54989707Y-83621786D01*
X54989711Y-83621789D01*
X55120814Y-83709390D01*
X55120827Y-83709397D01*
X55266498Y-83769735D01*
X55266503Y-83769737D01*
X55421153Y-83800499D01*
X55421156Y-83800500D01*
X55421158Y-83800500D01*
X55578844Y-83800500D01*
X55578845Y-83800499D01*
X55733497Y-83769737D01*
X55879179Y-83709394D01*
X56010289Y-83621789D01*
X56121789Y-83510289D01*
X56209394Y-83379179D01*
X56269737Y-83233497D01*
X56300500Y-83078842D01*
X56300500Y-82921158D01*
X56300500Y-82921155D01*
X56300499Y-82921153D01*
X56949500Y-82921153D01*
X56949500Y-83078846D01*
X56980261Y-83233489D01*
X56980264Y-83233501D01*
X57040602Y-83379172D01*
X57040609Y-83379185D01*
X57128210Y-83510288D01*
X57128213Y-83510292D01*
X57239707Y-83621786D01*
X57239711Y-83621789D01*
X57370814Y-83709390D01*
X57370827Y-83709397D01*
X57516498Y-83769735D01*
X57516503Y-83769737D01*
X57671153Y-83800499D01*
X57671156Y-83800500D01*
X57671158Y-83800500D01*
X57828844Y-83800500D01*
X57828845Y-83800499D01*
X57983497Y-83769737D01*
X58129179Y-83709394D01*
X58260289Y-83621789D01*
X58371789Y-83510289D01*
X58459394Y-83379179D01*
X58519737Y-83233497D01*
X58550500Y-83078842D01*
X58550500Y-82921158D01*
X58550500Y-82921155D01*
X58550499Y-82921153D01*
X58519738Y-82766510D01*
X58519737Y-82766503D01*
X58519735Y-82766498D01*
X58459397Y-82620827D01*
X58459390Y-82620814D01*
X58371789Y-82489711D01*
X58371786Y-82489707D01*
X58260292Y-82378213D01*
X58260288Y-82378210D01*
X58129185Y-82290609D01*
X58129172Y-82290602D01*
X57983501Y-82230264D01*
X57983489Y-82230261D01*
X57828845Y-82199500D01*
X57828842Y-82199500D01*
X57671158Y-82199500D01*
X57671155Y-82199500D01*
X57516510Y-82230261D01*
X57516498Y-82230264D01*
X57370827Y-82290602D01*
X57370814Y-82290609D01*
X57239711Y-82378210D01*
X57239707Y-82378213D01*
X57128213Y-82489707D01*
X57128210Y-82489711D01*
X57040609Y-82620814D01*
X57040602Y-82620827D01*
X56980264Y-82766498D01*
X56980261Y-82766510D01*
X56949500Y-82921153D01*
X56300499Y-82921153D01*
X56269738Y-82766510D01*
X56269737Y-82766503D01*
X56269735Y-82766498D01*
X56209397Y-82620827D01*
X56209390Y-82620814D01*
X56121789Y-82489711D01*
X56121786Y-82489707D01*
X56010292Y-82378213D01*
X56010288Y-82378210D01*
X55879185Y-82290609D01*
X55879172Y-82290602D01*
X55733501Y-82230264D01*
X55733489Y-82230261D01*
X55578845Y-82199500D01*
X55578842Y-82199500D01*
X55421158Y-82199500D01*
X55421155Y-82199500D01*
X55266510Y-82230261D01*
X55266498Y-82230264D01*
X55120827Y-82290602D01*
X55120814Y-82290609D01*
X54989711Y-82378210D01*
X54989707Y-82378213D01*
X54878213Y-82489707D01*
X54878210Y-82489711D01*
X54790609Y-82620814D01*
X54790602Y-82620827D01*
X54730264Y-82766498D01*
X54730261Y-82766510D01*
X54699500Y-82921153D01*
X46050499Y-82921153D01*
X46019738Y-82766510D01*
X46019737Y-82766503D01*
X46019735Y-82766498D01*
X45959397Y-82620827D01*
X45959390Y-82620814D01*
X45871789Y-82489711D01*
X45871786Y-82489707D01*
X45760292Y-82378213D01*
X45760288Y-82378210D01*
X45629185Y-82290609D01*
X45629172Y-82290602D01*
X45483501Y-82230264D01*
X45483489Y-82230261D01*
X45328845Y-82199500D01*
X45328842Y-82199500D01*
X45171158Y-82199500D01*
X45171155Y-82199500D01*
X45016510Y-82230261D01*
X45016498Y-82230264D01*
X44870827Y-82290602D01*
X44870814Y-82290609D01*
X44739711Y-82378210D01*
X44739707Y-82378213D01*
X44628213Y-82489707D01*
X44628210Y-82489711D01*
X44540609Y-82620814D01*
X44540602Y-82620827D01*
X44480264Y-82766498D01*
X44480261Y-82766510D01*
X44449500Y-82921153D01*
X34250500Y-82921153D01*
X34250500Y-78421153D01*
X36449500Y-78421153D01*
X36449500Y-78578846D01*
X36480261Y-78733489D01*
X36480264Y-78733501D01*
X36540602Y-78879172D01*
X36540609Y-78879185D01*
X36628210Y-79010288D01*
X36628213Y-79010292D01*
X36739707Y-79121786D01*
X36739711Y-79121789D01*
X36870814Y-79209390D01*
X36870827Y-79209397D01*
X37016498Y-79269735D01*
X37016503Y-79269737D01*
X37171153Y-79300499D01*
X37171156Y-79300500D01*
X37171158Y-79300500D01*
X37328844Y-79300500D01*
X37328845Y-79300499D01*
X37483497Y-79269737D01*
X37629179Y-79209394D01*
X37760289Y-79121789D01*
X37871789Y-79010289D01*
X37959394Y-78879179D01*
X38019737Y-78733497D01*
X38050500Y-78578842D01*
X38050500Y-78421158D01*
X38050500Y-78421155D01*
X38050499Y-78421153D01*
X38019738Y-78266510D01*
X38019737Y-78266503D01*
X38019735Y-78266498D01*
X37959397Y-78120827D01*
X37959390Y-78120814D01*
X37871789Y-77989711D01*
X37871786Y-77989707D01*
X37760292Y-77878213D01*
X37760288Y-77878210D01*
X37629185Y-77790609D01*
X37629172Y-77790602D01*
X37483501Y-77730264D01*
X37483489Y-77730261D01*
X37328845Y-77699500D01*
X37328842Y-77699500D01*
X37171158Y-77699500D01*
X37171155Y-77699500D01*
X37016510Y-77730261D01*
X37016498Y-77730264D01*
X36870827Y-77790602D01*
X36870814Y-77790609D01*
X36739711Y-77878210D01*
X36739707Y-77878213D01*
X36628213Y-77989707D01*
X36628210Y-77989711D01*
X36540609Y-78120814D01*
X36540602Y-78120827D01*
X36480264Y-78266498D01*
X36480261Y-78266510D01*
X36449500Y-78421153D01*
X34250500Y-78421153D01*
X34250500Y-66171153D01*
X47699500Y-66171153D01*
X47699500Y-66328846D01*
X47730261Y-66483489D01*
X47730264Y-66483501D01*
X47790602Y-66629172D01*
X47790609Y-66629185D01*
X47878210Y-66760288D01*
X47878213Y-66760292D01*
X47989707Y-66871786D01*
X47989711Y-66871789D01*
X48120814Y-66959390D01*
X48120827Y-66959397D01*
X48266498Y-67019735D01*
X48266503Y-67019737D01*
X48421153Y-67050499D01*
X48421156Y-67050500D01*
X48421158Y-67050500D01*
X48578844Y-67050500D01*
X48578845Y-67050499D01*
X48733497Y-67019737D01*
X48879179Y-66959394D01*
X49010289Y-66871789D01*
X49121789Y-66760289D01*
X49209394Y-66629179D01*
X49269737Y-66483497D01*
X49300500Y-66328842D01*
X49300500Y-66171158D01*
X49300500Y-66171155D01*
X49300499Y-66171153D01*
X49269738Y-66016510D01*
X49269737Y-66016503D01*
X49269735Y-66016498D01*
X49209397Y-65870827D01*
X49209390Y-65870814D01*
X49121789Y-65739711D01*
X49121786Y-65739707D01*
X49010292Y-65628213D01*
X49010288Y-65628210D01*
X48879185Y-65540609D01*
X48879172Y-65540602D01*
X48733501Y-65480264D01*
X48733489Y-65480261D01*
X48578845Y-65449500D01*
X48578842Y-65449500D01*
X48421158Y-65449500D01*
X48421155Y-65449500D01*
X48266510Y-65480261D01*
X48266498Y-65480264D01*
X48120827Y-65540602D01*
X48120814Y-65540609D01*
X47989711Y-65628210D01*
X47989707Y-65628213D01*
X47878213Y-65739707D01*
X47878210Y-65739711D01*
X47790609Y-65870814D01*
X47790602Y-65870827D01*
X47730264Y-66016498D01*
X47730261Y-66016510D01*
X47699500Y-66171153D01*
X34250500Y-66171153D01*
X34250500Y-64171153D01*
X57199500Y-64171153D01*
X57199500Y-64328846D01*
X57230261Y-64483489D01*
X57230264Y-64483501D01*
X57290602Y-64629172D01*
X57290609Y-64629185D01*
X57378210Y-64760288D01*
X57378213Y-64760292D01*
X57489707Y-64871786D01*
X57489711Y-64871789D01*
X57620814Y-64959390D01*
X57620827Y-64959397D01*
X57766498Y-65019735D01*
X57766503Y-65019737D01*
X57921153Y-65050499D01*
X57921156Y-65050500D01*
X57921158Y-65050500D01*
X58078844Y-65050500D01*
X58078845Y-65050499D01*
X58233497Y-65019737D01*
X58379179Y-64959394D01*
X58510289Y-64871789D01*
X58621789Y-64760289D01*
X58709394Y-64629179D01*
X58769737Y-64483497D01*
X58800500Y-64328842D01*
X58800500Y-64171158D01*
X58800500Y-64171155D01*
X58800499Y-64171153D01*
X58769738Y-64016510D01*
X58769737Y-64016503D01*
X58769735Y-64016498D01*
X58709397Y-63870827D01*
X58709390Y-63870814D01*
X58621789Y-63739711D01*
X58621786Y-63739707D01*
X58510292Y-63628213D01*
X58510288Y-63628210D01*
X58379185Y-63540609D01*
X58379172Y-63540602D01*
X58233501Y-63480264D01*
X58233489Y-63480261D01*
X58078845Y-63449500D01*
X58078842Y-63449500D01*
X57921158Y-63449500D01*
X57921155Y-63449500D01*
X57766510Y-63480261D01*
X57766498Y-63480264D01*
X57620827Y-63540602D01*
X57620814Y-63540609D01*
X57489711Y-63628210D01*
X57489707Y-63628213D01*
X57378213Y-63739707D01*
X57378210Y-63739711D01*
X57290609Y-63870814D01*
X57290602Y-63870827D01*
X57230264Y-64016498D01*
X57230261Y-64016510D01*
X57199500Y-64171153D01*
X34250500Y-64171153D01*
X34250500Y-62671153D01*
X60949500Y-62671153D01*
X60949500Y-62828846D01*
X60980261Y-62983489D01*
X60980264Y-62983501D01*
X61040602Y-63129172D01*
X61040609Y-63129185D01*
X61128210Y-63260288D01*
X61128213Y-63260292D01*
X61239707Y-63371786D01*
X61239711Y-63371789D01*
X61370814Y-63459390D01*
X61370827Y-63459397D01*
X61516498Y-63519735D01*
X61516503Y-63519737D01*
X61671153Y-63550499D01*
X61671156Y-63550500D01*
X61671158Y-63550500D01*
X61828844Y-63550500D01*
X61828845Y-63550499D01*
X61983497Y-63519737D01*
X62129179Y-63459394D01*
X62260289Y-63371789D01*
X62371789Y-63260289D01*
X62459394Y-63129179D01*
X62519737Y-62983497D01*
X62550500Y-62828842D01*
X62550500Y-62671158D01*
X62550500Y-62671155D01*
X62550499Y-62671153D01*
X62519738Y-62516510D01*
X62519737Y-62516503D01*
X62519735Y-62516498D01*
X62459397Y-62370827D01*
X62459390Y-62370814D01*
X62371789Y-62239711D01*
X62371786Y-62239707D01*
X62260292Y-62128213D01*
X62260288Y-62128210D01*
X62129185Y-62040609D01*
X62129172Y-62040602D01*
X61983501Y-61980264D01*
X61983489Y-61980261D01*
X61828845Y-61949500D01*
X61828842Y-61949500D01*
X61671158Y-61949500D01*
X61671155Y-61949500D01*
X61516510Y-61980261D01*
X61516498Y-61980264D01*
X61370827Y-62040602D01*
X61370814Y-62040609D01*
X61239711Y-62128210D01*
X61239707Y-62128213D01*
X61128213Y-62239707D01*
X61128210Y-62239711D01*
X61040609Y-62370814D01*
X61040602Y-62370827D01*
X60980264Y-62516498D01*
X60980261Y-62516510D01*
X60949500Y-62671153D01*
X34250500Y-62671153D01*
X34250500Y-60921153D01*
X39449500Y-60921153D01*
X39449500Y-61078846D01*
X39480261Y-61233489D01*
X39480264Y-61233501D01*
X39540602Y-61379172D01*
X39540609Y-61379185D01*
X39628210Y-61510288D01*
X39628213Y-61510292D01*
X39739707Y-61621786D01*
X39739711Y-61621789D01*
X39870814Y-61709390D01*
X39870827Y-61709397D01*
X40016498Y-61769735D01*
X40016503Y-61769737D01*
X40171153Y-61800499D01*
X40171156Y-61800500D01*
X40171158Y-61800500D01*
X40328844Y-61800500D01*
X40328845Y-61800499D01*
X40483497Y-61769737D01*
X40629179Y-61709394D01*
X40760289Y-61621789D01*
X40871789Y-61510289D01*
X40959394Y-61379179D01*
X41019737Y-61233497D01*
X41050500Y-61078842D01*
X41050500Y-60921158D01*
X41050500Y-60921155D01*
X41050499Y-60921153D01*
X41019738Y-60766510D01*
X41019737Y-60766503D01*
X41019735Y-60766498D01*
X40959397Y-60620827D01*
X40959390Y-60620814D01*
X40871789Y-60489711D01*
X40871786Y-60489707D01*
X40760292Y-60378213D01*
X40760288Y-60378210D01*
X40629185Y-60290609D01*
X40629172Y-60290602D01*
X40483501Y-60230264D01*
X40483489Y-60230261D01*
X40328845Y-60199500D01*
X40328842Y-60199500D01*
X40171158Y-60199500D01*
X40171155Y-60199500D01*
X40016510Y-60230261D01*
X40016498Y-60230264D01*
X39870827Y-60290602D01*
X39870814Y-60290609D01*
X39739711Y-60378210D01*
X39739707Y-60378213D01*
X39628213Y-60489707D01*
X39628210Y-60489711D01*
X39540609Y-60620814D01*
X39540602Y-60620827D01*
X39480264Y-60766498D01*
X39480261Y-60766510D01*
X39449500Y-60921153D01*
X34250500Y-60921153D01*
X34250500Y-49671153D01*
X39449500Y-49671153D01*
X39449500Y-49828846D01*
X39480261Y-49983489D01*
X39480264Y-49983501D01*
X39540602Y-50129172D01*
X39540609Y-50129185D01*
X39628210Y-50260288D01*
X39628213Y-50260292D01*
X39739707Y-50371786D01*
X39739711Y-50371789D01*
X39870814Y-50459390D01*
X39870827Y-50459397D01*
X40016498Y-50519735D01*
X40016503Y-50519737D01*
X40171153Y-50550499D01*
X40171156Y-50550500D01*
X40171158Y-50550500D01*
X40328844Y-50550500D01*
X40328845Y-50550499D01*
X40483497Y-50519737D01*
X40629179Y-50459394D01*
X40760289Y-50371789D01*
X40871789Y-50260289D01*
X40959394Y-50129179D01*
X41019737Y-49983497D01*
X41050500Y-49828842D01*
X41050500Y-49686153D01*
X59449500Y-49686153D01*
X59449500Y-49843846D01*
X59480261Y-49998489D01*
X59480264Y-49998501D01*
X59540602Y-50144172D01*
X59540609Y-50144185D01*
X59628210Y-50275288D01*
X59628213Y-50275292D01*
X59739707Y-50386786D01*
X59739711Y-50386789D01*
X59870814Y-50474390D01*
X59870827Y-50474397D01*
X60016498Y-50534735D01*
X60016503Y-50534737D01*
X60171153Y-50565499D01*
X60171156Y-50565500D01*
X60171158Y-50565500D01*
X60328844Y-50565500D01*
X60328845Y-50565499D01*
X60483497Y-50534737D01*
X60629179Y-50474394D01*
X60760289Y-50386789D01*
X60871789Y-50275289D01*
X60959394Y-50144179D01*
X61019737Y-49998497D01*
X61050500Y-49843842D01*
X61050500Y-49686158D01*
X61050500Y-49686155D01*
X61050499Y-49686153D01*
X61019738Y-49531510D01*
X61019737Y-49531503D01*
X61013522Y-49516498D01*
X60959397Y-49385827D01*
X60959390Y-49385814D01*
X60871789Y-49254711D01*
X60871786Y-49254707D01*
X60760292Y-49143213D01*
X60760288Y-49143210D01*
X60629185Y-49055609D01*
X60629172Y-49055602D01*
X60483501Y-48995264D01*
X60483489Y-48995261D01*
X60328845Y-48964500D01*
X60328842Y-48964500D01*
X60171158Y-48964500D01*
X60171155Y-48964500D01*
X60016510Y-48995261D01*
X60016498Y-48995264D01*
X59870827Y-49055602D01*
X59870814Y-49055609D01*
X59739711Y-49143210D01*
X59739707Y-49143213D01*
X59628213Y-49254707D01*
X59628210Y-49254711D01*
X59540609Y-49385814D01*
X59540602Y-49385827D01*
X59480264Y-49531498D01*
X59480261Y-49531510D01*
X59449500Y-49686153D01*
X41050500Y-49686153D01*
X41050500Y-49671158D01*
X41050500Y-49671155D01*
X41050499Y-49671153D01*
X41022722Y-49531510D01*
X41019737Y-49516503D01*
X40965610Y-49385827D01*
X40959397Y-49370827D01*
X40959390Y-49370814D01*
X40871789Y-49239711D01*
X40871786Y-49239707D01*
X40760292Y-49128213D01*
X40760288Y-49128210D01*
X40629185Y-49040609D01*
X40629172Y-49040602D01*
X40483501Y-48980264D01*
X40483489Y-48980261D01*
X40328845Y-48949500D01*
X40328842Y-48949500D01*
X40171158Y-48949500D01*
X40171155Y-48949500D01*
X40016510Y-48980261D01*
X40016498Y-48980264D01*
X39870827Y-49040602D01*
X39870814Y-49040609D01*
X39739711Y-49128210D01*
X39739707Y-49128213D01*
X39628213Y-49239707D01*
X39628210Y-49239711D01*
X39540609Y-49370814D01*
X39540602Y-49370827D01*
X39480264Y-49516498D01*
X39480261Y-49516510D01*
X39449500Y-49671153D01*
X34250500Y-49671153D01*
X34250500Y-47921153D01*
X67049500Y-47921153D01*
X67049500Y-48078846D01*
X67080261Y-48233489D01*
X67080264Y-48233501D01*
X67140602Y-48379172D01*
X67140609Y-48379185D01*
X67228210Y-48510288D01*
X67228213Y-48510292D01*
X67339707Y-48621786D01*
X67339711Y-48621789D01*
X67470814Y-48709390D01*
X67470827Y-48709397D01*
X67616498Y-48769735D01*
X67616503Y-48769737D01*
X67758635Y-48798009D01*
X67771153Y-48800499D01*
X67771156Y-48800500D01*
X67771158Y-48800500D01*
X67928844Y-48800500D01*
X67928845Y-48800499D01*
X68083497Y-48769737D01*
X68229179Y-48709394D01*
X68360289Y-48621789D01*
X68367889Y-48614189D01*
X68397319Y-48584760D01*
X68458642Y-48551275D01*
X68528334Y-48556259D01*
X68572681Y-48584760D01*
X68609707Y-48621786D01*
X68609711Y-48621789D01*
X68740814Y-48709390D01*
X68740827Y-48709397D01*
X68886498Y-48769735D01*
X68886503Y-48769737D01*
X69028635Y-48798009D01*
X69041153Y-48800499D01*
X69041156Y-48800500D01*
X69041158Y-48800500D01*
X69198844Y-48800500D01*
X69198845Y-48800499D01*
X69353497Y-48769737D01*
X69499179Y-48709394D01*
X69630289Y-48621789D01*
X69637889Y-48614189D01*
X69667319Y-48584760D01*
X69728642Y-48551275D01*
X69798334Y-48556259D01*
X69842681Y-48584760D01*
X69879707Y-48621786D01*
X69879711Y-48621789D01*
X70010814Y-48709390D01*
X70010827Y-48709397D01*
X70156498Y-48769735D01*
X70156503Y-48769737D01*
X70298635Y-48798009D01*
X70311153Y-48800499D01*
X70311156Y-48800500D01*
X70311158Y-48800500D01*
X70468844Y-48800500D01*
X70468845Y-48800499D01*
X70623497Y-48769737D01*
X70769179Y-48709394D01*
X70900289Y-48621789D01*
X70907889Y-48614189D01*
X70937319Y-48584760D01*
X70998642Y-48551275D01*
X71068334Y-48556259D01*
X71112681Y-48584760D01*
X71149707Y-48621786D01*
X71149711Y-48621789D01*
X71280814Y-48709390D01*
X71280827Y-48709397D01*
X71426498Y-48769735D01*
X71426503Y-48769737D01*
X71568635Y-48798009D01*
X71581153Y-48800499D01*
X71581156Y-48800500D01*
X71581158Y-48800500D01*
X71738844Y-48800500D01*
X71738845Y-48800499D01*
X71893497Y-48769737D01*
X72039179Y-48709394D01*
X72170289Y-48621789D01*
X72177889Y-48614189D01*
X72207319Y-48584760D01*
X72268642Y-48551275D01*
X72338334Y-48556259D01*
X72382681Y-48584760D01*
X72419707Y-48621786D01*
X72419711Y-48621789D01*
X72550814Y-48709390D01*
X72550827Y-48709397D01*
X72696498Y-48769735D01*
X72696503Y-48769737D01*
X72838635Y-48798009D01*
X72851153Y-48800499D01*
X72851156Y-48800500D01*
X72851158Y-48800500D01*
X73008844Y-48800500D01*
X73008845Y-48800499D01*
X73163497Y-48769737D01*
X73309179Y-48709394D01*
X73440289Y-48621789D01*
X73447889Y-48614189D01*
X73477319Y-48584760D01*
X73538642Y-48551275D01*
X73608334Y-48556259D01*
X73652681Y-48584760D01*
X73689707Y-48621786D01*
X73689711Y-48621789D01*
X73820814Y-48709390D01*
X73820827Y-48709397D01*
X73966498Y-48769735D01*
X73966503Y-48769737D01*
X74108635Y-48798009D01*
X74121153Y-48800499D01*
X74121156Y-48800500D01*
X74121158Y-48800500D01*
X74278844Y-48800500D01*
X74278845Y-48800499D01*
X74433497Y-48769737D01*
X74579179Y-48709394D01*
X74710289Y-48621789D01*
X74717889Y-48614189D01*
X74747319Y-48584760D01*
X74808642Y-48551275D01*
X74878334Y-48556259D01*
X74922681Y-48584760D01*
X74959707Y-48621786D01*
X74959711Y-48621789D01*
X75090814Y-48709390D01*
X75090827Y-48709397D01*
X75236498Y-48769735D01*
X75236503Y-48769737D01*
X75378635Y-48798009D01*
X75391153Y-48800499D01*
X75391156Y-48800500D01*
X75391158Y-48800500D01*
X75548844Y-48800500D01*
X75548845Y-48800499D01*
X75703497Y-48769737D01*
X75849179Y-48709394D01*
X75960418Y-48635065D01*
X76027093Y-48614189D01*
X76094473Y-48632673D01*
X76116988Y-48650488D01*
X76165961Y-48699461D01*
X76165965Y-48699464D01*
X76313446Y-48798009D01*
X76313459Y-48798016D01*
X76436363Y-48848923D01*
X76477334Y-48865894D01*
X76477336Y-48865894D01*
X76477341Y-48865896D01*
X76651304Y-48900499D01*
X76651307Y-48900500D01*
X76651309Y-48900500D01*
X76828693Y-48900500D01*
X76828694Y-48900499D01*
X76886682Y-48888964D01*
X77002658Y-48865896D01*
X77002661Y-48865894D01*
X77002666Y-48865894D01*
X77166547Y-48798013D01*
X77314035Y-48699464D01*
X77439464Y-48574035D01*
X77538013Y-48426547D01*
X77605894Y-48262666D01*
X77611696Y-48233501D01*
X77640499Y-48088695D01*
X77640500Y-48088693D01*
X77640500Y-47911306D01*
X77640499Y-47911304D01*
X77605896Y-47737341D01*
X77605893Y-47737332D01*
X77538016Y-47573459D01*
X77538009Y-47573446D01*
X77439464Y-47425965D01*
X77439461Y-47425961D01*
X77314038Y-47300538D01*
X77314034Y-47300535D01*
X77166553Y-47201990D01*
X77166540Y-47201983D01*
X77002667Y-47134106D01*
X77002658Y-47134103D01*
X76828694Y-47099500D01*
X76828691Y-47099500D01*
X76651309Y-47099500D01*
X76651306Y-47099500D01*
X76477341Y-47134103D01*
X76477332Y-47134106D01*
X76313459Y-47201983D01*
X76313446Y-47201990D01*
X76165965Y-47300535D01*
X76165960Y-47300539D01*
X76116987Y-47349512D01*
X76055664Y-47382996D01*
X75985972Y-47378011D01*
X75960416Y-47364932D01*
X75849185Y-47290609D01*
X75849172Y-47290602D01*
X75703501Y-47230264D01*
X75703489Y-47230261D01*
X75548845Y-47199500D01*
X75548842Y-47199500D01*
X75391158Y-47199500D01*
X75391155Y-47199500D01*
X75236510Y-47230261D01*
X75236498Y-47230264D01*
X75090827Y-47290602D01*
X75090814Y-47290609D01*
X74959711Y-47378210D01*
X74959707Y-47378213D01*
X74922681Y-47415240D01*
X74861358Y-47448725D01*
X74791666Y-47443741D01*
X74747319Y-47415240D01*
X74710292Y-47378213D01*
X74710288Y-47378210D01*
X74579185Y-47290609D01*
X74579172Y-47290602D01*
X74433501Y-47230264D01*
X74433489Y-47230261D01*
X74278845Y-47199500D01*
X74278842Y-47199500D01*
X74121158Y-47199500D01*
X74121155Y-47199500D01*
X73966510Y-47230261D01*
X73966498Y-47230264D01*
X73820827Y-47290602D01*
X73820814Y-47290609D01*
X73689711Y-47378210D01*
X73689707Y-47378213D01*
X73652681Y-47415240D01*
X73591358Y-47448725D01*
X73521666Y-47443741D01*
X73477319Y-47415240D01*
X73440292Y-47378213D01*
X73440288Y-47378210D01*
X73309185Y-47290609D01*
X73309172Y-47290602D01*
X73163501Y-47230264D01*
X73163489Y-47230261D01*
X73008845Y-47199500D01*
X73008842Y-47199500D01*
X72851158Y-47199500D01*
X72851155Y-47199500D01*
X72696510Y-47230261D01*
X72696498Y-47230264D01*
X72550827Y-47290602D01*
X72550814Y-47290609D01*
X72419711Y-47378210D01*
X72419707Y-47378213D01*
X72382681Y-47415240D01*
X72321358Y-47448725D01*
X72251666Y-47443741D01*
X72207319Y-47415240D01*
X72170292Y-47378213D01*
X72170288Y-47378210D01*
X72039185Y-47290609D01*
X72039172Y-47290602D01*
X71893501Y-47230264D01*
X71893489Y-47230261D01*
X71738845Y-47199500D01*
X71738842Y-47199500D01*
X71581158Y-47199500D01*
X71581155Y-47199500D01*
X71426510Y-47230261D01*
X71426498Y-47230264D01*
X71280827Y-47290602D01*
X71280814Y-47290609D01*
X71149711Y-47378210D01*
X71149707Y-47378213D01*
X71112681Y-47415240D01*
X71051358Y-47448725D01*
X70981666Y-47443741D01*
X70937319Y-47415240D01*
X70900292Y-47378213D01*
X70900288Y-47378210D01*
X70769185Y-47290609D01*
X70769172Y-47290602D01*
X70623501Y-47230264D01*
X70623489Y-47230261D01*
X70468845Y-47199500D01*
X70468842Y-47199500D01*
X70311158Y-47199500D01*
X70311155Y-47199500D01*
X70156510Y-47230261D01*
X70156498Y-47230264D01*
X70010827Y-47290602D01*
X70010814Y-47290609D01*
X69879711Y-47378210D01*
X69879707Y-47378213D01*
X69842681Y-47415240D01*
X69781358Y-47448725D01*
X69711666Y-47443741D01*
X69667319Y-47415240D01*
X69630292Y-47378213D01*
X69630288Y-47378210D01*
X69499185Y-47290609D01*
X69499172Y-47290602D01*
X69353501Y-47230264D01*
X69353489Y-47230261D01*
X69198845Y-47199500D01*
X69198842Y-47199500D01*
X69041158Y-47199500D01*
X69041155Y-47199500D01*
X68886510Y-47230261D01*
X68886498Y-47230264D01*
X68740827Y-47290602D01*
X68740814Y-47290609D01*
X68609711Y-47378210D01*
X68609707Y-47378213D01*
X68572681Y-47415240D01*
X68511358Y-47448725D01*
X68441666Y-47443741D01*
X68397319Y-47415240D01*
X68360292Y-47378213D01*
X68360288Y-47378210D01*
X68229185Y-47290609D01*
X68229172Y-47290602D01*
X68083501Y-47230264D01*
X68083489Y-47230261D01*
X67928845Y-47199500D01*
X67928842Y-47199500D01*
X67771158Y-47199500D01*
X67771155Y-47199500D01*
X67616510Y-47230261D01*
X67616498Y-47230264D01*
X67470827Y-47290602D01*
X67470814Y-47290609D01*
X67339711Y-47378210D01*
X67339707Y-47378213D01*
X67228213Y-47489707D01*
X67228210Y-47489711D01*
X67140609Y-47620814D01*
X67140602Y-47620827D01*
X67080264Y-47766498D01*
X67080261Y-47766510D01*
X67049500Y-47921153D01*
X34250500Y-47921153D01*
X34250500Y-46661304D01*
X38099500Y-46661304D01*
X38099500Y-46838695D01*
X38134103Y-47012658D01*
X38134106Y-47012667D01*
X38201983Y-47176540D01*
X38201990Y-47176553D01*
X38300535Y-47324034D01*
X38300538Y-47324038D01*
X38425961Y-47449461D01*
X38425965Y-47449464D01*
X38573446Y-47548009D01*
X38573459Y-47548016D01*
X38696363Y-47598923D01*
X38737334Y-47615894D01*
X38737336Y-47615894D01*
X38737341Y-47615896D01*
X38911304Y-47650499D01*
X38911307Y-47650500D01*
X38911309Y-47650500D01*
X39088693Y-47650500D01*
X39088694Y-47650499D01*
X39146682Y-47638964D01*
X39262658Y-47615896D01*
X39262661Y-47615894D01*
X39262666Y-47615894D01*
X39426547Y-47548013D01*
X39574035Y-47449464D01*
X39699464Y-47324035D01*
X39798013Y-47176547D01*
X39865894Y-47012666D01*
X39900500Y-46838691D01*
X39900500Y-46661309D01*
X39900500Y-46661306D01*
X39900499Y-46661304D01*
X41349500Y-46661304D01*
X41349500Y-46838695D01*
X41384103Y-47012658D01*
X41384106Y-47012667D01*
X41451983Y-47176540D01*
X41451990Y-47176553D01*
X41550535Y-47324034D01*
X41550538Y-47324038D01*
X41675961Y-47449461D01*
X41675965Y-47449464D01*
X41823446Y-47548009D01*
X41823459Y-47548016D01*
X41946363Y-47598923D01*
X41987334Y-47615894D01*
X41987336Y-47615894D01*
X41987341Y-47615896D01*
X42161304Y-47650499D01*
X42161307Y-47650500D01*
X42161309Y-47650500D01*
X42338693Y-47650500D01*
X42338694Y-47650499D01*
X42396682Y-47638964D01*
X42512658Y-47615896D01*
X42512661Y-47615894D01*
X42512666Y-47615894D01*
X42676547Y-47548013D01*
X42824035Y-47449464D01*
X42949464Y-47324035D01*
X43048013Y-47176547D01*
X43115894Y-47012666D01*
X43150500Y-46838691D01*
X43150500Y-46661309D01*
X43150500Y-46661306D01*
X43150499Y-46661304D01*
X43115896Y-46487341D01*
X43115893Y-46487332D01*
X43048016Y-46323459D01*
X43048009Y-46323446D01*
X42949464Y-46175965D01*
X42949461Y-46175961D01*
X42824038Y-46050538D01*
X42824034Y-46050535D01*
X42676553Y-45951990D01*
X42676540Y-45951983D01*
X42512667Y-45884106D01*
X42512658Y-45884103D01*
X42338694Y-45849500D01*
X42338691Y-45849500D01*
X42161309Y-45849500D01*
X42161306Y-45849500D01*
X41987341Y-45884103D01*
X41987332Y-45884106D01*
X41823459Y-45951983D01*
X41823446Y-45951990D01*
X41675965Y-46050535D01*
X41675961Y-46050538D01*
X41550538Y-46175961D01*
X41550535Y-46175965D01*
X41451990Y-46323446D01*
X41451983Y-46323459D01*
X41384106Y-46487332D01*
X41384103Y-46487341D01*
X41349500Y-46661304D01*
X39900499Y-46661304D01*
X39865896Y-46487341D01*
X39865893Y-46487332D01*
X39798016Y-46323459D01*
X39798009Y-46323446D01*
X39699464Y-46175965D01*
X39699461Y-46175961D01*
X39574038Y-46050538D01*
X39574034Y-46050535D01*
X39426553Y-45951990D01*
X39426540Y-45951983D01*
X39262667Y-45884106D01*
X39262658Y-45884103D01*
X39088694Y-45849500D01*
X39088691Y-45849500D01*
X38911309Y-45849500D01*
X38911306Y-45849500D01*
X38737341Y-45884103D01*
X38737332Y-45884106D01*
X38573459Y-45951983D01*
X38573446Y-45951990D01*
X38425965Y-46050535D01*
X38425961Y-46050538D01*
X38300538Y-46175961D01*
X38300535Y-46175965D01*
X38201990Y-46323446D01*
X38201983Y-46323459D01*
X38134106Y-46487332D01*
X38134103Y-46487341D01*
X38099500Y-46661304D01*
X34250500Y-46661304D01*
X34250500Y-45671153D01*
X59449500Y-45671153D01*
X59449500Y-45828846D01*
X59480261Y-45983489D01*
X59480264Y-45983501D01*
X59540602Y-46129172D01*
X59540609Y-46129185D01*
X59628210Y-46260288D01*
X59628213Y-46260292D01*
X59739707Y-46371786D01*
X59739711Y-46371789D01*
X59870814Y-46459390D01*
X59870827Y-46459397D01*
X60016498Y-46519735D01*
X60016503Y-46519737D01*
X60171153Y-46550499D01*
X60171156Y-46550500D01*
X60171158Y-46550500D01*
X60328844Y-46550500D01*
X60328845Y-46550499D01*
X60483497Y-46519737D01*
X60629179Y-46459394D01*
X60760289Y-46371789D01*
X60871789Y-46260289D01*
X60959394Y-46129179D01*
X61019737Y-45983497D01*
X61050500Y-45828842D01*
X61050500Y-45671158D01*
X61050500Y-45671155D01*
X61050499Y-45671153D01*
X61019738Y-45516510D01*
X61019737Y-45516503D01*
X60997434Y-45462658D01*
X60959397Y-45370827D01*
X60959390Y-45370814D01*
X60871789Y-45239711D01*
X60871786Y-45239707D01*
X60760292Y-45128213D01*
X60760288Y-45128210D01*
X60734987Y-45111304D01*
X71849500Y-45111304D01*
X71849500Y-45288695D01*
X71884103Y-45462658D01*
X71884106Y-45462667D01*
X71951983Y-45626540D01*
X71951990Y-45626553D01*
X72050535Y-45774034D01*
X72050538Y-45774038D01*
X72175961Y-45899461D01*
X72175965Y-45899464D01*
X72323446Y-45998009D01*
X72323459Y-45998016D01*
X72446363Y-46048923D01*
X72487334Y-46065894D01*
X72487336Y-46065894D01*
X72487341Y-46065896D01*
X72661304Y-46100499D01*
X72661307Y-46100500D01*
X72661309Y-46100500D01*
X72838693Y-46100500D01*
X72838694Y-46100499D01*
X72896682Y-46088964D01*
X73012658Y-46065896D01*
X73012661Y-46065894D01*
X73012666Y-46065894D01*
X73176547Y-45998013D01*
X73324035Y-45899464D01*
X73449464Y-45774035D01*
X73548013Y-45626547D01*
X73615894Y-45462666D01*
X73650500Y-45288691D01*
X73650500Y-45111309D01*
X73650500Y-45111306D01*
X73650499Y-45111304D01*
X73615896Y-44937341D01*
X73615893Y-44937332D01*
X73548016Y-44773459D01*
X73548009Y-44773446D01*
X73449464Y-44625965D01*
X73449461Y-44625961D01*
X73324038Y-44500538D01*
X73324034Y-44500535D01*
X73176553Y-44401990D01*
X73176540Y-44401983D01*
X73012667Y-44334106D01*
X73012658Y-44334103D01*
X72838694Y-44299500D01*
X72838691Y-44299500D01*
X72661309Y-44299500D01*
X72661306Y-44299500D01*
X72487341Y-44334103D01*
X72487332Y-44334106D01*
X72323459Y-44401983D01*
X72323446Y-44401990D01*
X72175965Y-44500535D01*
X72175961Y-44500538D01*
X72050538Y-44625961D01*
X72050535Y-44625965D01*
X71951990Y-44773446D01*
X71951983Y-44773459D01*
X71884106Y-44937332D01*
X71884103Y-44937341D01*
X71849500Y-45111304D01*
X60734987Y-45111304D01*
X60629185Y-45040609D01*
X60629172Y-45040602D01*
X60483501Y-44980264D01*
X60483489Y-44980261D01*
X60328845Y-44949500D01*
X60328842Y-44949500D01*
X60171158Y-44949500D01*
X60171155Y-44949500D01*
X60016510Y-44980261D01*
X60016498Y-44980264D01*
X59870827Y-45040602D01*
X59870814Y-45040609D01*
X59739711Y-45128210D01*
X59739707Y-45128213D01*
X59628213Y-45239707D01*
X59628210Y-45239711D01*
X59540609Y-45370814D01*
X59540602Y-45370827D01*
X59480264Y-45516498D01*
X59480261Y-45516510D01*
X59449500Y-45671153D01*
X34250500Y-45671153D01*
X34250500Y-42671153D01*
X59449500Y-42671153D01*
X59449500Y-42828846D01*
X59480261Y-42983489D01*
X59480264Y-42983501D01*
X59540602Y-43129172D01*
X59540609Y-43129185D01*
X59628210Y-43260288D01*
X59628213Y-43260292D01*
X59739707Y-43371786D01*
X59739711Y-43371789D01*
X59870814Y-43459390D01*
X59870827Y-43459397D01*
X60016498Y-43519735D01*
X60016503Y-43519737D01*
X60171153Y-43550499D01*
X60171156Y-43550500D01*
X60171158Y-43550500D01*
X60328844Y-43550500D01*
X60328845Y-43550499D01*
X60483497Y-43519737D01*
X60629179Y-43459394D01*
X60760289Y-43371789D01*
X60871789Y-43260289D01*
X60879463Y-43248804D01*
X66999500Y-43248804D01*
X66999500Y-43426195D01*
X67034103Y-43600158D01*
X67034106Y-43600167D01*
X67101983Y-43764040D01*
X67101990Y-43764053D01*
X67200535Y-43911534D01*
X67200538Y-43911538D01*
X67325961Y-44036961D01*
X67325965Y-44036964D01*
X67473446Y-44135509D01*
X67473459Y-44135516D01*
X67596363Y-44186423D01*
X67637334Y-44203394D01*
X67637336Y-44203394D01*
X67637341Y-44203396D01*
X67811304Y-44237999D01*
X67811307Y-44238000D01*
X67811309Y-44238000D01*
X67988693Y-44238000D01*
X67988694Y-44237999D01*
X68046682Y-44226464D01*
X68162658Y-44203396D01*
X68162661Y-44203394D01*
X68162666Y-44203394D01*
X68326547Y-44135513D01*
X68474035Y-44036964D01*
X68599464Y-43911535D01*
X68698013Y-43764047D01*
X68765894Y-43600166D01*
X68775774Y-43550499D01*
X68800499Y-43426195D01*
X68800500Y-43426193D01*
X68800500Y-43248806D01*
X68800499Y-43248804D01*
X68765896Y-43074841D01*
X68765893Y-43074832D01*
X68698016Y-42910959D01*
X68698009Y-42910946D01*
X68599464Y-42763465D01*
X68599461Y-42763461D01*
X68474038Y-42638038D01*
X68474034Y-42638035D01*
X68326553Y-42539490D01*
X68326540Y-42539483D01*
X68162667Y-42471606D01*
X68162658Y-42471603D01*
X67988694Y-42437000D01*
X67988691Y-42437000D01*
X67811309Y-42437000D01*
X67811306Y-42437000D01*
X67637341Y-42471603D01*
X67637332Y-42471606D01*
X67473459Y-42539483D01*
X67473446Y-42539490D01*
X67325965Y-42638035D01*
X67325961Y-42638038D01*
X67200538Y-42763461D01*
X67200535Y-42763465D01*
X67101990Y-42910946D01*
X67101983Y-42910959D01*
X67034106Y-43074832D01*
X67034103Y-43074841D01*
X66999500Y-43248804D01*
X60879463Y-43248804D01*
X60959394Y-43129179D01*
X61019737Y-42983497D01*
X61050500Y-42828842D01*
X61050500Y-42671158D01*
X61050500Y-42671155D01*
X61050499Y-42671153D01*
X61043912Y-42638038D01*
X61019737Y-42516503D01*
X60986806Y-42437000D01*
X60959397Y-42370827D01*
X60959390Y-42370814D01*
X60871789Y-42239711D01*
X60871786Y-42239707D01*
X60760292Y-42128213D01*
X60760288Y-42128210D01*
X60629185Y-42040609D01*
X60629172Y-42040602D01*
X60483501Y-41980264D01*
X60483489Y-41980261D01*
X60328845Y-41949500D01*
X60328842Y-41949500D01*
X60171158Y-41949500D01*
X60171155Y-41949500D01*
X60016510Y-41980261D01*
X60016498Y-41980264D01*
X59870827Y-42040602D01*
X59870814Y-42040609D01*
X59739711Y-42128210D01*
X59739707Y-42128213D01*
X59628213Y-42239707D01*
X59628210Y-42239711D01*
X59540609Y-42370814D01*
X59540602Y-42370827D01*
X59480264Y-42516498D01*
X59480261Y-42516510D01*
X59449500Y-42671153D01*
X34250500Y-42671153D01*
X34250500Y-40671153D01*
X52199500Y-40671153D01*
X52199500Y-40828846D01*
X52230261Y-40983489D01*
X52230264Y-40983501D01*
X52290602Y-41129172D01*
X52290609Y-41129185D01*
X52378210Y-41260288D01*
X52378213Y-41260292D01*
X52489707Y-41371786D01*
X52489711Y-41371789D01*
X52620814Y-41459390D01*
X52620827Y-41459397D01*
X52766498Y-41519735D01*
X52766503Y-41519737D01*
X52921153Y-41550499D01*
X52921156Y-41550500D01*
X52921158Y-41550500D01*
X53078844Y-41550500D01*
X53078845Y-41550499D01*
X53233497Y-41519737D01*
X53379179Y-41459394D01*
X53510289Y-41371789D01*
X53621789Y-41260289D01*
X53709394Y-41129179D01*
X53769737Y-40983497D01*
X53800500Y-40828842D01*
X53800500Y-40743543D01*
X54439499Y-40743543D01*
X54477947Y-40936829D01*
X54477950Y-40936839D01*
X54553364Y-41118907D01*
X54553371Y-41118920D01*
X54662860Y-41282781D01*
X54662863Y-41282785D01*
X54802214Y-41422136D01*
X54802218Y-41422139D01*
X54966079Y-41531628D01*
X54966092Y-41531635D01*
X55148160Y-41607049D01*
X55148165Y-41607051D01*
X55148169Y-41607051D01*
X55148170Y-41607052D01*
X55341456Y-41645500D01*
X55341459Y-41645500D01*
X55538543Y-41645500D01*
X55668582Y-41619632D01*
X55731835Y-41607051D01*
X55913914Y-41531632D01*
X56077782Y-41422139D01*
X56217139Y-41282782D01*
X56326632Y-41118914D01*
X56402051Y-40936835D01*
X56423532Y-40828844D01*
X56440500Y-40743543D01*
X63079499Y-40743543D01*
X63117947Y-40936829D01*
X63117950Y-40936839D01*
X63193364Y-41118907D01*
X63193371Y-41118920D01*
X63302860Y-41282781D01*
X63302863Y-41282785D01*
X63442214Y-41422136D01*
X63442218Y-41422139D01*
X63606079Y-41531628D01*
X63606092Y-41531635D01*
X63788160Y-41607049D01*
X63788165Y-41607051D01*
X63788169Y-41607051D01*
X63788170Y-41607052D01*
X63981456Y-41645500D01*
X63981459Y-41645500D01*
X64178543Y-41645500D01*
X64308582Y-41619632D01*
X64371835Y-41607051D01*
X64553914Y-41531632D01*
X64717782Y-41422139D01*
X64857139Y-41282782D01*
X64966632Y-41118914D01*
X65042051Y-40936835D01*
X65063532Y-40828844D01*
X65080500Y-40743543D01*
X65080500Y-39946456D01*
X65042052Y-39753170D01*
X65042051Y-39753169D01*
X65042051Y-39753165D01*
X65042049Y-39753160D01*
X64966635Y-39571092D01*
X64966628Y-39571079D01*
X64857139Y-39407218D01*
X64857136Y-39407214D01*
X64717785Y-39267863D01*
X64717781Y-39267860D01*
X64553920Y-39158371D01*
X64553907Y-39158364D01*
X64371839Y-39082950D01*
X64371829Y-39082947D01*
X64178543Y-39044500D01*
X64178541Y-39044500D01*
X63981459Y-39044500D01*
X63981457Y-39044500D01*
X63788170Y-39082947D01*
X63788160Y-39082950D01*
X63606092Y-39158364D01*
X63606079Y-39158371D01*
X63442218Y-39267860D01*
X63442214Y-39267863D01*
X63302863Y-39407214D01*
X63302860Y-39407218D01*
X63193371Y-39571079D01*
X63193364Y-39571092D01*
X63117950Y-39753160D01*
X63117947Y-39753170D01*
X63079500Y-39946456D01*
X63079500Y-39946459D01*
X63079500Y-40743541D01*
X63079500Y-40743543D01*
X63079499Y-40743543D01*
X56440500Y-40743543D01*
X56440500Y-39946456D01*
X56402052Y-39753170D01*
X56402051Y-39753169D01*
X56402051Y-39753165D01*
X56402049Y-39753160D01*
X56326635Y-39571092D01*
X56326628Y-39571079D01*
X56217139Y-39407218D01*
X56217136Y-39407214D01*
X56077785Y-39267863D01*
X56077781Y-39267860D01*
X55913920Y-39158371D01*
X55913907Y-39158364D01*
X55731839Y-39082950D01*
X55731829Y-39082947D01*
X55538543Y-39044500D01*
X55538541Y-39044500D01*
X55341459Y-39044500D01*
X55341457Y-39044500D01*
X55148170Y-39082947D01*
X55148160Y-39082950D01*
X54966092Y-39158364D01*
X54966079Y-39158371D01*
X54802218Y-39267860D01*
X54802214Y-39267863D01*
X54662863Y-39407214D01*
X54662860Y-39407218D01*
X54553371Y-39571079D01*
X54553364Y-39571092D01*
X54477950Y-39753160D01*
X54477947Y-39753170D01*
X54439500Y-39946456D01*
X54439500Y-39946459D01*
X54439500Y-40743541D01*
X54439500Y-40743543D01*
X54439499Y-40743543D01*
X53800500Y-40743543D01*
X53800500Y-40671158D01*
X53800500Y-40671155D01*
X53800499Y-40671153D01*
X53769738Y-40516510D01*
X53769737Y-40516503D01*
X53769735Y-40516498D01*
X53709397Y-40370827D01*
X53709390Y-40370814D01*
X53621789Y-40239711D01*
X53621786Y-40239707D01*
X53510292Y-40128213D01*
X53510288Y-40128210D01*
X53383465Y-40043469D01*
X53379183Y-40040608D01*
X53379172Y-40040602D01*
X53233501Y-39980264D01*
X53233489Y-39980261D01*
X53078845Y-39949500D01*
X53078842Y-39949500D01*
X52921158Y-39949500D01*
X52921155Y-39949500D01*
X52766510Y-39980261D01*
X52766498Y-39980264D01*
X52620827Y-40040602D01*
X52620814Y-40040609D01*
X52489711Y-40128210D01*
X52489707Y-40128213D01*
X52378213Y-40239707D01*
X52378210Y-40239711D01*
X52290609Y-40370814D01*
X52290602Y-40370827D01*
X52230264Y-40516498D01*
X52230261Y-40516510D01*
X52199500Y-40671153D01*
X34250500Y-40671153D01*
X34250500Y-38421153D01*
X50699500Y-38421153D01*
X50699500Y-38578846D01*
X50730261Y-38733489D01*
X50730264Y-38733501D01*
X50790602Y-38879172D01*
X50790609Y-38879185D01*
X50878210Y-39010288D01*
X50878213Y-39010292D01*
X50989707Y-39121786D01*
X50989711Y-39121789D01*
X51120814Y-39209390D01*
X51120827Y-39209397D01*
X51261971Y-39267860D01*
X51266503Y-39269737D01*
X51421153Y-39300499D01*
X51421156Y-39300500D01*
X51421158Y-39300500D01*
X51578844Y-39300500D01*
X51578845Y-39300499D01*
X51733497Y-39269737D01*
X51879179Y-39209394D01*
X52010289Y-39121789D01*
X52121789Y-39010289D01*
X52209394Y-38879179D01*
X52269737Y-38733497D01*
X52300500Y-38578842D01*
X52300500Y-38421158D01*
X52300500Y-38421155D01*
X52300499Y-38421153D01*
X52269738Y-38266510D01*
X52269737Y-38266503D01*
X52269735Y-38266498D01*
X52209397Y-38120827D01*
X52209390Y-38120814D01*
X52121789Y-37989711D01*
X52121786Y-37989707D01*
X52010292Y-37878213D01*
X52010288Y-37878210D01*
X51879185Y-37790609D01*
X51879172Y-37790602D01*
X51733501Y-37730264D01*
X51733489Y-37730261D01*
X51578845Y-37699500D01*
X51578842Y-37699500D01*
X51421158Y-37699500D01*
X51421155Y-37699500D01*
X51266510Y-37730261D01*
X51266498Y-37730264D01*
X51120827Y-37790602D01*
X51120814Y-37790609D01*
X50989711Y-37878210D01*
X50989707Y-37878213D01*
X50878213Y-37989707D01*
X50878210Y-37989711D01*
X50790609Y-38120814D01*
X50790602Y-38120827D01*
X50730264Y-38266498D01*
X50730261Y-38266510D01*
X50699500Y-38421153D01*
X34250500Y-38421153D01*
X34250500Y-36813543D01*
X54439499Y-36813543D01*
X54477947Y-37006829D01*
X54477950Y-37006839D01*
X54553364Y-37188907D01*
X54553371Y-37188920D01*
X54662860Y-37352781D01*
X54662863Y-37352785D01*
X54802214Y-37492136D01*
X54802218Y-37492139D01*
X54966079Y-37601628D01*
X54966092Y-37601635D01*
X55148160Y-37677049D01*
X55148165Y-37677051D01*
X55148169Y-37677051D01*
X55148170Y-37677052D01*
X55341456Y-37715500D01*
X55341459Y-37715500D01*
X55538543Y-37715500D01*
X55668582Y-37689632D01*
X55731835Y-37677051D01*
X55913914Y-37601632D01*
X56077782Y-37492139D01*
X56217139Y-37352782D01*
X56326632Y-37188914D01*
X56326631Y-37188914D01*
X56330017Y-37183848D01*
X56331474Y-37184821D01*
X56374595Y-37140903D01*
X56442729Y-37125426D01*
X56508414Y-37149242D01*
X56510502Y-37150809D01*
X56516632Y-37155512D01*
X56516635Y-37155515D01*
X56609949Y-37209390D01*
X56643640Y-37228842D01*
X56647865Y-37231281D01*
X56794234Y-37270500D01*
X56794236Y-37270500D01*
X56945764Y-37270500D01*
X56945766Y-37270500D01*
X57092135Y-37231281D01*
X57223365Y-37155515D01*
X57330515Y-37048365D01*
X57406281Y-36917135D01*
X57445500Y-36770766D01*
X57445500Y-36619234D01*
X57406281Y-36472865D01*
X57376425Y-36421153D01*
X57699500Y-36421153D01*
X57699500Y-36578846D01*
X57730261Y-36733489D01*
X57730264Y-36733501D01*
X57790602Y-36879172D01*
X57790609Y-36879185D01*
X57878210Y-37010288D01*
X57878213Y-37010292D01*
X57989707Y-37121786D01*
X57989711Y-37121789D01*
X58120814Y-37209390D01*
X58120827Y-37209397D01*
X58266498Y-37269735D01*
X58266503Y-37269737D01*
X58421153Y-37300499D01*
X58421156Y-37300500D01*
X58421158Y-37300500D01*
X58578844Y-37300500D01*
X58578845Y-37300499D01*
X58733497Y-37269737D01*
X58879179Y-37209394D01*
X59010289Y-37121789D01*
X59121789Y-37010289D01*
X59209394Y-36879179D01*
X59269737Y-36733497D01*
X59300500Y-36578842D01*
X59300500Y-36421158D01*
X59300500Y-36421155D01*
X59300499Y-36421153D01*
X60699500Y-36421153D01*
X60699500Y-36578846D01*
X60730261Y-36733489D01*
X60730264Y-36733501D01*
X60790602Y-36879172D01*
X60790609Y-36879185D01*
X60878210Y-37010288D01*
X60878213Y-37010292D01*
X60989707Y-37121786D01*
X60989711Y-37121789D01*
X61120814Y-37209390D01*
X61120827Y-37209397D01*
X61266498Y-37269735D01*
X61266503Y-37269737D01*
X61421153Y-37300499D01*
X61421156Y-37300500D01*
X61421158Y-37300500D01*
X61578844Y-37300500D01*
X61578845Y-37300499D01*
X61733497Y-37269737D01*
X61879179Y-37209394D01*
X62010289Y-37121789D01*
X62048917Y-37083161D01*
X62110239Y-37049675D01*
X62179931Y-37054659D01*
X62224280Y-37083160D01*
X62296635Y-37155515D01*
X62389949Y-37209390D01*
X62423640Y-37228842D01*
X62427865Y-37231281D01*
X62574234Y-37270500D01*
X62574236Y-37270500D01*
X62725764Y-37270500D01*
X62725766Y-37270500D01*
X62872135Y-37231281D01*
X63003365Y-37155515D01*
X63003374Y-37155505D01*
X63009488Y-37150815D01*
X63074656Y-37125617D01*
X63143101Y-37139650D01*
X63189025Y-37184488D01*
X63189983Y-37183849D01*
X63193009Y-37188378D01*
X63193094Y-37188461D01*
X63193228Y-37188706D01*
X63302860Y-37352781D01*
X63302863Y-37352785D01*
X63442214Y-37492136D01*
X63442218Y-37492139D01*
X63606079Y-37601628D01*
X63606092Y-37601635D01*
X63788160Y-37677049D01*
X63788165Y-37677051D01*
X63788169Y-37677051D01*
X63788170Y-37677052D01*
X63981456Y-37715500D01*
X63981459Y-37715500D01*
X64178543Y-37715500D01*
X64308582Y-37689632D01*
X64371835Y-37677051D01*
X64553914Y-37601632D01*
X64717782Y-37492139D01*
X64857139Y-37352782D01*
X64966632Y-37188914D01*
X64982416Y-37150809D01*
X65015410Y-37071153D01*
X70199500Y-37071153D01*
X70199500Y-37228846D01*
X70230261Y-37383489D01*
X70230264Y-37383501D01*
X70290602Y-37529172D01*
X70290609Y-37529185D01*
X70378210Y-37660288D01*
X70378213Y-37660292D01*
X70489707Y-37771786D01*
X70489711Y-37771789D01*
X70620814Y-37859390D01*
X70620827Y-37859397D01*
X70666254Y-37878213D01*
X70766503Y-37919737D01*
X70921153Y-37950499D01*
X70921156Y-37950500D01*
X70921158Y-37950500D01*
X71078844Y-37950500D01*
X71078845Y-37950499D01*
X71233497Y-37919737D01*
X71379179Y-37859394D01*
X71510289Y-37771789D01*
X71621789Y-37660289D01*
X71709394Y-37529179D01*
X71769737Y-37383497D01*
X71800500Y-37228842D01*
X71800500Y-37071158D01*
X71800500Y-37071155D01*
X71800499Y-37071153D01*
X71796227Y-37049675D01*
X71769737Y-36916503D01*
X71769735Y-36916498D01*
X71709397Y-36770827D01*
X71709390Y-36770814D01*
X71621789Y-36639711D01*
X71621786Y-36639707D01*
X71510292Y-36528213D01*
X71510288Y-36528210D01*
X71379185Y-36440609D01*
X71379172Y-36440602D01*
X71233501Y-36380264D01*
X71233489Y-36380261D01*
X71078845Y-36349500D01*
X71078842Y-36349500D01*
X70921158Y-36349500D01*
X70921155Y-36349500D01*
X70766510Y-36380261D01*
X70766498Y-36380264D01*
X70620827Y-36440602D01*
X70620814Y-36440609D01*
X70489711Y-36528210D01*
X70489707Y-36528213D01*
X70378213Y-36639707D01*
X70378210Y-36639711D01*
X70290609Y-36770814D01*
X70290602Y-36770827D01*
X70230264Y-36916498D01*
X70230261Y-36916510D01*
X70199500Y-37071153D01*
X65015410Y-37071153D01*
X65037586Y-37017614D01*
X65042051Y-37006835D01*
X65054632Y-36943582D01*
X65080500Y-36813543D01*
X65080500Y-35516456D01*
X65042052Y-35323170D01*
X65042051Y-35323169D01*
X65042051Y-35323165D01*
X65042049Y-35323160D01*
X64966635Y-35141092D01*
X64966628Y-35141079D01*
X64857139Y-34977218D01*
X64857136Y-34977214D01*
X64717785Y-34837863D01*
X64717781Y-34837860D01*
X64553920Y-34728371D01*
X64553907Y-34728364D01*
X64371839Y-34652950D01*
X64371829Y-34652947D01*
X64178543Y-34614500D01*
X64178541Y-34614500D01*
X63981459Y-34614500D01*
X63981457Y-34614500D01*
X63788170Y-34652947D01*
X63788160Y-34652950D01*
X63606092Y-34728364D01*
X63606079Y-34728371D01*
X63442218Y-34837860D01*
X63442214Y-34837863D01*
X63302863Y-34977214D01*
X63302860Y-34977218D01*
X63193371Y-35141079D01*
X63193364Y-35141092D01*
X63117950Y-35323160D01*
X63117947Y-35323170D01*
X63079500Y-35516456D01*
X63079500Y-36063666D01*
X63059815Y-36130705D01*
X63007011Y-36176460D01*
X62937853Y-36186404D01*
X62893501Y-36171054D01*
X62872137Y-36158719D01*
X62767584Y-36130705D01*
X62725766Y-36119500D01*
X62574234Y-36119500D01*
X62427862Y-36158719D01*
X62386675Y-36182499D01*
X62318774Y-36198970D01*
X62252748Y-36176117D01*
X62212781Y-36125909D01*
X62212262Y-36126187D01*
X62210748Y-36123354D01*
X62210112Y-36122556D01*
X62209394Y-36120821D01*
X62209392Y-36120818D01*
X62209391Y-36120815D01*
X62121789Y-35989711D01*
X62121786Y-35989707D01*
X62010292Y-35878213D01*
X62010288Y-35878210D01*
X61879185Y-35790609D01*
X61879172Y-35790602D01*
X61733501Y-35730264D01*
X61733489Y-35730261D01*
X61578845Y-35699500D01*
X61578842Y-35699500D01*
X61421158Y-35699500D01*
X61421155Y-35699500D01*
X61266510Y-35730261D01*
X61266498Y-35730264D01*
X61120827Y-35790602D01*
X61120814Y-35790609D01*
X60989711Y-35878210D01*
X60989707Y-35878213D01*
X60878213Y-35989707D01*
X60878210Y-35989711D01*
X60790609Y-36120814D01*
X60790602Y-36120827D01*
X60730264Y-36266498D01*
X60730261Y-36266510D01*
X60699500Y-36421153D01*
X59300499Y-36421153D01*
X59280326Y-36319737D01*
X59269737Y-36266503D01*
X59241764Y-36198970D01*
X59209397Y-36120827D01*
X59209390Y-36120814D01*
X59121789Y-35989711D01*
X59121786Y-35989707D01*
X59010292Y-35878213D01*
X59010288Y-35878210D01*
X58879185Y-35790609D01*
X58879172Y-35790602D01*
X58733501Y-35730264D01*
X58733489Y-35730261D01*
X58578845Y-35699500D01*
X58578842Y-35699500D01*
X58421158Y-35699500D01*
X58421155Y-35699500D01*
X58266510Y-35730261D01*
X58266498Y-35730264D01*
X58120827Y-35790602D01*
X58120814Y-35790609D01*
X57989711Y-35878210D01*
X57989707Y-35878213D01*
X57878213Y-35989707D01*
X57878210Y-35989711D01*
X57790609Y-36120814D01*
X57790602Y-36120827D01*
X57730264Y-36266498D01*
X57730261Y-36266510D01*
X57699500Y-36421153D01*
X57376425Y-36421153D01*
X57330515Y-36341635D01*
X57223365Y-36234485D01*
X57133323Y-36182499D01*
X57092136Y-36158719D01*
X56987584Y-36130705D01*
X56945766Y-36119500D01*
X56794234Y-36119500D01*
X56647862Y-36158719D01*
X56626499Y-36171054D01*
X56558598Y-36187525D01*
X56492572Y-36164673D01*
X56449382Y-36109751D01*
X56440500Y-36063666D01*
X56440500Y-35516456D01*
X56402052Y-35323170D01*
X56402051Y-35323169D01*
X56402051Y-35323165D01*
X56402049Y-35323160D01*
X56326635Y-35141092D01*
X56326628Y-35141079D01*
X56217139Y-34977218D01*
X56217136Y-34977214D01*
X56077785Y-34837863D01*
X56077781Y-34837860D01*
X55913920Y-34728371D01*
X55913907Y-34728364D01*
X55731839Y-34652950D01*
X55731829Y-34652947D01*
X55538543Y-34614500D01*
X55538541Y-34614500D01*
X55341459Y-34614500D01*
X55341457Y-34614500D01*
X55148170Y-34652947D01*
X55148160Y-34652950D01*
X54966092Y-34728364D01*
X54966079Y-34728371D01*
X54802218Y-34837860D01*
X54802214Y-34837863D01*
X54662863Y-34977214D01*
X54662860Y-34977218D01*
X54553371Y-35141079D01*
X54553364Y-35141092D01*
X54477950Y-35323160D01*
X54477947Y-35323170D01*
X54439500Y-35516456D01*
X54439500Y-35516459D01*
X54439500Y-36813541D01*
X54439500Y-36813543D01*
X54439499Y-36813543D01*
X34250500Y-36813543D01*
X34250500Y-35471153D01*
X50699500Y-35471153D01*
X50699500Y-35628846D01*
X50730261Y-35783489D01*
X50730264Y-35783501D01*
X50790602Y-35929172D01*
X50790609Y-35929185D01*
X50878210Y-36060288D01*
X50878213Y-36060292D01*
X50989707Y-36171786D01*
X50989711Y-36171789D01*
X51120814Y-36259390D01*
X51120827Y-36259397D01*
X51244492Y-36310620D01*
X51266503Y-36319737D01*
X51416131Y-36349500D01*
X51421153Y-36350499D01*
X51421156Y-36350500D01*
X51421158Y-36350500D01*
X51578844Y-36350500D01*
X51578845Y-36350499D01*
X51733497Y-36319737D01*
X51879179Y-36259394D01*
X52010289Y-36171789D01*
X52121789Y-36060289D01*
X52209394Y-35929179D01*
X52269737Y-35783497D01*
X52300500Y-35628842D01*
X52300500Y-35471158D01*
X52300500Y-35471155D01*
X52300499Y-35471153D01*
X52269738Y-35316510D01*
X52269737Y-35316503D01*
X52269735Y-35316498D01*
X52209397Y-35170827D01*
X52209390Y-35170814D01*
X52121789Y-35039711D01*
X52121786Y-35039707D01*
X52010292Y-34928213D01*
X52010288Y-34928210D01*
X51879185Y-34840609D01*
X51879172Y-34840602D01*
X51733501Y-34780264D01*
X51733489Y-34780261D01*
X51578845Y-34749500D01*
X51578842Y-34749500D01*
X51421158Y-34749500D01*
X51421155Y-34749500D01*
X51266510Y-34780261D01*
X51266498Y-34780264D01*
X51120827Y-34840602D01*
X51120814Y-34840609D01*
X50989711Y-34928210D01*
X50989707Y-34928213D01*
X50878213Y-35039707D01*
X50878210Y-35039711D01*
X50790609Y-35170814D01*
X50790602Y-35170827D01*
X50730264Y-35316498D01*
X50730261Y-35316510D01*
X50699500Y-35471153D01*
X34250500Y-35471153D01*
X34250500Y-33124500D01*
X34270185Y-33057461D01*
X34322989Y-33011706D01*
X34374500Y-33000500D01*
X78875500Y-33000500D01*
X78942539Y-33020185D01*
G37*
%TD.AperFunction*%
%TD*%
M02*
